<?xml version="1.0" encoding="UTF-8" standalone="no"?>
<!DOCTYPE svg PUBLIC "-//W3C//DTD SVG 1.1//EN"
 "http://www.w3.org/Graphics/SVG/1.1/DTD/svg11.dtd">
<!-- Generated by graphviz version 7.1.0 (20230121.1956)
 -->
<!-- Title: AST Pages: 1 -->
<svg width="832pt" height="1014pt"
 viewBox="0.00 0.00 831.73 1014.09" xmlns="http://www.w3.org/2000/svg" xmlns:xlink="http://www.w3.org/1999/xlink">
<g id="graph0" class="graph" transform="scale(1 1) rotate(0) translate(4 1010.09)">
<title>AST</title>
<polygon fill="white" stroke="none" points="-4,4 -4,-1010.09 827.73,-1010.09 827.73,4 -4,4"/>
<!-- 56 -->
<g id="node1" class="node">
<title>56</title>
<ellipse fill="none" stroke="black" cx="215.78" cy="-988.09" rx="215.56" ry="18"/>
<text text-anchor="middle" x="215.78" y="-984.39" font-family="Times New Roman,serif" font-size="14.00">top_level_class_or_interface_declaration_zero_or_more</text>
</g>
<!-- 57 -->
<g id="node2" class="node">
<title>57</title>
<ellipse fill="none" stroke="black" cx="215.78" cy="-916.09" rx="102.88" ry="18"/>
<text text-anchor="middle" x="215.78" y="-912.39" font-family="Times New Roman,serif" font-size="14.00">normal_class_declaration</text>
</g>
<!-- 56&#45;&gt;57 -->
<g id="edge1" class="edge">
<title>56&#45;&gt;57</title>
<path fill="none" stroke="black" d="M215.78,-969.78C215.78,-962.49 215.78,-953.81 215.78,-945.62"/>
<polygon fill="black" stroke="black" points="219.28,-945.7 215.78,-935.7 212.28,-945.7 219.28,-945.7"/>
</g>
<!-- 2 -->
<g id="node3" class="node">
<title>2</title>
<ellipse fill="none" stroke="black" cx="134.78" cy="-829.49" rx="28.68" ry="28.68"/>
<ellipse fill="none" stroke="black" cx="134.78" cy="-829.49" rx="32.7" ry="32.7"/>
<text text-anchor="middle" x="134.78" y="-825.79" font-family="Times New Roman,serif" font-size="14.00">class</text>
</g>
<!-- 57&#45;&gt;2 -->
<g id="edge2" class="edge">
<title>57&#45;&gt;2</title>
<path fill="none" stroke="black" d="M199.39,-897.97C189.47,-887.61 176.53,-874.09 164.83,-861.87"/>
<polygon fill="black" stroke="black" points="167.47,-859.57 158.03,-854.77 162.42,-864.41 167.47,-859.57"/>
</g>
<!-- 3 -->
<g id="node4" class="node">
<title>3</title>
<ellipse fill="none" stroke="black" cx="215.78" cy="-829.49" rx="26.78" ry="26.78"/>
<ellipse fill="none" stroke="black" cx="215.78" cy="-829.49" rx="30.8" ry="30.8"/>
<text text-anchor="middle" x="215.78" y="-825.79" font-family="Times New Roman,serif" font-size="14.00">Test</text>
</g>
<!-- 57&#45;&gt;3 -->
<g id="edge3" class="edge">
<title>57&#45;&gt;3</title>
<path fill="none" stroke="black" d="M215.78,-897.97C215.78,-890.43 215.78,-881.22 215.78,-872.05"/>
<polygon fill="black" stroke="black" points="219.28,-872.11 215.78,-862.11 212.28,-872.11 219.28,-872.11"/>
</g>
<!-- 58 -->
<g id="node5" class="node">
<title>58</title>
<ellipse fill="none" stroke="black" cx="316.78" cy="-829.49" rx="52.79" ry="18"/>
<text text-anchor="middle" x="316.78" y="-825.79" font-family="Times New Roman,serif" font-size="14.00">class_body</text>
</g>
<!-- 57&#45;&gt;58 -->
<g id="edge4" class="edge">
<title>57&#45;&gt;58</title>
<path fill="none" stroke="black" d="M236.22,-897.97C251.3,-885.34 271.99,-868 288.63,-854.06"/>
<polygon fill="black" stroke="black" points="290.82,-856.8 296.24,-847.69 286.33,-851.43 290.82,-856.8"/>
</g>
<!-- 8 -->
<g id="node6" class="node">
<title>8</title>
<ellipse fill="none" stroke="black" cx="123.78" cy="-738.89" rx="18" ry="18"/>
<ellipse fill="none" stroke="black" cx="123.78" cy="-738.89" rx="22" ry="22"/>
<text text-anchor="middle" x="123.78" y="-735.19" font-family="Times New Roman,serif" font-size="14.00">{</text>
</g>
<!-- 58&#45;&gt;8 -->
<g id="edge5" class="edge">
<title>58&#45;&gt;8</title>
<path fill="none" stroke="black" d="M289.83,-813.53C279.36,-807.98 267.16,-801.84 255.78,-796.89 212.08,-777.89 197.29,-782.43 154.78,-760.89 153.51,-760.25 152.23,-759.56 150.95,-758.84"/>
<polygon fill="black" stroke="black" points="152.98,-755.98 142.63,-753.7 149.3,-761.93 152.98,-755.98"/>
</g>
<!-- 59 -->
<g id="node7" class="node">
<title>59</title>
<ellipse fill="none" stroke="black" cx="316.78" cy="-738.89" rx="153.27" ry="18"/>
<text text-anchor="middle" x="316.78" y="-735.19" font-family="Times New Roman,serif" font-size="14.00">class_body_declaration_zero_or_more</text>
</g>
<!-- 58&#45;&gt;59 -->
<g id="edge6" class="edge">
<title>58&#45;&gt;59</title>
<path fill="none" stroke="black" d="M316.78,-811.41C316.78,-799.23 316.78,-782.57 316.78,-768.39"/>
<polygon fill="black" stroke="black" points="320.28,-768.74 316.78,-758.74 313.28,-768.74 320.28,-768.74"/>
</g>
<!-- 47 -->
<g id="node8" class="node">
<title>47</title>
<ellipse fill="none" stroke="black" cx="509.78" cy="-738.89" rx="18" ry="18"/>
<ellipse fill="none" stroke="black" cx="509.78" cy="-738.89" rx="22" ry="22"/>
<text text-anchor="middle" x="509.78" y="-735.19" font-family="Times New Roman,serif" font-size="14.00">}</text>
</g>
<!-- 58&#45;&gt;47 -->
<g id="edge7" class="edge">
<title>58&#45;&gt;47</title>
<path fill="none" stroke="black" d="M352.48,-815.95C385.95,-803.65 436.95,-783.49 478.78,-760.89 480.04,-760.21 481.3,-759.5 482.57,-758.75"/>
<polygon fill="black" stroke="black" points="484.25,-761.83 490.85,-753.54 480.52,-755.91 484.25,-761.83"/>
</g>
<!-- 60 -->
<g id="node9" class="node">
<title>60</title>
<ellipse fill="none" stroke="black" cx="316.78" cy="-662.89" rx="70.69" ry="18"/>
<text text-anchor="middle" x="316.78" y="-659.19" font-family="Times New Roman,serif" font-size="14.00">field_declaration</text>
</g>
<!-- 59&#45;&gt;60 -->
<g id="edge8" class="edge">
<title>59&#45;&gt;60</title>
<path fill="none" stroke="black" d="M316.78,-720.73C316.78,-712.38 316.78,-702.12 316.78,-692.63"/>
<polygon fill="black" stroke="black" points="320.28,-692.73 316.78,-682.73 313.28,-692.73 320.28,-692.73"/>
</g>
<!-- 10 -->
<g id="node10" class="node">
<title>10</title>
<ellipse fill="none" stroke="black" cx="242.78" cy="-572.39" rx="32.49" ry="32.49"/>
<ellipse fill="none" stroke="black" cx="242.78" cy="-572.39" rx="36.49" ry="36.49"/>
<text text-anchor="middle" x="242.78" y="-568.69" font-family="Times New Roman,serif" font-size="14.00">String</text>
</g>
<!-- 60&#45;&gt;10 -->
<g id="edge9" class="edge">
<title>60&#45;&gt;10</title>
<path fill="none" stroke="black" d="M302.51,-644.83C294.13,-634.8 283.21,-621.74 273,-609.53"/>
<polygon fill="black" stroke="black" points="275.81,-607.44 266.71,-602.01 270.44,-611.93 275.81,-607.44"/>
</g>
<!-- 61 -->
<g id="node11" class="node">
<title>61</title>
<ellipse fill="none" stroke="black" cx="391.78" cy="-572.39" rx="94.78" ry="18"/>
<text text-anchor="middle" x="391.78" y="-568.69" font-family="Times New Roman,serif" font-size="14.00">variable_declarator_list</text>
</g>
<!-- 60&#45;&gt;61 -->
<g id="edge10" class="edge">
<title>60&#45;&gt;61</title>
<path fill="none" stroke="black" d="M331.24,-644.83C342.24,-631.85 357.55,-613.78 370.03,-599.06"/>
<polygon fill="black" stroke="black" points="372.59,-601.45 376.39,-591.56 367.25,-596.93 372.59,-601.45"/>
</g>
<!-- 62 -->
<g id="node12" class="node">
<title>62</title>
<ellipse fill="none" stroke="black" cx="391.78" cy="-481.9" rx="79.09" ry="18"/>
<text text-anchor="middle" x="391.78" y="-478.2" font-family="Times New Roman,serif" font-size="14.00">variable_declarator</text>
</g>
<!-- 61&#45;&gt;62 -->
<g id="edge11" class="edge">
<title>61&#45;&gt;62</title>
<path fill="none" stroke="black" d="M391.78,-553.91C391.78,-541.91 391.78,-525.7 391.78,-511.8"/>
<polygon fill="black" stroke="black" points="395.28,-511.86 391.78,-501.86 388.28,-511.86 395.28,-511.86"/>
</g>
<!-- 63 -->
<g id="node13" class="node">
<title>63</title>
<ellipse fill="none" stroke="black" cx="260.78" cy="-409.9" rx="90.98" ry="18"/>
<text text-anchor="middle" x="260.78" y="-406.2" font-family="Times New Roman,serif" font-size="14.00">variable_declarator_id</text>
</g>
<!-- 62&#45;&gt;63 -->
<g id="edge12" class="edge">
<title>62&#45;&gt;63</title>
<path fill="none" stroke="black" d="M361.73,-464.84C343.8,-455.26 320.8,-442.97 301.28,-432.54"/>
<polygon fill="black" stroke="black" points="302.95,-429.46 292.48,-427.84 299.65,-435.64 302.95,-429.46"/>
</g>
<!-- 64 -->
<g id="node14" class="node">
<title>64</title>
<ellipse fill="none" stroke="black" cx="522.78" cy="-409.9" rx="153.27" ry="18"/>
<text text-anchor="middle" x="522.78" y="-406.2" font-family="Times New Roman,serif" font-size="14.00">equals_variable_initializer_zero_or_one</text>
</g>
<!-- 62&#45;&gt;64 -->
<g id="edge13" class="edge">
<title>62&#45;&gt;64</title>
<path fill="none" stroke="black" d="M421.83,-464.84C439.38,-455.46 461.78,-443.49 481.02,-433.21"/>
<polygon fill="black" stroke="black" points="482.53,-436.37 489.7,-428.57 479.24,-430.2 482.53,-436.37"/>
</g>
<!-- 15 -->
<g id="node15" class="node">
<title>15</title>
<ellipse fill="none" stroke="black" cx="260.78" cy="-177.95" rx="28.68" ry="28.68"/>
<ellipse fill="none" stroke="black" cx="260.78" cy="-177.95" rx="32.7" ry="32.7"/>
<text text-anchor="middle" x="260.78" y="-174.25" font-family="Times New Roman,serif" font-size="14.00">abcd</text>
</g>
<!-- 63&#45;&gt;15 -->
<g id="edge14" class="edge">
<title>63&#45;&gt;15</title>
<path fill="none" stroke="black" d="M260.78,-391.61C260.78,-355.95 260.78,-273.29 260.78,-222.17"/>
<polygon fill="black" stroke="black" points="264.28,-222.34 260.78,-212.34 257.28,-222.34 264.28,-222.34"/>
</g>
<!-- 18 -->
<g id="node16" class="node">
<title>18</title>
<ellipse fill="none" stroke="black" cx="427.78" cy="-177.95" rx="18" ry="18"/>
<ellipse fill="none" stroke="black" cx="427.78" cy="-177.95" rx="22" ry="22"/>
<text text-anchor="middle" x="427.78" y="-174.25" font-family="Times New Roman,serif" font-size="14.00">=</text>
</g>
<!-- 64&#45;&gt;18 -->
<g id="edge15" class="edge">
<title>64&#45;&gt;18</title>
<path fill="none" stroke="black" d="M494.16,-391.9C481.36,-382.82 467.26,-370.49 458.78,-355.9 432.49,-310.64 427.35,-248.66 426.92,-211.35"/>
<polygon fill="black" stroke="black" points="430.42,-211.67 426.93,-201.67 423.42,-211.66 430.42,-211.67"/>
</g>
<!-- 19 -->
<g id="node17" class="node">
<title>19</title>
<ellipse fill="none" stroke="black" cx="645.78" cy="-177.95" rx="173.9" ry="173.9"/>
<ellipse fill="none" stroke="black" cx="645.78" cy="-177.95" rx="177.9" ry="177.9"/>
<text text-anchor="middle" x="645.78" y="-181.25" font-family="Times New Roman,serif" font-size="14.00">____________newline_block_textblock</text>
<text text-anchor="middle" x="645.78" y="-166.25" font-family="Times New Roman,serif" font-size="14.00">____________is_present</text>
<text text-anchor="middle" x="645.78" y="-151.25" font-family="Times New Roman,serif" font-size="14.00">____________</text>
</g>
<!-- 64&#45;&gt;19 -->
<g id="edge16" class="edge">
<title>64&#45;&gt;19</title>
<path fill="none" stroke="black" d="M532.03,-391.61C538.16,-380.14 546.9,-363.8 556.85,-345.21"/>
<polygon fill="black" stroke="black" points="559.81,-347.1 561.44,-336.63 553.63,-343.8 559.81,-347.1"/>
</g>
</g>
</svg>
