<?xml version="1.0" encoding="UTF-8" standalone="no"?>
<!DOCTYPE svg PUBLIC "-//W3C//DTD SVG 1.1//EN"
 "http://www.w3.org/Graphics/SVG/1.1/DTD/svg11.dtd">
<!-- Generated by graphviz version 7.1.0 (20230121.1956)
 -->
<!-- Title: AST Pages: 1 -->
<svg width="677pt" height="756pt"
 viewBox="0.00 0.00 677.17 756.19" xmlns="http://www.w3.org/2000/svg" xmlns:xlink="http://www.w3.org/1999/xlink">
<g id="graph0" class="graph" transform="scale(1 1) rotate(0) translate(4 752.19)">
<title>AST</title>
<polygon fill="white" stroke="none" points="-4,4 -4,-752.19 673.17,-752.19 673.17,4 -4,4"/>
<!-- 64 -->
<g id="node1" class="node">
<title>64</title>
<ellipse fill="none" stroke="black" cx="215.78" cy="-730.19" rx="215.56" ry="18"/>
<text text-anchor="middle" x="215.78" y="-726.49" font-family="Times New Roman,serif" font-size="14.00">top_level_class_or_interface_declaration_zero_or_more</text>
</g>
<!-- 65 -->
<g id="node2" class="node">
<title>65</title>
<ellipse fill="none" stroke="black" cx="215.78" cy="-658.19" rx="102.88" ry="18"/>
<text text-anchor="middle" x="215.78" y="-654.49" font-family="Times New Roman,serif" font-size="14.00">normal_class_declaration</text>
</g>
<!-- 64&#45;&gt;65 -->
<g id="edge1" class="edge">
<title>64&#45;&gt;65</title>
<path fill="none" stroke="black" d="M215.78,-711.89C215.78,-704.6 215.78,-695.92 215.78,-687.73"/>
<polygon fill="black" stroke="black" points="219.28,-687.81 215.78,-677.81 212.28,-687.81 219.28,-687.81"/>
</g>
<!-- 2 -->
<g id="node3" class="node">
<title>2</title>
<ellipse fill="none" stroke="black" cx="134.78" cy="-571.59" rx="28.68" ry="28.68"/>
<ellipse fill="none" stroke="black" cx="134.78" cy="-571.59" rx="32.7" ry="32.7"/>
<text text-anchor="middle" x="134.78" y="-567.89" font-family="Times New Roman,serif" font-size="14.00">class</text>
</g>
<!-- 65&#45;&gt;2 -->
<g id="edge2" class="edge">
<title>65&#45;&gt;2</title>
<path fill="none" stroke="black" d="M199.39,-640.07C189.47,-629.72 176.53,-616.19 164.83,-603.98"/>
<polygon fill="black" stroke="black" points="167.47,-601.68 158.03,-596.87 162.42,-606.52 167.47,-601.68"/>
</g>
<!-- 3 -->
<g id="node4" class="node">
<title>3</title>
<ellipse fill="none" stroke="black" cx="215.78" cy="-571.59" rx="26.78" ry="26.78"/>
<ellipse fill="none" stroke="black" cx="215.78" cy="-571.59" rx="30.8" ry="30.8"/>
<text text-anchor="middle" x="215.78" y="-567.89" font-family="Times New Roman,serif" font-size="14.00">Test</text>
</g>
<!-- 65&#45;&gt;3 -->
<g id="edge3" class="edge">
<title>65&#45;&gt;3</title>
<path fill="none" stroke="black" d="M215.78,-640.07C215.78,-632.54 215.78,-623.32 215.78,-614.16"/>
<polygon fill="black" stroke="black" points="219.28,-614.21 215.78,-604.21 212.28,-614.21 219.28,-614.21"/>
</g>
<!-- 66 -->
<g id="node5" class="node">
<title>66</title>
<ellipse fill="none" stroke="black" cx="316.78" cy="-571.59" rx="52.79" ry="18"/>
<text text-anchor="middle" x="316.78" y="-567.89" font-family="Times New Roman,serif" font-size="14.00">class_body</text>
</g>
<!-- 65&#45;&gt;66 -->
<g id="edge4" class="edge">
<title>65&#45;&gt;66</title>
<path fill="none" stroke="black" d="M236.22,-640.07C251.3,-627.44 271.99,-610.11 288.63,-596.17"/>
<polygon fill="black" stroke="black" points="290.82,-598.9 296.24,-589.8 286.33,-593.54 290.82,-598.9"/>
</g>
<!-- 8 -->
<g id="node6" class="node">
<title>8</title>
<ellipse fill="none" stroke="black" cx="123.78" cy="-481" rx="18" ry="18"/>
<ellipse fill="none" stroke="black" cx="123.78" cy="-481" rx="22" ry="22"/>
<text text-anchor="middle" x="123.78" y="-477.3" font-family="Times New Roman,serif" font-size="14.00">{</text>
</g>
<!-- 66&#45;&gt;8 -->
<g id="edge5" class="edge">
<title>66&#45;&gt;8</title>
<path fill="none" stroke="black" d="M289.83,-555.64C279.36,-550.08 267.16,-543.94 255.78,-539 212.08,-519.99 197.29,-524.53 154.78,-503 153.51,-502.35 152.23,-501.66 150.95,-500.94"/>
<polygon fill="black" stroke="black" points="152.98,-498.08 142.63,-495.81 149.3,-504.04 152.98,-498.08"/>
</g>
<!-- 67 -->
<g id="node7" class="node">
<title>67</title>
<ellipse fill="none" stroke="black" cx="316.78" cy="-481" rx="153.27" ry="18"/>
<text text-anchor="middle" x="316.78" y="-477.3" font-family="Times New Roman,serif" font-size="14.00">class_body_declaration_zero_or_more</text>
</g>
<!-- 66&#45;&gt;67 -->
<g id="edge6" class="edge">
<title>66&#45;&gt;67</title>
<path fill="none" stroke="black" d="M316.78,-553.51C316.78,-541.33 316.78,-524.67 316.78,-510.5"/>
<polygon fill="black" stroke="black" points="320.28,-510.84 316.78,-500.84 313.28,-510.84 320.28,-510.84"/>
</g>
<!-- 55 -->
<g id="node8" class="node">
<title>55</title>
<ellipse fill="none" stroke="black" cx="509.78" cy="-481" rx="18" ry="18"/>
<ellipse fill="none" stroke="black" cx="509.78" cy="-481" rx="22" ry="22"/>
<text text-anchor="middle" x="509.78" y="-477.3" font-family="Times New Roman,serif" font-size="14.00">}</text>
</g>
<!-- 66&#45;&gt;55 -->
<g id="edge7" class="edge">
<title>66&#45;&gt;55</title>
<path fill="none" stroke="black" d="M352.48,-558.05C385.95,-545.75 436.95,-525.6 478.78,-503 480.04,-502.32 481.3,-501.6 482.57,-500.86"/>
<polygon fill="black" stroke="black" points="484.25,-503.94 490.85,-495.65 480.52,-498.01 484.25,-503.94"/>
</g>
<!-- 68 -->
<g id="node9" class="node">
<title>68</title>
<ellipse fill="none" stroke="black" cx="316.78" cy="-405" rx="70.69" ry="18"/>
<text text-anchor="middle" x="316.78" y="-401.3" font-family="Times New Roman,serif" font-size="14.00">field_declaration</text>
</g>
<!-- 67&#45;&gt;68 -->
<g id="edge8" class="edge">
<title>67&#45;&gt;68</title>
<path fill="none" stroke="black" d="M316.78,-462.83C316.78,-454.49 316.78,-444.23 316.78,-434.74"/>
<polygon fill="black" stroke="black" points="320.28,-434.84 316.78,-424.84 313.28,-434.84 320.28,-434.84"/>
</g>
<!-- 10 -->
<g id="node10" class="node">
<title>10</title>
<ellipse fill="none" stroke="black" cx="248.78" cy="-327.5" rx="19.5" ry="19.5"/>
<ellipse fill="none" stroke="black" cx="248.78" cy="-327.5" rx="23.5" ry="23.5"/>
<text text-anchor="middle" x="248.78" y="-323.8" font-family="Times New Roman,serif" font-size="14.00">int</text>
</g>
<!-- 68&#45;&gt;10 -->
<g id="edge9" class="edge">
<title>68&#45;&gt;10</title>
<path fill="none" stroke="black" d="M301.69,-387.24C292.92,-377.51 281.69,-365.04 271.84,-354.1"/>
<polygon fill="black" stroke="black" points="274.61,-351.94 265.31,-346.86 269.41,-356.63 274.61,-351.94"/>
</g>
<!-- 69 -->
<g id="node11" class="node">
<title>69</title>
<ellipse fill="none" stroke="black" cx="384.78" cy="-327.5" rx="94.78" ry="18"/>
<text text-anchor="middle" x="384.78" y="-323.8" font-family="Times New Roman,serif" font-size="14.00">variable_declarator_list</text>
</g>
<!-- 68&#45;&gt;69 -->
<g id="edge10" class="edge">
<title>68&#45;&gt;69</title>
<path fill="none" stroke="black" d="M331.87,-387.24C340.64,-377.51 351.87,-365.04 361.72,-354.1"/>
<polygon fill="black" stroke="black" points="364.16,-356.63 368.25,-346.86 358.95,-351.94 364.16,-356.63"/>
</g>
<!-- 70 -->
<g id="node12" class="node">
<title>70</title>
<ellipse fill="none" stroke="black" cx="384.78" cy="-250" rx="79.09" ry="18"/>
<text text-anchor="middle" x="384.78" y="-246.3" font-family="Times New Roman,serif" font-size="14.00">variable_declarator</text>
</g>
<!-- 69&#45;&gt;70 -->
<g id="edge11" class="edge">
<title>69&#45;&gt;70</title>
<path fill="none" stroke="black" d="M384.78,-309.37C384.78,-300.55 384.78,-289.57 384.78,-279.51"/>
<polygon fill="black" stroke="black" points="388.28,-279.84 384.78,-269.84 381.28,-279.84 388.28,-279.84"/>
</g>
<!-- 71 -->
<g id="node13" class="node">
<title>71</title>
<ellipse fill="none" stroke="black" cx="253.78" cy="-178" rx="90.98" ry="18"/>
<text text-anchor="middle" x="253.78" y="-174.3" font-family="Times New Roman,serif" font-size="14.00">variable_declarator_id</text>
</g>
<!-- 70&#45;&gt;71 -->
<g id="edge12" class="edge">
<title>70&#45;&gt;71</title>
<path fill="none" stroke="black" d="M354.73,-232.94C336.8,-223.36 313.8,-211.07 294.28,-200.64"/>
<polygon fill="black" stroke="black" points="295.95,-197.57 285.48,-195.94 292.65,-203.74 295.95,-197.57"/>
</g>
<!-- 72 -->
<g id="node14" class="node">
<title>72</title>
<ellipse fill="none" stroke="black" cx="515.78" cy="-178" rx="153.27" ry="18"/>
<text text-anchor="middle" x="515.78" y="-174.3" font-family="Times New Roman,serif" font-size="14.00">equals_variable_initializer_zero_or_one</text>
</g>
<!-- 70&#45;&gt;72 -->
<g id="edge13" class="edge">
<title>70&#45;&gt;72</title>
<path fill="none" stroke="black" d="M414.83,-232.94C432.38,-223.57 454.78,-211.6 474.02,-201.32"/>
<polygon fill="black" stroke="black" points="475.53,-204.47 482.7,-196.67 472.24,-198.3 475.53,-204.47"/>
</g>
<!-- 14 -->
<g id="node15" class="node">
<title>14</title>
<ellipse fill="none" stroke="black" cx="253.78" cy="-102" rx="18" ry="18"/>
<ellipse fill="none" stroke="black" cx="253.78" cy="-102" rx="22" ry="22"/>
<text text-anchor="middle" x="253.78" y="-98.3" font-family="Times New Roman,serif" font-size="14.00">i</text>
</g>
<!-- 71&#45;&gt;14 -->
<g id="edge14" class="edge">
<title>71&#45;&gt;14</title>
<path fill="none" stroke="black" d="M253.78,-159.84C253.78,-152.64 253.78,-144.02 253.78,-135.7"/>
<polygon fill="black" stroke="black" points="257.28,-135.82 253.78,-125.82 250.28,-135.82 257.28,-135.82"/>
</g>
<!-- 17 -->
<g id="node16" class="node">
<title>17</title>
<ellipse fill="none" stroke="black" cx="453.78" cy="-102" rx="18" ry="18"/>
<ellipse fill="none" stroke="black" cx="453.78" cy="-102" rx="22" ry="22"/>
<text text-anchor="middle" x="453.78" y="-98.3" font-family="Times New Roman,serif" font-size="14.00">=</text>
</g>
<!-- 72&#45;&gt;17 -->
<g id="edge15" class="edge">
<title>72&#45;&gt;17</title>
<path fill="none" stroke="black" d="M501.4,-159.84C493.54,-150.46 483.66,-138.67 474.94,-128.26"/>
<polygon fill="black" stroke="black" points="477.73,-126.14 468.63,-120.72 472.37,-130.63 477.73,-126.14"/>
</g>
<!-- 73 -->
<g id="node17" class="node">
<title>73</title>
<ellipse fill="none" stroke="black" cx="576.78" cy="-102" rx="83.39" ry="18"/>
<text text-anchor="middle" x="576.78" y="-98.3" font-family="Times New Roman,serif" font-size="14.00">additive_expression</text>
</g>
<!-- 72&#45;&gt;73 -->
<g id="edge16" class="edge">
<title>72&#45;&gt;73</title>
<path fill="none" stroke="black" d="M529.93,-159.84C537.55,-150.59 547.11,-139 555.6,-128.7"/>
<polygon fill="black" stroke="black" points="558.09,-131.18 561.75,-121.24 552.69,-126.73 558.09,-131.18"/>
</g>
<!-- 18 -->
<g id="node18" class="node">
<title>18</title>
<ellipse fill="none" stroke="black" cx="514.78" cy="-22" rx="18" ry="18"/>
<ellipse fill="none" stroke="black" cx="514.78" cy="-22" rx="22" ry="22"/>
<text text-anchor="middle" x="514.78" y="-18.3" font-family="Times New Roman,serif" font-size="14.00">5</text>
</g>
<!-- 73&#45;&gt;18 -->
<g id="edge17" class="edge">
<title>73&#45;&gt;18</title>
<path fill="none" stroke="black" d="M563.33,-84.08C555.12,-73.75 544.47,-60.35 535.24,-48.73"/>
<polygon fill="black" stroke="black" points="538.11,-46.73 529.15,-41.08 532.63,-51.08 538.11,-46.73"/>
</g>
<!-- 26 -->
<g id="node19" class="node">
<title>26</title>
<ellipse fill="none" stroke="black" cx="576.78" cy="-22" rx="18" ry="18"/>
<ellipse fill="none" stroke="black" cx="576.78" cy="-22" rx="22" ry="22"/>
<text text-anchor="middle" x="576.78" y="-18.3" font-family="Times New Roman,serif" font-size="14.00">+</text>
</g>
<!-- 73&#45;&gt;26 -->
<g id="edge18" class="edge">
<title>73&#45;&gt;26</title>
<path fill="none" stroke="black" d="M576.78,-83.69C576.78,-75.46 576.78,-65.33 576.78,-55.73"/>
<polygon fill="black" stroke="black" points="580.28,-55.95 576.78,-45.95 573.28,-55.95 580.28,-55.95"/>
</g>
<!-- 27 -->
<g id="node20" class="node">
<title>27</title>
<ellipse fill="none" stroke="black" cx="638.78" cy="-22" rx="18" ry="18"/>
<ellipse fill="none" stroke="black" cx="638.78" cy="-22" rx="22" ry="22"/>
<text text-anchor="middle" x="638.78" y="-18.3" font-family="Times New Roman,serif" font-size="14.00">5</text>
</g>
<!-- 73&#45;&gt;27 -->
<g id="edge19" class="edge">
<title>73&#45;&gt;27</title>
<path fill="none" stroke="black" d="M590.23,-84.08C598.44,-73.75 609.09,-60.35 618.33,-48.73"/>
<polygon fill="black" stroke="black" points="620.93,-51.08 624.41,-41.08 615.45,-46.73 620.93,-51.08"/>
</g>
</g>
</svg>
