<?xml version="1.0" encoding="UTF-8" standalone="no"?>
<!DOCTYPE svg PUBLIC "-//W3C//DTD SVG 1.1//EN"
 "http://www.w3.org/Graphics/SVG/1.1/DTD/svg11.dtd">
<!-- Generated by graphviz version 7.1.0 (20230121.1956)
 -->
<!-- Title: AST Pages: 1 -->
<svg width="1569pt" height="1052pt"
 viewBox="0.00 0.00 1569.03 1052.00" xmlns="http://www.w3.org/2000/svg" xmlns:xlink="http://www.w3.org/1999/xlink">
<g id="graph0" class="graph" transform="scale(1 1) rotate(0) translate(4 1048)">
<title>AST</title>
<polygon fill="white" stroke="none" points="-4,4 -4,-1048 1565.03,-1048 1565.03,4 -4,4"/>
<!-- top_level_class_or_interface_declaration_zero_or_more -->
<g id="node1" class="node">
<title>top_level_class_or_interface_declaration_zero_or_more</title>
<ellipse fill="none" stroke="black" cx="633.79" cy="-1026" rx="209.06" ry="18"/>
<text text-anchor="middle" x="633.79" y="-1022.3" font-family="Times,serif" font-size="14.00">top_level_class_or_interface_declaration_zero_or_more</text>
</g>
<!-- top_level_class_or_interface_declaration_zero_or_more&#45;&gt;top_level_class_or_interface_declaration_zero_or_more -->
<g id="edge2" class="edge">
<title>top_level_class_or_interface_declaration_zero_or_more&#45;&gt;top_level_class_or_interface_declaration_zero_or_more</title>
<path fill="none" stroke="black" d="M776.95,-1039.5C823.78,-1039.43 861.07,-1034.93 861.07,-1026 861.07,-1017.8 829.65,-1013.34 788.27,-1012.61"/>
<polygon fill="black" stroke="black" points="788.5,-1009.11 778.46,-1012.52 788.43,-1016.11 788.5,-1009.11"/>
</g>
<!-- normal_class_declaration -->
<g id="node2" class="node">
<title>normal_class_declaration</title>
<ellipse fill="none" stroke="black" cx="633.79" cy="-954" rx="100.98" ry="18"/>
<text text-anchor="middle" x="633.79" y="-950.3" font-family="Times,serif" font-size="14.00">normal_class_declaration</text>
</g>
<!-- top_level_class_or_interface_declaration_zero_or_more&#45;&gt;normal_class_declaration -->
<g id="edge1" class="edge">
<title>top_level_class_or_interface_declaration_zero_or_more&#45;&gt;normal_class_declaration</title>
<path fill="none" stroke="black" d="M633.79,-1007.7C633.79,-1000.41 633.79,-991.73 633.79,-983.54"/>
<polygon fill="black" stroke="black" points="637.29,-983.62 633.79,-973.62 630.29,-983.62 637.29,-983.62"/>
</g>
<!-- modifiers_zero_or_more -->
<g id="node3" class="node">
<title>modifiers_zero_or_more</title>
<ellipse fill="none" stroke="black" cx="98.79" cy="-666" rx="98.58" ry="18"/>
<text text-anchor="middle" x="98.79" y="-662.3" font-family="Times,serif" font-size="14.00">modifiers_zero_or_more</text>
</g>
<!-- normal_class_declaration&#45;&gt;modifiers_zero_or_more -->
<g id="edge3" class="edge">
<title>normal_class_declaration&#45;&gt;modifiers_zero_or_more</title>
<path fill="none" stroke="black" d="M548.01,-944.21C417.34,-928.89 177.95,-892.59 124.79,-828 93.89,-790.45 92.75,-730.82 95.35,-695.64"/>
<polygon fill="black" stroke="black" points="98.82,-696.07 96.24,-685.79 91.85,-695.44 98.82,-696.07"/>
</g>
<!-- class -->
<g id="node4" class="node">
<title>class</title>
<ellipse fill="none" stroke="black" cx="474.79" cy="-882" rx="27.9" ry="18"/>
<text text-anchor="middle" x="474.79" y="-878.3" font-family="Times,serif" font-size="14.00">class</text>
</g>
<!-- normal_class_declaration&#45;&gt;class -->
<g id="edge4" class="edge">
<title>normal_class_declaration&#45;&gt;class</title>
<path fill="none" stroke="black" d="M595.69,-936.98C571.32,-926.64 539.08,-912.77 510.79,-900 509.52,-899.42 508.22,-898.83 506.91,-898.23"/>
<polygon fill="black" stroke="black" points="508.74,-895.22 498.19,-894.19 505.79,-901.57 508.74,-895.22"/>
</g>
<!-- Test1 -->
<g id="node5" class="node">
<title>Test1</title>
<ellipse fill="none" stroke="black" cx="550.79" cy="-882" rx="30.59" ry="18"/>
<text text-anchor="middle" x="550.79" y="-878.3" font-family="Times,serif" font-size="14.00">Test1</text>
</g>
<!-- normal_class_declaration&#45;&gt;Test1 -->
<g id="edge5" class="edge">
<title>normal_class_declaration&#45;&gt;Test1</title>
<path fill="none" stroke="black" d="M613.7,-936.05C602.54,-926.64 588.53,-914.82 576.56,-904.74"/>
<polygon fill="black" stroke="black" points="578.95,-902.17 569.05,-898.4 574.44,-907.52 578.95,-902.17"/>
</g>
<!-- type_parameters_zero_or_one -->
<g id="node6" class="node">
<title>type_parameters_zero_or_one</title>
<ellipse fill="none" stroke="black" cx="716.79" cy="-882" rx="117.78" ry="18"/>
<text text-anchor="middle" x="716.79" y="-878.3" font-family="Times,serif" font-size="14.00">type_parameters_zero_or_one</text>
</g>
<!-- normal_class_declaration&#45;&gt;type_parameters_zero_or_one -->
<g id="edge6" class="edge">
<title>normal_class_declaration&#45;&gt;type_parameters_zero_or_one</title>
<path fill="none" stroke="black" d="M653.88,-936.05C664.1,-927.43 676.71,-916.8 687.95,-907.32"/>
<polygon fill="black" stroke="black" points="690.05,-910.13 695.44,-901.01 685.54,-904.78 690.05,-910.13"/>
</g>
<!-- class_extends_zero_or_one -->
<g id="node7" class="node">
<title>class_extends_zero_or_one</title>
<ellipse fill="none" stroke="black" cx="959.79" cy="-882" rx="107.48" ry="18"/>
<text text-anchor="middle" x="959.79" y="-878.3" font-family="Times,serif" font-size="14.00">class_extends_zero_or_one</text>
</g>
<!-- normal_class_declaration&#45;&gt;class_extends_zero_or_one -->
<g id="edge7" class="edge">
<title>normal_class_declaration&#45;&gt;class_extends_zero_or_one</title>
<path fill="none" stroke="black" d="M696.65,-939.5C750.25,-927.99 827.43,-911.42 884.36,-899.2"/>
<polygon fill="black" stroke="black" points="884.93,-902.65 893.98,-897.13 883.47,-895.81 884.93,-902.65"/>
</g>
<!-- class_implements_zero_or_one -->
<g id="node8" class="node">
<title>class_implements_zero_or_one</title>
<ellipse fill="none" stroke="black" cx="1206.79" cy="-882" rx="122.38" ry="18"/>
<text text-anchor="middle" x="1206.79" y="-878.3" font-family="Times,serif" font-size="14.00">class_implements_zero_or_one</text>
</g>
<!-- normal_class_declaration&#45;&gt;class_implements_zero_or_one -->
<g id="edge8" class="edge">
<title>normal_class_declaration&#45;&gt;class_implements_zero_or_one</title>
<path fill="none" stroke="black" d="M716.51,-943.32C805.33,-932.88 950.59,-915.63 1075.79,-900 1085.74,-898.76 1096.1,-897.45 1106.45,-896.12"/>
<polygon fill="black" stroke="black" points="1106.69,-899.62 1116.16,-894.88 1105.8,-892.68 1106.69,-899.62"/>
</g>
<!-- class_permits_zero_or_one -->
<g id="node9" class="node">
<title>class_permits_zero_or_one</title>
<ellipse fill="none" stroke="black" cx="1453.79" cy="-882" rx="107.48" ry="18"/>
<text text-anchor="middle" x="1453.79" y="-878.3" font-family="Times,serif" font-size="14.00">class_permits_zero_or_one</text>
</g>
<!-- normal_class_declaration&#45;&gt;class_permits_zero_or_one -->
<g id="edge9" class="edge">
<title>normal_class_declaration&#45;&gt;class_permits_zero_or_one</title>
<path fill="none" stroke="black" d="M729.64,-947.93C865.3,-940.26 1120.95,-924.02 1337.79,-900 1346.95,-898.99 1356.5,-897.8 1366.01,-896.53"/>
<polygon fill="black" stroke="black" points="1366.21,-900.04 1375.64,-895.22 1365.26,-893.1 1366.21,-900.04"/>
</g>
<!-- class_body -->
<g id="node10" class="node">
<title>class_body</title>
<ellipse fill="none" stroke="black" cx="378.79" cy="-882" rx="50.09" ry="18"/>
<text text-anchor="middle" x="378.79" y="-878.3" font-family="Times,serif" font-size="14.00">class_body</text>
</g>
<!-- normal_class_declaration&#45;&gt;class_body -->
<g id="edge10" class="edge">
<title>normal_class_declaration&#45;&gt;class_body</title>
<path fill="none" stroke="black" d="M579.23,-938.5C539.87,-927.98 485.49,-913.32 437.79,-900 434.51,-899.08 431.13,-898.13 427.72,-897.17"/>
<polygon fill="black" stroke="black" points="428.88,-893.86 418.31,-894.48 426.96,-900.59 428.88,-893.86"/>
</g>
<!-- modifiers_zero_or_more&#45;&gt;modifiers_zero_or_more -->
<g id="edge20" class="edge">
<title>modifiers_zero_or_more&#45;&gt;modifiers_zero_or_more</title>
<path fill="none" stroke="black" d="M192.26,-672.12C206.17,-671.17 215.58,-669.13 215.58,-666 215.58,-663.82 211.03,-662.17 203.58,-661.05"/>
<polygon fill="black" stroke="black" points="204.07,-657.58 193.76,-660.03 203.35,-664.55 204.07,-657.58"/>
</g>
<!-- modifiers_zero_or_more&#45;&gt;modifiers_zero_or_more -->
<g id="edge22" class="edge">
<title>modifiers_zero_or_more&#45;&gt;modifiers_zero_or_more</title>
<path fill="none" stroke="black" d="M168.49,-679.12C202.94,-680.88 233.58,-676.51 233.58,-666 233.58,-656.64 209.27,-652.15 179.62,-652.52"/>
<polygon fill="black" stroke="black" points="179.88,-649.01 170,-652.83 180.11,-656.01 179.88,-649.01"/>
</g>
<!-- public -->
<g id="node17" class="node">
<title>public</title>
<ellipse fill="none" stroke="black" cx="58.79" cy="-594" rx="32.49" ry="18"/>
<text text-anchor="middle" x="58.79" y="-590.3" font-family="Times,serif" font-size="14.00">public</text>
</g>
<!-- modifiers_zero_or_more&#45;&gt;public -->
<g id="edge19" class="edge">
<title>modifiers_zero_or_more&#45;&gt;public</title>
<path fill="none" stroke="black" d="M88.9,-647.7C84.38,-639.78 78.92,-630.23 73.9,-621.44"/>
<polygon fill="black" stroke="black" points="77.04,-619.88 69.04,-612.94 70.96,-623.36 77.04,-619.88"/>
</g>
<!-- static -->
<g id="node18" class="node">
<title>static</title>
<ellipse fill="none" stroke="black" cx="138.79" cy="-594" rx="29.5" ry="18"/>
<text text-anchor="middle" x="138.79" y="-590.3" font-family="Times,serif" font-size="14.00">static</text>
</g>
<!-- modifiers_zero_or_more&#45;&gt;static -->
<g id="edge21" class="edge">
<title>modifiers_zero_or_more&#45;&gt;static</title>
<path fill="none" stroke="black" d="M108.68,-647.7C113.27,-639.67 118.82,-629.95 123.9,-621.05"/>
<polygon fill="black" stroke="black" points="126.89,-622.88 128.81,-612.46 120.81,-619.4 126.89,-622.88"/>
</g>
<!-- { -->
<g id="node11" class="node">
<title>{</title>
<ellipse fill="none" stroke="black" cx="550.79" cy="-594" rx="27" ry="18"/>
<text text-anchor="middle" x="550.79" y="-590.3" font-family="Times,serif" font-size="14.00">{</text>
</g>
<!-- class_body&#45;&gt;{ -->
<g id="edge11" class="edge">
<title>class_body&#45;&gt;{</title>
<path fill="none" stroke="black" d="M415.39,-869.31C436.35,-860.89 461.63,-847.52 477.79,-828 528.27,-767.02 543.95,-671.02 548.74,-623.54"/>
<polygon fill="black" stroke="black" points="552.2,-624.08 549.62,-613.81 545.23,-623.45 552.2,-624.08"/>
</g>
<!-- class_body_declaration_zero_or_more -->
<g id="node12" class="node">
<title>class_body_declaration_zero_or_more</title>
<ellipse fill="none" stroke="black" cx="281.79" cy="-810" rx="147.57" ry="18"/>
<text text-anchor="middle" x="281.79" y="-806.3" font-family="Times,serif" font-size="14.00">class_body_declaration_zero_or_more</text>
</g>
<!-- class_body&#45;&gt;class_body_declaration_zero_or_more -->
<g id="edge12" class="edge">
<title>class_body&#45;&gt;class_body_declaration_zero_or_more</title>
<path fill="none" stroke="black" d="M357.26,-865.46C344.84,-856.5 328.95,-845.03 314.96,-834.93"/>
<polygon fill="black" stroke="black" points="317.02,-832.11 306.87,-829.1 312.93,-837.79 317.02,-832.11"/>
</g>
<!-- } -->
<g id="node13" class="node">
<title>}</title>
<ellipse fill="none" stroke="black" cx="478.79" cy="-594" rx="27" ry="18"/>
<text text-anchor="middle" x="478.79" y="-590.3" font-family="Times,serif" font-size="14.00">}</text>
</g>
<!-- class_body&#45;&gt;} -->
<g id="edge13" class="edge">
<title>class_body&#45;&gt;}</title>
<path fill="none" stroke="black" d="M410.58,-867.62C427.23,-858.87 446.29,-845.76 456.79,-828 495.14,-763.15 489.48,-670 483.44,-623.57"/>
<polygon fill="black" stroke="black" points="486.92,-623.21 482.06,-613.8 479.99,-624.19 486.92,-623.21"/>
</g>
<!-- class_body_declaration_zero_or_more&#45;&gt;class_body_declaration_zero_or_more -->
<g id="edge15" class="edge">
<title>class_body_declaration_zero_or_more&#45;&gt;class_body_declaration_zero_or_more</title>
<path fill="none" stroke="black" d="M382.82,-823.49C418.43,-823.71 447.33,-819.21 447.33,-810 447.33,-801.8 424.41,-797.33 394.23,-796.61"/>
<polygon fill="black" stroke="black" points="394.36,-793.11 384.33,-796.52 394.3,-800.11 394.36,-793.11"/>
</g>
<!-- method_declaration -->
<g id="node14" class="node">
<title>method_declaration</title>
<ellipse fill="none" stroke="black" cx="271.79" cy="-738" rx="81.49" ry="18"/>
<text text-anchor="middle" x="271.79" y="-734.3" font-family="Times,serif" font-size="14.00">method_declaration</text>
</g>
<!-- class_body_declaration_zero_or_more&#45;&gt;method_declaration -->
<g id="edge14" class="edge">
<title>class_body_declaration_zero_or_more&#45;&gt;method_declaration</title>
<path fill="none" stroke="black" d="M279.32,-791.7C278.27,-784.32 277.01,-775.52 275.83,-767.25"/>
<polygon fill="black" stroke="black" points="279.33,-767.01 274.45,-757.6 272.4,-768 279.33,-767.01"/>
</g>
<!-- method_declaration&#45;&gt;modifiers_zero_or_more -->
<g id="edge16" class="edge">
<title>method_declaration&#45;&gt;modifiers_zero_or_more</title>
<path fill="none" stroke="black" d="M233.83,-721.64C208.8,-711.51 175.76,-698.14 148.63,-687.17"/>
<polygon fill="black" stroke="black" points="150.15,-684.01 139.57,-683.5 147.53,-690.5 150.15,-684.01"/>
</g>
<!-- method_header -->
<g id="node15" class="node">
<title>method_header</title>
<ellipse fill="none" stroke="black" cx="261.79" cy="-450" rx="65.79" ry="18"/>
<text text-anchor="middle" x="261.79" y="-446.3" font-family="Times,serif" font-size="14.00">method_header</text>
</g>
<!-- method_declaration&#45;&gt;method_header -->
<g id="edge17" class="edge">
<title>method_declaration&#45;&gt;method_header</title>
<path fill="none" stroke="black" d="M271.18,-719.54C269.51,-671.76 264.85,-538.51 262.79,-479.61"/>
<polygon fill="black" stroke="black" points="266.29,-479.62 262.45,-469.74 259.3,-479.86 266.29,-479.62"/>
</g>
<!-- block -->
<g id="node16" class="node">
<title>block</title>
<ellipse fill="none" stroke="black" cx="389.79" cy="-666" rx="30.59" ry="18"/>
<text text-anchor="middle" x="389.79" y="-662.3" font-family="Times,serif" font-size="14.00">block</text>
</g>
<!-- method_declaration&#45;&gt;block -->
<g id="edge18" class="edge">
<title>method_declaration&#45;&gt;block</title>
<path fill="none" stroke="black" d="M299.46,-720.59C317.39,-709.95 340.76,-696.08 359.24,-685.12"/>
<polygon fill="black" stroke="black" points="360.82,-688.26 367.64,-680.14 357.25,-682.24 360.82,-688.26"/>
</g>
<!-- void -->
<g id="node19" class="node">
<title>void</title>
<ellipse fill="none" stroke="black" cx="261.79" cy="-378" rx="27" ry="18"/>
<text text-anchor="middle" x="261.79" y="-374.3" font-family="Times,serif" font-size="14.00">void</text>
</g>
<!-- method_header&#45;&gt;void -->
<g id="edge23" class="edge">
<title>method_header&#45;&gt;void</title>
<path fill="none" stroke="black" d="M261.79,-431.7C261.79,-424.41 261.79,-415.73 261.79,-407.54"/>
<polygon fill="black" stroke="black" points="265.29,-407.62 261.79,-397.62 258.29,-407.62 265.29,-407.62"/>
</g>
<!-- method_declarator -->
<g id="node20" class="node">
<title>method_declarator</title>
<ellipse fill="none" stroke="black" cx="383.79" cy="-378" rx="77.19" ry="18"/>
<text text-anchor="middle" x="383.79" y="-374.3" font-family="Times,serif" font-size="14.00">method_declarator</text>
</g>
<!-- method_header&#45;&gt;method_declarator -->
<g id="edge24" class="edge">
<title>method_header&#45;&gt;method_declarator</title>
<path fill="none" stroke="black" d="M289.17,-433.29C305.89,-423.7 327.5,-411.3 345.85,-400.77"/>
<polygon fill="black" stroke="black" points="347.41,-403.91 354.34,-395.9 343.93,-397.84 347.41,-403.91"/>
</g>
<!-- throws_zero_or_one -->
<g id="node21" class="node">
<title>throws_zero_or_one</title>
<ellipse fill="none" stroke="black" cx="133.79" cy="-378" rx="83.39" ry="18"/>
<text text-anchor="middle" x="133.79" y="-374.3" font-family="Times,serif" font-size="14.00">throws_zero_or_one</text>
</g>
<!-- method_header&#45;&gt;throws_zero_or_one -->
<g id="edge25" class="edge">
<title>method_header&#45;&gt;throws_zero_or_one</title>
<path fill="none" stroke="black" d="M233.38,-433.46C215.78,-423.84 192.9,-411.33 173.52,-400.73"/>
<polygon fill="black" stroke="black" points="175.23,-397.68 164.78,-395.95 171.88,-403.82 175.23,-397.68"/>
</g>
<!-- block&#45;&gt;{ -->
<g id="edge39" class="edge">
<title>block&#45;&gt;{</title>
<path fill="none" stroke="black" d="M414.35,-654.93C439.65,-644.48 480.16,-627.51 514.79,-612 516.1,-611.41 517.44,-610.81 518.79,-610.19"/>
<polygon fill="black" stroke="black" points="520.18,-613.41 527.78,-606.03 517.24,-607.06 520.18,-613.41"/>
</g>
<!-- block&#45;&gt;} -->
<g id="edge41" class="edge">
<title>block&#45;&gt;}</title>
<path fill="none" stroke="black" d="M407.37,-651.17C420.34,-640.97 438.19,-626.93 452.8,-615.44"/>
<polygon fill="black" stroke="black" points="454.96,-618.19 460.66,-609.26 450.63,-612.69 454.96,-618.19"/>
</g>
<!-- block_statements -->
<g id="node34" class="node">
<title>block_statements</title>
<ellipse fill="none" stroke="black" cx="361.79" cy="-594" rx="72.29" ry="18"/>
<text text-anchor="middle" x="361.79" y="-590.3" font-family="Times,serif" font-size="14.00">block_statements</text>
</g>
<!-- block&#45;&gt;block_statements -->
<g id="edge40" class="edge">
<title>block&#45;&gt;block_statements</title>
<path fill="none" stroke="black" d="M383.01,-648.05C380,-640.52 376.37,-631.44 372.97,-622.94"/>
<polygon fill="black" stroke="black" points="376.23,-621.67 369.26,-613.68 369.73,-624.27 376.23,-621.67"/>
</g>
<!-- main -->
<g id="node22" class="node">
<title>main</title>
<ellipse fill="none" stroke="black" cx="504.79" cy="-306" rx="28.7" ry="18"/>
<text text-anchor="middle" x="504.79" y="-302.3" font-family="Times,serif" font-size="14.00">main</text>
</g>
<!-- method_declarator&#45;&gt;main -->
<g id="edge26" class="edge">
<title>method_declarator&#45;&gt;main</title>
<path fill="none" stroke="black" d="M411.86,-360.76C430.56,-349.95 455.13,-335.73 474.31,-324.64"/>
<polygon fill="black" stroke="black" points="475.85,-327.79 482.75,-319.75 472.34,-321.73 475.85,-327.79"/>
</g>
<!-- ( -->
<g id="node23" class="node">
<title>(</title>
<ellipse fill="none" stroke="black" cx="622.79" cy="-18" rx="27" ry="18"/>
<text text-anchor="middle" x="622.79" y="-14.3" font-family="Times,serif" font-size="14.00">(</text>
</g>
<!-- method_declarator&#45;&gt;( -->
<g id="edge27" class="edge">
<title>method_declarator&#45;&gt;(</title>
<path fill="none" stroke="black" d="M453.04,-369.62C484.63,-362.74 520,-349.48 542.79,-324 569.75,-293.85 561.79,-275.45 561.79,-235 561.79,-235 561.79,-235 561.79,-161 561.79,-120.55 563.56,-108.59 580.79,-72 585.84,-61.28 593.44,-50.77 600.79,-41.98"/>
<polygon fill="black" stroke="black" points="603.27,-44.46 607.24,-34.63 598.01,-39.84 603.27,-44.46"/>
</g>
<!-- formal_parameter -->
<g id="node24" class="node">
<title>formal_parameter</title>
<ellipse fill="none" stroke="black" cx="383.79" cy="-306" rx="74.99" ry="18"/>
<text text-anchor="middle" x="383.79" y="-302.3" font-family="Times,serif" font-size="14.00">formal_parameter</text>
</g>
<!-- method_declarator&#45;&gt;formal_parameter -->
<g id="edge28" class="edge">
<title>method_declarator&#45;&gt;formal_parameter</title>
<path fill="none" stroke="black" d="M383.79,-359.7C383.79,-352.41 383.79,-343.73 383.79,-335.54"/>
<polygon fill="black" stroke="black" points="387.29,-335.62 383.79,-325.62 380.29,-335.62 387.29,-335.62"/>
</g>
<!-- ) -->
<g id="node25" class="node">
<title>)</title>
<ellipse fill="none" stroke="black" cx="269.79" cy="-18" rx="27" ry="18"/>
<text text-anchor="middle" x="269.79" y="-14.3" font-family="Times,serif" font-size="14.00">)</text>
</g>
<!-- method_declarator&#45;&gt;) -->
<g id="edge29" class="edge">
<title>method_declarator&#45;&gt;)</title>
<path fill="none" stroke="black" d="M327.89,-365.32C232.81,-343.83 49.79,-294.7 49.79,-235 49.79,-235 49.79,-235 49.79,-161 49.79,-120.46 41.67,-101.21 69.79,-72 92.04,-48.89 180.58,-32.23 232.09,-24.27"/>
<polygon fill="black" stroke="black" points="232.54,-27.74 241.91,-22.79 231.5,-20.82 232.54,-27.74"/>
</g>
<!-- dims_zero_or_one -->
<g id="node26" class="node">
<title>dims_zero_or_one</title>
<ellipse fill="none" stroke="black" cx="312.79" cy="-162" rx="76.89" ry="18"/>
<text text-anchor="middle" x="312.79" y="-158.3" font-family="Times,serif" font-size="14.00">dims_zero_or_one</text>
</g>
<!-- method_declarator&#45;&gt;dims_zero_or_one -->
<g id="edge30" class="edge">
<title>method_declarator&#45;&gt;dims_zero_or_one</title>
<path fill="none" stroke="black" d="M344.13,-362.28C327.29,-353.82 309.37,-341.36 299.79,-324 276.68,-282.08 290.17,-224.48 301.72,-190.75"/>
<polygon fill="black" stroke="black" points="304.89,-192.3 305,-181.71 298.3,-189.92 304.89,-192.3"/>
</g>
<!-- unann_array_type -->
<g id="node27" class="node">
<title>unann_array_type</title>
<ellipse fill="none" stroke="black" cx="178.79" cy="-234" rx="74.19" ry="18"/>
<text text-anchor="middle" x="178.79" y="-230.3" font-family="Times,serif" font-size="14.00">unann_array_type</text>
</g>
<!-- formal_parameter&#45;&gt;unann_array_type -->
<g id="edge31" class="edge">
<title>formal_parameter&#45;&gt;unann_array_type</title>
<path fill="none" stroke="black" d="M341.81,-290.67C309.78,-279.73 265.48,-264.6 231.13,-252.87"/>
<polygon fill="black" stroke="black" points="232.39,-249.6 221.8,-249.68 230.13,-256.23 232.39,-249.6"/>
</g>
<!-- variable_declarator_id -->
<g id="node28" class="node">
<title>variable_declarator_id</title>
<ellipse fill="none" stroke="black" cx="416.79" cy="-234" rx="89.88" ry="18"/>
<text text-anchor="middle" x="416.79" y="-230.3" font-family="Times,serif" font-size="14.00">variable_declarator_id</text>
</g>
<!-- formal_parameter&#45;&gt;variable_declarator_id -->
<g id="edge32" class="edge">
<title>formal_parameter&#45;&gt;variable_declarator_id</title>
<path fill="none" stroke="black" d="M391.95,-287.7C395.55,-280.07 399.86,-270.92 403.88,-262.4"/>
<polygon fill="black" stroke="black" points="406.98,-264.01 408.08,-253.47 400.65,-261.03 406.98,-264.01"/>
</g>
<!-- String -->
<g id="node29" class="node">
<title>String</title>
<ellipse fill="none" stroke="black" cx="185.79" cy="-162" rx="32.49" ry="18"/>
<text text-anchor="middle" x="185.79" y="-158.3" font-family="Times,serif" font-size="14.00">String</text>
</g>
<!-- unann_array_type&#45;&gt;String -->
<g id="edge33" class="edge">
<title>unann_array_type&#45;&gt;String</title>
<path fill="none" stroke="black" d="M180.52,-215.7C181.25,-208.41 182.12,-199.73 182.94,-191.54"/>
<polygon fill="black" stroke="black" points="186.42,-191.91 183.93,-181.61 179.45,-191.21 186.42,-191.91"/>
</g>
<!-- dims -->
<g id="node30" class="node">
<title>dims</title>
<ellipse fill="none" stroke="black" cx="106.79" cy="-162" rx="28.7" ry="18"/>
<text text-anchor="middle" x="106.79" y="-158.3" font-family="Times,serif" font-size="14.00">dims</text>
</g>
<!-- unann_array_type&#45;&gt;dims -->
<g id="edge34" class="edge">
<title>unann_array_type&#45;&gt;dims</title>
<path fill="none" stroke="black" d="M161.36,-216.05C151.87,-206.82 140,-195.29 129.76,-185.33"/>
<polygon fill="black" stroke="black" points="132.32,-182.94 122.71,-178.48 127.44,-187.96 132.32,-182.94"/>
</g>
<!-- variable_declarator_id&#45;&gt;dims_zero_or_one -->
<g id="edge38" class="edge">
<title>variable_declarator_id&#45;&gt;dims_zero_or_one</title>
<path fill="none" stroke="black" d="M386.59,-216.59C372.23,-207.59 355.23,-196.29 341.12,-186.38"/>
<polygon fill="black" stroke="black" points="343.29,-183.63 333.11,-180.67 339.23,-189.33 343.29,-183.63"/>
</g>
<!-- variable_declarator_id&#45;&gt;dims_zero_or_one -->
<g id="edge53" class="edge">
<title>variable_declarator_id&#45;&gt;dims_zero_or_one</title>
<path fill="none" stroke="black" d="M397.49,-216.05C384.64,-206.74 367.46,-195.07 351.88,-185.06"/>
<polygon fill="black" stroke="black" points="354.04,-182.28 343.72,-179.88 350.29,-188.19 354.04,-182.28"/>
</g>
<!-- args -->
<g id="node33" class="node">
<title>args</title>
<ellipse fill="none" stroke="black" cx="434.79" cy="-162" rx="27" ry="18"/>
<text text-anchor="middle" x="434.79" y="-158.3" font-family="Times,serif" font-size="14.00">args</text>
</g>
<!-- variable_declarator_id&#45;&gt;args -->
<g id="edge37" class="edge">
<title>variable_declarator_id&#45;&gt;args</title>
<path fill="none" stroke="black" d="M421.24,-215.7C423.14,-208.32 425.4,-199.52 427.53,-191.25"/>
<polygon fill="black" stroke="black" points="430.92,-192.13 430.02,-181.57 424.14,-190.38 430.92,-192.13"/>
</g>
<!-- i -->
<g id="node44" class="node">
<title>i</title>
<ellipse fill="none" stroke="black" cx="506.79" cy="-162" rx="27" ry="18"/>
<text text-anchor="middle" x="506.79" y="-158.3" font-family="Times,serif" font-size="14.00">i</text>
</g>
<!-- variable_declarator_id&#45;&gt;i -->
<g id="edge52" class="edge">
<title>variable_declarator_id&#45;&gt;i</title>
<path fill="none" stroke="black" d="M438.58,-216.05C451.34,-206.13 467.54,-193.53 480.95,-183.1"/>
<polygon fill="black" stroke="black" points="482.77,-186.12 488.51,-177.22 478.47,-180.59 482.77,-186.12"/>
</g>
<!-- [ -->
<g id="node31" class="node">
<title>[</title>
<ellipse fill="none" stroke="black" cx="177.79" cy="-90" rx="27" ry="18"/>
<text text-anchor="middle" x="177.79" y="-86.3" font-family="Times,serif" font-size="14.00">[</text>
</g>
<!-- dims&#45;&gt;[ -->
<g id="edge35" class="edge">
<title>dims&#45;&gt;[</title>
<path fill="none" stroke="black" d="M121.85,-146.15C131.58,-136.56 144.42,-123.9 155.34,-113.13"/>
<polygon fill="black" stroke="black" points="157.5,-115.92 162.16,-106.41 152.59,-110.94 157.5,-115.92"/>
</g>
<!-- ] -->
<g id="node32" class="node">
<title>]</title>
<ellipse fill="none" stroke="black" cx="105.79" cy="-90" rx="27" ry="18"/>
<text text-anchor="middle" x="105.79" y="-86.3" font-family="Times,serif" font-size="14.00">]</text>
</g>
<!-- dims&#45;&gt;] -->
<g id="edge36" class="edge">
<title>dims&#45;&gt;]</title>
<path fill="none" stroke="black" d="M106.54,-143.7C106.44,-136.41 106.32,-127.73 106.2,-119.54"/>
<polygon fill="black" stroke="black" points="109.7,-119.57 106.06,-109.62 102.7,-119.67 109.7,-119.57"/>
</g>
<!-- local_variable_declaration_statemen -->
<g id="node35" class="node">
<title>local_variable_declaration_statemen</title>
<ellipse fill="none" stroke="black" cx="699.79" cy="-522" rx="139.98" ry="18"/>
<text text-anchor="middle" x="699.79" y="-518.3" font-family="Times,serif" font-size="14.00">local_variable_declaration_statemen</text>
</g>
<!-- block_statements&#45;&gt;local_variable_declaration_statemen -->
<g id="edge42" class="edge">
<title>block_statements&#45;&gt;local_variable_declaration_statemen</title>
<path fill="none" stroke="black" d="M415.81,-581.63C424.82,-579.75 434.07,-577.81 442.79,-576 500.74,-563.94 566.06,-550.47 616.35,-540.13"/>
<polygon fill="black" stroke="black" points="616.92,-543.59 626.01,-538.14 615.51,-536.73 616.92,-543.59"/>
</g>
<!-- block_statements_zero_or_more -->
<g id="node36" class="node">
<title>block_statements_zero_or_more</title>
<ellipse fill="none" stroke="black" cx="415.79" cy="-522" rx="126.18" ry="18"/>
<text text-anchor="middle" x="415.79" y="-518.3" font-family="Times,serif" font-size="14.00">block_statements_zero_or_more</text>
</g>
<!-- block_statements&#45;&gt;block_statements_zero_or_more -->
<g id="edge43" class="edge">
<title>block_statements&#45;&gt;block_statements_zero_or_more</title>
<path fill="none" stroke="black" d="M374.86,-576.05C381.07,-568.01 388.63,-558.2 395.56,-549.23"/>
<polygon fill="black" stroke="black" points="398.2,-551.53 401.54,-541.47 392.66,-547.25 398.2,-551.53"/>
</g>
<!-- local_variable_declaration -->
<g id="node37" class="node">
<title>local_variable_declaration</title>
<ellipse fill="none" stroke="black" cx="773.79" cy="-450" rx="103.98" ry="18"/>
<text text-anchor="middle" x="773.79" y="-446.3" font-family="Times,serif" font-size="14.00">local_variable_declaration</text>
</g>
<!-- local_variable_declaration_statemen&#45;&gt;local_variable_declaration -->
<g id="edge44" class="edge">
<title>local_variable_declaration_statemen&#45;&gt;local_variable_declaration</title>
<path fill="none" stroke="black" d="M718.08,-503.7C726.95,-495.3 737.77,-485.07 747.51,-475.86"/>
<polygon fill="black" stroke="black" points="749.75,-478.56 754.61,-469.14 744.94,-473.47 749.75,-478.56"/>
</g>
<!-- ; -->
<g id="node38" class="node">
<title>;</title>
<ellipse fill="none" stroke="black" cx="624.79" cy="-450" rx="27" ry="18"/>
<text text-anchor="middle" x="624.79" y="-446.3" font-family="Times,serif" font-size="14.00">;</text>
</g>
<!-- local_variable_declaration_statemen&#45;&gt;; -->
<g id="edge45" class="edge">
<title>local_variable_declaration_statemen&#45;&gt;;</title>
<path fill="none" stroke="black" d="M681.25,-503.7C671.36,-494.46 659.07,-482.99 648.49,-473.12"/>
<polygon fill="black" stroke="black" points="650.9,-470.58 641.2,-466.31 646.12,-475.69 650.9,-470.58"/>
</g>
<!-- int -->
<g id="node39" class="node">
<title>int</title>
<ellipse fill="none" stroke="black" cx="731.79" cy="-378" rx="27" ry="18"/>
<text text-anchor="middle" x="731.79" y="-374.3" font-family="Times,serif" font-size="14.00">int</text>
</g>
<!-- local_variable_declaration&#45;&gt;int -->
<g id="edge46" class="edge">
<title>local_variable_declaration&#45;&gt;int</title>
<path fill="none" stroke="black" d="M763.41,-431.7C758.54,-423.58 752.63,-413.74 747.25,-404.76"/>
<polygon fill="black" stroke="black" points="750.4,-403.22 742.26,-396.44 744.4,-406.82 750.4,-403.22"/>
</g>
<!-- variable_declarator_list -->
<g id="node40" class="node">
<title>variable_declarator_list</title>
<ellipse fill="none" stroke="black" cx="870.79" cy="-378" rx="93.68" ry="18"/>
<text text-anchor="middle" x="870.79" y="-374.3" font-family="Times,serif" font-size="14.00">variable_declarator_list</text>
</g>
<!-- local_variable_declaration&#45;&gt;variable_declarator_list -->
<g id="edge47" class="edge">
<title>local_variable_declaration&#45;&gt;variable_declarator_list</title>
<path fill="none" stroke="black" d="M797.27,-432.05C809.66,-423.11 825.06,-412.01 838.55,-402.27"/>
<polygon fill="black" stroke="black" points="840.24,-405.36 846.3,-396.67 836.14,-399.69 840.24,-405.36"/>
</g>
<!-- variable_declarator -->
<g id="node41" class="node">
<title>variable_declarator</title>
<ellipse fill="none" stroke="black" cx="753.79" cy="-306" rx="78.79" ry="18"/>
<text text-anchor="middle" x="753.79" y="-302.3" font-family="Times,serif" font-size="14.00">variable_declarator</text>
</g>
<!-- variable_declarator_list&#45;&gt;variable_declarator -->
<g id="edge48" class="edge">
<title>variable_declarator_list&#45;&gt;variable_declarator</title>
<path fill="none" stroke="black" d="M843.06,-360.41C827.36,-351.02 807.52,-339.15 790.53,-328.98"/>
<polygon fill="black" stroke="black" points="792.59,-326.14 782.21,-324.01 789,-332.14 792.59,-326.14"/>
</g>
<!-- comma_variable_declarator_zero_or_more -->
<g id="node42" class="node">
<title>comma_variable_declarator_zero_or_more</title>
<ellipse fill="none" stroke="black" cx="1013.79" cy="-306" rx="163.57" ry="18"/>
<text text-anchor="middle" x="1013.79" y="-302.3" font-family="Times,serif" font-size="14.00">comma_variable_declarator_zero_or_more</text>
</g>
<!-- variable_declarator_list&#45;&gt;comma_variable_declarator_zero_or_more -->
<g id="edge49" class="edge">
<title>variable_declarator_list&#45;&gt;comma_variable_declarator_zero_or_more</title>
<path fill="none" stroke="black" d="M903.96,-360.76C923.3,-351.3 947.95,-339.23 969,-328.93"/>
<polygon fill="black" stroke="black" points="970.51,-332.08 977.95,-324.54 967.43,-325.8 970.51,-332.08"/>
</g>
<!-- variable_declarator&#45;&gt;variable_declarator_id -->
<g id="edge50" class="edge">
<title>variable_declarator&#45;&gt;variable_declarator_id</title>
<path fill="none" stroke="black" d="M697,-293.2C639.58,-281.28 550.66,-262.81 488.42,-249.88"/>
<polygon fill="black" stroke="black" points="489.5,-246.53 479,-247.92 488.08,-253.38 489.5,-246.53"/>
</g>
<!-- equals_variable_initializer_zero_or_one -->
<g id="node43" class="node">
<title>equals_variable_initializer_zero_or_one</title>
<ellipse fill="none" stroke="black" cx="894.79" cy="-234" rx="152.17" ry="18"/>
<text text-anchor="middle" x="894.79" y="-230.3" font-family="Times,serif" font-size="14.00">equals_variable_initializer_zero_or_one</text>
</g>
<!-- variable_declarator&#45;&gt;equals_variable_initializer_zero_or_one -->
<g id="edge51" class="edge">
<title>variable_declarator&#45;&gt;equals_variable_initializer_zero_or_one</title>
<path fill="none" stroke="black" d="M785.79,-289.12C804.97,-279.59 829.64,-267.34 850.66,-256.91"/>
<polygon fill="black" stroke="black" points="852.2,-260.05 859.6,-252.47 849.09,-253.78 852.2,-260.05"/>
</g>
<!-- = -->
<g id="node45" class="node">
<title>=</title>
<ellipse fill="none" stroke="black" cx="1038.79" cy="-162" rx="27" ry="18"/>
<text text-anchor="middle" x="1038.79" y="-158.3" font-family="Times,serif" font-size="14.00">=</text>
</g>
<!-- equals_variable_initializer_zero_or_one&#45;&gt;= -->
<g id="edge54" class="edge">
<title>equals_variable_initializer_zero_or_one&#45;&gt;=</title>
<path fill="none" stroke="black" d="M929.65,-216.05C953.36,-204.53 984.48,-189.4 1007.41,-178.25"/>
<polygon fill="black" stroke="black" points="1008.81,-181.47 1016.27,-173.95 1005.75,-175.17 1008.81,-181.47"/>
</g>
<!-- additive_expression -->
<g id="node46" class="node">
<title>additive_expression</title>
<ellipse fill="none" stroke="black" cx="894.79" cy="-162" rx="81.49" ry="18"/>
<text text-anchor="middle" x="894.79" y="-158.3" font-family="Times,serif" font-size="14.00">additive_expression</text>
</g>
<!-- equals_variable_initializer_zero_or_one&#45;&gt;additive_expression -->
<g id="edge55" class="edge">
<title>equals_variable_initializer_zero_or_one&#45;&gt;additive_expression</title>
<path fill="none" stroke="black" d="M894.79,-215.7C894.79,-208.41 894.79,-199.73 894.79,-191.54"/>
<polygon fill="black" stroke="black" points="898.29,-191.62 894.79,-181.62 891.29,-191.62 898.29,-191.62"/>
</g>
<!-- additive_expression&#45;&gt;additive_expression -->
<g id="edge56" class="edge">
<title>additive_expression&#45;&gt;additive_expression</title>
<path fill="none" stroke="black" d="M950.9,-175.38C974.25,-176.3 994.03,-171.84 994.03,-162 994.03,-153.81 980.34,-149.35 962.29,-148.61"/>
<polygon fill="black" stroke="black" points="962.41,-145.11 952.42,-148.62 962.42,-152.11 962.41,-145.11"/>
</g>
<!-- &#45; -->
<g id="node47" class="node">
<title>&#45;</title>
<ellipse fill="none" stroke="black" cx="822.79" cy="-90" rx="27" ry="18"/>
<text text-anchor="middle" x="822.79" y="-86.3" font-family="Times,serif" font-size="14.00">&#45;</text>
</g>
<!-- additive_expression&#45;&gt;&#45; -->
<g id="edge57" class="edge">
<title>additive_expression&#45;&gt;&#45;</title>
<path fill="none" stroke="black" d="M877.36,-144.05C867.87,-134.82 856,-123.29 845.76,-113.33"/>
<polygon fill="black" stroke="black" points="848.32,-110.94 838.71,-106.48 843.44,-115.96 848.32,-110.94"/>
</g>
<!-- primary_no_new_array -->
<g id="node48" class="node">
<title>primary_no_new_array</title>
<ellipse fill="none" stroke="black" cx="683.79" cy="-90" rx="93.68" ry="18"/>
<text text-anchor="middle" x="683.79" y="-86.3" font-family="Times,serif" font-size="14.00">primary_no_new_array</text>
</g>
<!-- additive_expression&#45;&gt;primary_no_new_array -->
<g id="edge58" class="edge">
<title>additive_expression&#45;&gt;primary_no_new_array</title>
<path fill="none" stroke="black" d="M847.07,-147C813.87,-136.45 769.7,-121.87 735.64,-110.22"/>
<polygon fill="black" stroke="black" points="736.99,-106.99 726.39,-107.05 734.71,-113.61 736.99,-106.99"/>
</g>
<!-- 5 -->
<g id="node49" class="node">
<title>5</title>
<ellipse fill="none" stroke="black" cx="894.79" cy="-90" rx="27" ry="18"/>
<text text-anchor="middle" x="894.79" y="-86.3" font-family="Times,serif" font-size="14.00">5</text>
</g>
<!-- additive_expression&#45;&gt;5 -->
<g id="edge59" class="edge">
<title>additive_expression&#45;&gt;5</title>
<path fill="none" stroke="black" d="M888.88,-143.7C888.1,-136.21 887.87,-127.26 888.17,-118.88"/>
<polygon fill="black" stroke="black" points="891.64,-119.35 888.84,-109.13 884.66,-118.87 891.64,-119.35"/>
</g>
<!-- additive_expression&#45;&gt;5 -->
<g id="edge68" class="edge">
<title>additive_expression&#45;&gt;5</title>
<path fill="none" stroke="black" d="M900.71,-143.7C901.48,-136.21 901.72,-127.26 901.42,-118.88"/>
<polygon fill="black" stroke="black" points="904.92,-118.87 900.74,-109.13 897.94,-119.35 904.92,-118.87"/>
</g>
<!-- + -->
<g id="node50" class="node">
<title>+</title>
<ellipse fill="none" stroke="black" cx="966.79" cy="-90" rx="27" ry="18"/>
<text text-anchor="middle" x="966.79" y="-86.3" font-family="Times,serif" font-size="14.00">+</text>
</g>
<!-- additive_expression&#45;&gt;+ -->
<g id="edge60" class="edge">
<title>additive_expression&#45;&gt;+</title>
<path fill="none" stroke="black" d="M906.67,-143.7C915.81,-133.82 928.5,-121.4 939.94,-111.1"/>
<polygon fill="black" stroke="black" points="942.02,-113.93 947.23,-104.71 937.41,-108.67 942.02,-113.93"/>
</g>
<!-- additive_expression&#45;&gt;+ -->
<g id="edge69" class="edge">
<title>additive_expression&#45;&gt;+</title>
<path fill="none" stroke="black" d="M917.69,-144.41C927.66,-135.66 939.07,-124.75 948.47,-115.08"/>
<polygon fill="black" stroke="black" points="950.75,-117.76 955.08,-108.09 945.67,-112.95 950.75,-117.76"/>
</g>
<!-- multiplicative_expression -->
<g id="node51" class="node">
<title>multiplicative_expression</title>
<ellipse fill="none" stroke="black" cx="1151.79" cy="-90" rx="102.08" ry="18"/>
<text text-anchor="middle" x="1151.79" y="-86.3" font-family="Times,serif" font-size="14.00">multiplicative_expression</text>
</g>
<!-- additive_expression&#45;&gt;multiplicative_expression -->
<g id="edge61" class="edge">
<title>additive_expression&#45;&gt;multiplicative_expression</title>
<path fill="none" stroke="black" d="M944.65,-147.42C985.29,-136.35 1042.98,-120.64 1087.16,-108.6"/>
<polygon fill="black" stroke="black" points="1087.89,-112.03 1096.62,-106.03 1086.05,-105.28 1087.89,-112.03"/>
</g>
<!-- 2 -->
<g id="node52" class="node">
<title>2</title>
<ellipse fill="none" stroke="black" cx="1035.79" cy="-18" rx="27" ry="18"/>
<text text-anchor="middle" x="1035.79" y="-14.3" font-family="Times,serif" font-size="14.00">2</text>
</g>
<!-- additive_expression&#45;&gt;2 -->
<g id="edge70" class="edge">
<title>additive_expression&#45;&gt;2</title>
<path fill="none" stroke="black" d="M941.79,-146.91C962.85,-138.54 986.55,-125.98 1002.79,-108 1018.07,-91.09 1026.47,-66.48 1030.97,-47.42"/>
<polygon fill="black" stroke="black" points="1034.34,-48.38 1032.98,-37.87 1027.49,-46.93 1034.34,-48.38"/>
</g>
<!-- primary_no_new_array&#45;&gt;( -->
<g id="edge65" class="edge">
<title>primary_no_new_array&#45;&gt;(</title>
<path fill="none" stroke="black" d="M669.02,-72.05C661.25,-63.13 651.6,-52.06 643.13,-42.33"/>
<polygon fill="black" stroke="black" points="645.97,-40.27 636.76,-35.03 640.69,-44.87 645.97,-40.27"/>
</g>
<!-- primary_no_new_array&#45;&gt;) -->
<g id="edge67" class="edge">
<title>primary_no_new_array&#45;&gt;)</title>
<path fill="none" stroke="black" d="M615.43,-77.44C527.07,-62.5 376.33,-37.01 306.86,-25.27"/>
<polygon fill="black" stroke="black" points="307.58,-21.84 297.14,-23.62 306.41,-28.74 307.58,-21.84"/>
</g>
<!-- primary_no_new_array&#45;&gt;additive_expression -->
<g id="edge66" class="edge">
<title>primary_no_new_array&#45;&gt;additive_expression</title>
<path fill="none" stroke="black" d="M733.51,-105.63C767.04,-116.31 811.04,-130.86 844.66,-142.36"/>
<polygon fill="black" stroke="black" points="843.16,-145.55 853.75,-145.49 845.44,-138.93 843.16,-145.55"/>
</g>
<!-- multiplicative_expression&#45;&gt;2 -->
<g id="edge62" class="edge">
<title>multiplicative_expression&#45;&gt;2</title>
<path fill="none" stroke="black" d="M1124.01,-72.23C1106.22,-61.5 1083.17,-47.59 1065.09,-36.68"/>
<polygon fill="black" stroke="black" points="1067.03,-33.76 1056.66,-31.59 1063.41,-39.76 1067.03,-33.76"/>
</g>
<!-- * -->
<g id="node53" class="node">
<title>*</title>
<ellipse fill="none" stroke="black" cx="1136.79" cy="-18" rx="27" ry="18"/>
<text text-anchor="middle" x="1136.79" y="-14.3" font-family="Times,serif" font-size="14.00">*</text>
</g>
<!-- multiplicative_expression&#45;&gt;* -->
<g id="edge63" class="edge">
<title>multiplicative_expression&#45;&gt;*</title>
<path fill="none" stroke="black" d="M1148.08,-71.7C1146.5,-64.32 1144.62,-55.52 1142.84,-47.25"/>
<polygon fill="black" stroke="black" points="1146.29,-46.63 1140.77,-37.58 1139.45,-48.1 1146.29,-46.63"/>
</g>
<!-- 3 -->
<g id="node54" class="node">
<title>3</title>
<ellipse fill="none" stroke="black" cx="1208.79" cy="-18" rx="27" ry="18"/>
<text text-anchor="middle" x="1208.79" y="-14.3" font-family="Times,serif" font-size="14.00">3</text>
</g>
<!-- multiplicative_expression&#45;&gt;3 -->
<g id="edge64" class="edge">
<title>multiplicative_expression&#45;&gt;3</title>
<path fill="none" stroke="black" d="M1165.88,-71.7C1172.9,-63.07 1181.51,-52.5 1189.17,-43.1"/>
<polygon fill="black" stroke="black" points="1191.86,-45.34 1195.46,-35.38 1186.43,-40.92 1191.86,-45.34"/>
</g>
</g>
</svg>
