<?xml version="1.0" encoding="UTF-8" standalone="no"?>
<!DOCTYPE svg PUBLIC "-//W3C//DTD SVG 1.1//EN"
 "http://www.w3.org/Graphics/SVG/1.1/DTD/svg11.dtd">
<!-- Generated by graphviz version 7.1.0 (20230121.1956)
 -->
<!-- Title: AST Pages: 1 -->
<svg width="1885pt" height="1450pt"
 viewBox="0.00 0.00 1885.38 1450.18" xmlns="http://www.w3.org/2000/svg" xmlns:xlink="http://www.w3.org/1999/xlink">
<g id="graph0" class="graph" transform="scale(1 1) rotate(0) translate(4 1446.18)">
<title>AST</title>
<polygon fill="white" stroke="none" points="-4,4 -4,-1446.18 1881.38,-1446.18 1881.38,4 -4,4"/>
<!-- 161 -->
<g id="node1" class="node">
<title>161</title>
<ellipse fill="none" stroke="black" cx="439.99" cy="-1424.18" rx="215.56" ry="18"/>
<text text-anchor="middle" x="439.99" y="-1420.48" font-family="Times New Roman,serif" font-size="14.00">top_level_class_or_interface_declaration_zero_or_more</text>
</g>
<!-- 162 -->
<g id="node2" class="node">
<title>162</title>
<ellipse fill="none" stroke="black" cx="233.99" cy="-1352.18" rx="102.88" ry="18"/>
<text text-anchor="middle" x="233.99" y="-1348.48" font-family="Times New Roman,serif" font-size="14.00">normal_class_declaration</text>
</g>
<!-- 161&#45;&gt;162 -->
<g id="edge1" class="edge">
<title>161&#45;&gt;162</title>
<path fill="none" stroke="black" d="M390.13,-1406.23C359.98,-1395.99 321.48,-1382.9 290.25,-1372.29"/>
<polygon fill="black" stroke="black" points="291.56,-1369.04 280.96,-1369.14 289.31,-1375.67 291.56,-1369.04"/>
</g>
<!-- 172 -->
<g id="node3" class="node">
<title>172</title>
<ellipse fill="none" stroke="black" cx="607.99" cy="-1352.18" rx="215.56" ry="18"/>
<text text-anchor="middle" x="607.99" y="-1348.48" font-family="Times New Roman,serif" font-size="14.00">top_level_class_or_interface_declaration_zero_or_more</text>
</g>
<!-- 161&#45;&gt;172 -->
<g id="edge2" class="edge">
<title>161&#45;&gt;172</title>
<path fill="none" stroke="black" d="M481.09,-1406.05C503.85,-1396.57 532.36,-1384.69 556.59,-1374.6"/>
<polygon fill="black" stroke="black" points="557.75,-1377.9 565.63,-1370.83 555.05,-1371.44 557.75,-1377.9"/>
</g>
<!-- 2 -->
<g id="node4" class="node">
<title>2</title>
<ellipse fill="none" stroke="black" cx="96.99" cy="-1264.28" rx="28.68" ry="28.68"/>
<ellipse fill="none" stroke="black" cx="96.99" cy="-1264.28" rx="32.7" ry="32.7"/>
<text text-anchor="middle" x="96.99" y="-1260.58" font-family="Times New Roman,serif" font-size="14.00">class</text>
</g>
<!-- 162&#45;&gt;2 -->
<g id="edge3" class="edge">
<title>162&#45;&gt;2</title>
<path fill="none" stroke="black" d="M201.18,-1334.85C182.24,-1324.99 158.24,-1311.74 137.99,-1298.18 135.6,-1296.58 133.18,-1294.87 130.77,-1293.11"/>
<polygon fill="black" stroke="black" points="132.91,-1290.34 122.83,-1287.08 128.68,-1295.92 132.91,-1290.34"/>
</g>
<!-- 3 -->
<g id="node5" class="node">
<title>3</title>
<ellipse fill="none" stroke="black" cx="180.99" cy="-1264.28" rx="29.81" ry="29.81"/>
<ellipse fill="none" stroke="black" cx="180.99" cy="-1264.28" rx="33.8" ry="33.8"/>
<text text-anchor="middle" x="180.99" y="-1260.58" font-family="Times New Roman,serif" font-size="14.00">Point</text>
</g>
<!-- 162&#45;&gt;3 -->
<g id="edge4" class="edge">
<title>162&#45;&gt;3</title>
<path fill="none" stroke="black" d="M223.27,-1333.79C217.8,-1324.94 210.93,-1313.8 204.32,-1303.09"/>
<polygon fill="black" stroke="black" points="207.4,-1301.42 199.17,-1294.75 201.45,-1305.09 207.4,-1301.42"/>
</g>
<!-- 163 -->
<g id="node6" class="node">
<title>163</title>
<ellipse fill="none" stroke="black" cx="285.99" cy="-1264.28" rx="52.79" ry="18"/>
<text text-anchor="middle" x="285.99" y="-1260.58" font-family="Times New Roman,serif" font-size="14.00">class_body</text>
</g>
<!-- 162&#45;&gt;163 -->
<g id="edge5" class="edge">
<title>162&#45;&gt;163</title>
<path fill="none" stroke="black" d="M244.51,-1333.79C251.75,-1321.84 261.5,-1305.73 269.73,-1292.14"/>
<polygon fill="black" stroke="black" points="272.69,-1294 274.88,-1283.64 266.71,-1290.38 272.69,-1294"/>
</g>
<!-- 173 -->
<g id="node22" class="node">
<title>173</title>
<ellipse fill="none" stroke="black" cx="607.99" cy="-1264.28" rx="102.88" ry="18"/>
<text text-anchor="middle" x="607.99" y="-1260.58" font-family="Times New Roman,serif" font-size="14.00">normal_class_declaration</text>
</g>
<!-- 172&#45;&gt;173 -->
<g id="edge21" class="edge">
<title>172&#45;&gt;173</title>
<path fill="none" stroke="black" d="M607.99,-1333.79C607.99,-1322.38 607.99,-1307.19 607.99,-1294.01"/>
<polygon fill="black" stroke="black" points="611.49,-1294.15 607.99,-1284.15 604.49,-1294.15 611.49,-1294.15"/>
</g>
<!-- 180 -->
<g id="node23" class="node">
<title>180</title>
<ellipse fill="none" stroke="black" cx="1006.99" cy="-1264.28" rx="215.56" ry="18"/>
<text text-anchor="middle" x="1006.99" y="-1260.58" font-family="Times New Roman,serif" font-size="14.00">top_level_class_or_interface_declaration_zero_or_more</text>
</g>
<!-- 172&#45;&gt;180 -->
<g id="edge22" class="edge">
<title>172&#45;&gt;180</title>
<path fill="none" stroke="black" d="M683.51,-1334.92C750.96,-1320.4 849.72,-1299.14 920.36,-1283.93"/>
<polygon fill="black" stroke="black" points="920.93,-1287.39 929.96,-1281.86 919.45,-1280.54 920.93,-1287.39"/>
</g>
<!-- 8 -->
<g id="node7" class="node">
<title>8</title>
<ellipse fill="none" stroke="black" cx="54.99" cy="-1150.74" rx="18" ry="18"/>
<ellipse fill="none" stroke="black" cx="54.99" cy="-1150.74" rx="22" ry="22"/>
<text text-anchor="middle" x="54.99" y="-1147.04" font-family="Times New Roman,serif" font-size="14.00">{</text>
</g>
<!-- 163&#45;&gt;8 -->
<g id="edge6" class="edge">
<title>163&#45;&gt;8</title>
<path fill="none" stroke="black" d="M260.68,-1248.13C249.68,-1242.01 236.48,-1235.25 223.99,-1230.38 164.93,-1207.37 138.35,-1230.1 85.99,-1194.38 80.37,-1190.55 75.4,-1185.35 71.18,-1179.89"/>
<polygon fill="black" stroke="black" points="74.23,-1178.15 65.66,-1171.92 68.48,-1182.14 74.23,-1178.15"/>
</g>
<!-- 164 -->
<g id="node8" class="node">
<title>164</title>
<ellipse fill="none" stroke="black" cx="247.99" cy="-1150.74" rx="153.27" ry="18"/>
<text text-anchor="middle" x="247.99" y="-1147.04" font-family="Times New Roman,serif" font-size="14.00">class_body_declaration_zero_or_more</text>
</g>
<!-- 163&#45;&gt;164 -->
<g id="edge7" class="edge">
<title>163&#45;&gt;164</title>
<path fill="none" stroke="black" d="M280.22,-1246.34C274.23,-1228.75 264.75,-1200.94 257.63,-1180.01"/>
<polygon fill="black" stroke="black" points="260.97,-1178.97 254.43,-1170.64 254.34,-1181.23 260.97,-1178.97"/>
</g>
<!-- 34 -->
<g id="node9" class="node">
<title>34</title>
<ellipse fill="none" stroke="black" cx="440.99" cy="-1150.74" rx="18" ry="18"/>
<ellipse fill="none" stroke="black" cx="440.99" cy="-1150.74" rx="22" ry="22"/>
<text text-anchor="middle" x="440.99" y="-1147.04" font-family="Times New Roman,serif" font-size="14.00">}</text>
</g>
<!-- 163&#45;&gt;34 -->
<g id="edge8" class="edge">
<title>163&#45;&gt;34</title>
<path fill="none" stroke="black" d="M318.74,-1249.86C345.27,-1237.93 382.61,-1218.63 409.99,-1194.38 415,-1189.95 419.67,-1184.58 423.79,-1179.16"/>
<polygon fill="black" stroke="black" points="426.37,-1181.58 429.3,-1171.39 420.66,-1177.53 426.37,-1181.58"/>
</g>
<!-- 165 -->
<g id="node10" class="node">
<title>165</title>
<ellipse fill="none" stroke="black" cx="247.99" cy="-1038.49" rx="70.69" ry="18"/>
<text text-anchor="middle" x="247.99" y="-1034.79" font-family="Times New Roman,serif" font-size="14.00">field_declaration</text>
</g>
<!-- 164&#45;&gt;165 -->
<g id="edge9" class="edge">
<title>164&#45;&gt;165</title>
<path fill="none" stroke="black" d="M247.99,-1132.51C247.99,-1115.38 247.99,-1088.78 247.99,-1068.41"/>
<polygon fill="black" stroke="black" points="251.49,-1068.47 247.99,-1058.47 244.49,-1068.47 251.49,-1068.47"/>
</g>
<!-- 10 -->
<g id="node11" class="node">
<title>10</title>
<ellipse fill="none" stroke="black" cx="111.99" cy="-946.4" rx="19.5" ry="19.5"/>
<ellipse fill="none" stroke="black" cx="111.99" cy="-946.4" rx="23.5" ry="23.5"/>
<text text-anchor="middle" x="111.99" y="-942.7" font-family="Times New Roman,serif" font-size="14.00">int</text>
</g>
<!-- 165&#45;&gt;10 -->
<g id="edge10" class="edge">
<title>165&#45;&gt;10</title>
<path fill="none" stroke="black" d="M222.6,-1021.36C201.44,-1007.82 170.57,-987.87 143.99,-969.89 142.66,-968.99 141.29,-968.06 139.92,-967.12"/>
<polygon fill="black" stroke="black" points="142.32,-964.52 132.11,-961.7 138.33,-970.27 142.32,-964.52"/>
</g>
<!-- 166 -->
<g id="node12" class="node">
<title>166</title>
<ellipse fill="none" stroke="black" cx="247.99" cy="-946.4" rx="94.78" ry="18"/>
<text text-anchor="middle" x="247.99" y="-942.7" font-family="Times New Roman,serif" font-size="14.00">variable_declarator_list</text>
</g>
<!-- 165&#45;&gt;166 -->
<g id="edge11" class="edge">
<title>165&#45;&gt;166</title>
<path fill="none" stroke="black" d="M247.99,-1020.12C247.99,-1007.66 247.99,-990.58 247.99,-976.1"/>
<polygon fill="black" stroke="black" points="251.49,-976.23 247.99,-966.23 244.49,-976.23 251.49,-976.23"/>
</g>
<!-- 28 -->
<g id="node13" class="node">
<title>28</title>
<ellipse fill="none" stroke="black" cx="382.99" cy="-946.4" rx="18" ry="18"/>
<ellipse fill="none" stroke="black" cx="382.99" cy="-946.4" rx="22" ry="22"/>
<text text-anchor="middle" x="382.99" y="-942.7" font-family="Times New Roman,serif" font-size="14.00">;</text>
</g>
<!-- 165&#45;&gt;28 -->
<g id="edge12" class="edge">
<title>165&#45;&gt;28</title>
<path fill="none" stroke="black" d="M273.45,-1021.46C294.66,-1007.98 325.55,-988.07 351.99,-969.89 353.36,-968.95 354.76,-967.98 356.17,-966.99"/>
<polygon fill="black" stroke="black" points="358.06,-969.94 364.17,-961.28 353.99,-964.24 358.06,-969.94"/>
</g>
<!-- 167 -->
<g id="node14" class="node">
<title>167</title>
<ellipse fill="none" stroke="black" cx="90.99" cy="-863.4" rx="79.09" ry="18"/>
<text text-anchor="middle" x="90.99" y="-859.7" font-family="Times New Roman,serif" font-size="14.00">variable_declarator</text>
</g>
<!-- 166&#45;&gt;167 -->
<g id="edge13" class="edge">
<title>166&#45;&gt;167</title>
<path fill="none" stroke="black" d="M216.22,-929C191.94,-916.48 158.27,-899.11 131.96,-885.54"/>
<polygon fill="black" stroke="black" points="133.75,-882.52 123.26,-881.05 130.54,-888.74 133.75,-882.52"/>
</g>
<!-- 169 -->
<g id="node15" class="node">
<title>169</title>
<ellipse fill="none" stroke="black" cx="355.99" cy="-863.4" rx="167.87" ry="18"/>
<text text-anchor="middle" x="355.99" y="-859.7" font-family="Times New Roman,serif" font-size="14.00">comma_variable_declarator_zero_or_more</text>
</g>
<!-- 166&#45;&gt;169 -->
<g id="edge14" class="edge">
<title>166&#45;&gt;169</title>
<path fill="none" stroke="black" d="M270.37,-928.61C285.8,-917.04 306.55,-901.48 323.76,-888.57"/>
<polygon fill="black" stroke="black" points="325.79,-891.43 331.69,-882.63 321.59,-885.83 325.79,-891.43"/>
</g>
<!-- 168 -->
<g id="node16" class="node">
<title>168</title>
<ellipse fill="none" stroke="black" cx="90.99" cy="-781.9" rx="90.98" ry="18"/>
<text text-anchor="middle" x="90.99" y="-778.2" font-family="Times New Roman,serif" font-size="14.00">variable_declarator_id</text>
</g>
<!-- 167&#45;&gt;168 -->
<g id="edge15" class="edge">
<title>167&#45;&gt;168</title>
<path fill="none" stroke="black" d="M90.99,-845.15C90.99,-835.42 90.99,-823.02 90.99,-811.85"/>
<polygon fill="black" stroke="black" points="94.49,-811.91 90.99,-801.91 87.49,-811.91 94.49,-811.91"/>
</g>
<!-- 20 -->
<g id="node18" class="node">
<title>20</title>
<ellipse fill="none" stroke="black" cx="317.99" cy="-781.9" rx="18" ry="18"/>
<ellipse fill="none" stroke="black" cx="317.99" cy="-781.9" rx="22" ry="22"/>
<text text-anchor="middle" x="317.99" y="-778.2" font-family="Times New Roman,serif" font-size="14.00">,</text>
</g>
<!-- 169&#45;&gt;20 -->
<g id="edge17" class="edge">
<title>169&#45;&gt;20</title>
<path fill="none" stroke="black" d="M347.75,-845.15C343.18,-835.6 337.38,-823.46 332.12,-812.45"/>
<polygon fill="black" stroke="black" points="335.41,-811.23 327.94,-803.72 329.1,-814.25 335.41,-811.23"/>
</g>
<!-- 170 -->
<g id="node19" class="node">
<title>170</title>
<ellipse fill="none" stroke="black" cx="436.99" cy="-781.9" rx="79.09" ry="18"/>
<text text-anchor="middle" x="436.99" y="-778.2" font-family="Times New Roman,serif" font-size="14.00">variable_declarator</text>
</g>
<!-- 169&#45;&gt;170 -->
<g id="edge18" class="edge">
<title>169&#45;&gt;170</title>
<path fill="none" stroke="black" d="M373.57,-845.15C384.68,-834.24 399.23,-819.96 411.59,-807.83"/>
<polygon fill="black" stroke="black" points="413.96,-810.41 418.65,-800.9 409.06,-805.41 413.96,-810.41"/>
</g>
<!-- 14 -->
<g id="node17" class="node">
<title>14</title>
<ellipse fill="none" stroke="black" cx="90.99" cy="-686.75" rx="18" ry="18"/>
<ellipse fill="none" stroke="black" cx="90.99" cy="-686.75" rx="22" ry="22"/>
<text text-anchor="middle" x="90.99" y="-683.05" font-family="Times New Roman,serif" font-size="14.00">x</text>
</g>
<!-- 168&#45;&gt;14 -->
<g id="edge16" class="edge">
<title>168&#45;&gt;14</title>
<path fill="none" stroke="black" d="M90.99,-763.82C90.99,-751.63 90.99,-734.87 90.99,-720.19"/>
<polygon fill="black" stroke="black" points="94.49,-720.49 90.99,-710.49 87.49,-720.49 94.49,-720.49"/>
</g>
<!-- 171 -->
<g id="node20" class="node">
<title>171</title>
<ellipse fill="none" stroke="black" cx="436.99" cy="-686.75" rx="90.98" ry="18"/>
<text text-anchor="middle" x="436.99" y="-683.05" font-family="Times New Roman,serif" font-size="14.00">variable_declarator_id</text>
</g>
<!-- 170&#45;&gt;171 -->
<g id="edge19" class="edge">
<title>170&#45;&gt;171</title>
<path fill="none" stroke="black" d="M436.99,-763.82C436.99,-750.51 436.99,-731.74 436.99,-716.18"/>
<polygon fill="black" stroke="black" points="440.49,-716.56 436.99,-706.56 433.49,-716.56 440.49,-716.56"/>
</g>
<!-- 21 -->
<g id="node21" class="node">
<title>21</title>
<ellipse fill="none" stroke="black" cx="436.99" cy="-545.26" rx="18" ry="18"/>
<ellipse fill="none" stroke="black" cx="436.99" cy="-545.26" rx="22" ry="22"/>
<text text-anchor="middle" x="436.99" y="-541.56" font-family="Times New Roman,serif" font-size="14.00">y</text>
</g>
<!-- 171&#45;&gt;21 -->
<g id="edge20" class="edge">
<title>171&#45;&gt;21</title>
<path fill="none" stroke="black" d="M436.99,-668.37C436.99,-646 436.99,-606.71 436.99,-578.73"/>
<polygon fill="black" stroke="black" points="440.49,-579.04 436.99,-569.04 433.49,-579.04 440.49,-579.04"/>
</g>
<!-- 40 -->
<g id="node24" class="node">
<title>40</title>
<ellipse fill="none" stroke="black" cx="513.99" cy="-1150.74" rx="28.68" ry="28.68"/>
<ellipse fill="none" stroke="black" cx="513.99" cy="-1150.74" rx="32.7" ry="32.7"/>
<text text-anchor="middle" x="513.99" y="-1147.04" font-family="Times New Roman,serif" font-size="14.00">class</text>
</g>
<!-- 173&#45;&gt;40 -->
<g id="edge23" class="edge">
<title>173&#45;&gt;40</title>
<path fill="none" stroke="black" d="M593.72,-1246.34C580.03,-1230.09 558.98,-1205.12 541.95,-1184.91"/>
<polygon fill="black" stroke="black" points="544.79,-1182.85 535.67,-1177.46 539.43,-1187.36 544.79,-1182.85"/>
</g>
<!-- 41 -->
<g id="node25" class="node">
<title>41</title>
<ellipse fill="none" stroke="black" cx="607.99" cy="-1150.74" rx="39.78" ry="39.78"/>
<ellipse fill="none" stroke="black" cx="607.99" cy="-1150.74" rx="43.79" ry="43.79"/>
<text text-anchor="middle" x="607.99" y="-1147.04" font-family="Times New Roman,serif" font-size="14.00">Element</text>
</g>
<!-- 173&#45;&gt;41 -->
<g id="edge24" class="edge">
<title>173&#45;&gt;41</title>
<path fill="none" stroke="black" d="M607.99,-1245.85C607.99,-1235.12 607.99,-1220.71 607.99,-1206.4"/>
<polygon fill="black" stroke="black" points="611.49,-1206.53 607.99,-1196.53 604.49,-1206.53 611.49,-1206.53"/>
</g>
<!-- 174 -->
<g id="node26" class="node">
<title>174</title>
<ellipse fill="none" stroke="black" cx="721.99" cy="-1150.74" rx="52.79" ry="18"/>
<text text-anchor="middle" x="721.99" y="-1147.04" font-family="Times New Roman,serif" font-size="14.00">class_body</text>
</g>
<!-- 173&#45;&gt;174 -->
<g id="edge25" class="edge">
<title>173&#45;&gt;174</title>
<path fill="none" stroke="black" d="M625.31,-1246.34C644.44,-1227.61 675.42,-1197.3 697.15,-1176.04"/>
<polygon fill="black" stroke="black" points="699.48,-1178.66 704.18,-1169.17 694.58,-1173.66 699.48,-1178.66"/>
</g>
<!-- 181 -->
<g id="node37" class="node">
<title>181</title>
<ellipse fill="none" stroke="black" cx="1022.99" cy="-1150.74" rx="102.88" ry="18"/>
<text text-anchor="middle" x="1022.99" y="-1147.04" font-family="Times New Roman,serif" font-size="14.00">normal_class_declaration</text>
</g>
<!-- 180&#45;&gt;181 -->
<g id="edge36" class="edge">
<title>180&#45;&gt;181</title>
<path fill="none" stroke="black" d="M1009.49,-1245.85C1012,-1228.33 1015.92,-1201.03 1018.89,-1180.34"/>
<polygon fill="black" stroke="black" points="1022.34,-1180.94 1020.29,-1170.54 1015.41,-1179.94 1022.34,-1180.94"/>
</g>
<!-- 46 -->
<g id="node27" class="node">
<title>46</title>
<ellipse fill="none" stroke="black" cx="512.99" cy="-1038.49" rx="18" ry="18"/>
<ellipse fill="none" stroke="black" cx="512.99" cy="-1038.49" rx="22" ry="22"/>
<text text-anchor="middle" x="512.99" y="-1034.79" font-family="Times New Roman,serif" font-size="14.00">{</text>
</g>
<!-- 174&#45;&gt;46 -->
<g id="edge26" class="edge">
<title>174&#45;&gt;46</title>
<path fill="none" stroke="black" d="M702.37,-1133.65C690.87,-1124.84 675.74,-1114.29 660.99,-1107.09 612.1,-1083.21 590.47,-1099.37 543.99,-1071.09 540.78,-1069.13 537.65,-1066.77 534.71,-1064.22"/>
<polygon fill="black" stroke="black" points="537.2,-1061.76 527.58,-1057.32 532.33,-1066.79 537.2,-1061.76"/>
</g>
<!-- 175 -->
<g id="node28" class="node">
<title>175</title>
<ellipse fill="none" stroke="black" cx="705.99" cy="-1038.49" rx="153.27" ry="18"/>
<text text-anchor="middle" x="705.99" y="-1034.79" font-family="Times New Roman,serif" font-size="14.00">class_body_declaration_zero_or_more</text>
</g>
<!-- 174&#45;&gt;175 -->
<g id="edge27" class="edge">
<title>174&#45;&gt;175</title>
<path fill="none" stroke="black" d="M719.49,-1132.51C716.99,-1115.3 713.11,-1088.53 710.15,-1068.12"/>
<polygon fill="black" stroke="black" points="713.64,-1067.85 708.74,-1058.46 706.72,-1068.86 713.64,-1067.85"/>
</g>
<!-- 65 -->
<g id="node29" class="node">
<title>65</title>
<ellipse fill="none" stroke="black" cx="898.99" cy="-1038.49" rx="18" ry="18"/>
<ellipse fill="none" stroke="black" cx="898.99" cy="-1038.49" rx="22" ry="22"/>
<text text-anchor="middle" x="898.99" y="-1034.79" font-family="Times New Roman,serif" font-size="14.00">}</text>
</g>
<!-- 174&#45;&gt;65 -->
<g id="edge28" class="edge">
<title>174&#45;&gt;65</title>
<path fill="none" stroke="black" d="M753.81,-1136C784.54,-1121.97 831.63,-1098.42 867.99,-1071.09 871,-1068.83 874,-1066.27 876.87,-1063.62"/>
<polygon fill="black" stroke="black" points="879.29,-1066.15 883.95,-1056.64 874.37,-1061.17 879.29,-1066.15"/>
</g>
<!-- 176 -->
<g id="node30" class="node">
<title>176</title>
<ellipse fill="none" stroke="black" cx="703.99" cy="-946.4" rx="70.69" ry="18"/>
<text text-anchor="middle" x="703.99" y="-942.7" font-family="Times New Roman,serif" font-size="14.00">field_declaration</text>
</g>
<!-- 175&#45;&gt;176 -->
<g id="edge29" class="edge">
<title>175&#45;&gt;176</title>
<path fill="none" stroke="black" d="M705.61,-1020.12C705.33,-1007.66 704.95,-990.58 704.63,-976.1"/>
<polygon fill="black" stroke="black" points="708.13,-976.15 704.41,-966.23 701.13,-976.3 708.13,-976.15"/>
</g>
<!-- 48 -->
<g id="node31" class="node">
<title>48</title>
<ellipse fill="none" stroke="black" cx="566.99" cy="-863.4" rx="19.5" ry="19.5"/>
<ellipse fill="none" stroke="black" cx="566.99" cy="-863.4" rx="23.5" ry="23.5"/>
<text text-anchor="middle" x="566.99" y="-859.7" font-family="Times New Roman,serif" font-size="14.00">int</text>
</g>
<!-- 176&#45;&gt;48 -->
<g id="edge30" class="edge">
<title>176&#45;&gt;48</title>
<path fill="none" stroke="black" d="M674.09,-929.81C652.82,-918.47 623.74,-902.43 598.99,-886.9 597.63,-886.04 596.24,-885.15 594.84,-884.24"/>
<polygon fill="black" stroke="black" points="597.22,-881.62 586.98,-878.91 593.29,-887.41 597.22,-881.62"/>
</g>
<!-- 177 -->
<g id="node32" class="node">
<title>177</title>
<ellipse fill="none" stroke="black" cx="702.99" cy="-863.4" rx="94.78" ry="18"/>
<text text-anchor="middle" x="702.99" y="-859.7" font-family="Times New Roman,serif" font-size="14.00">variable_declarator_list</text>
</g>
<!-- 176&#45;&gt;177 -->
<g id="edge31" class="edge">
<title>176&#45;&gt;177</title>
<path fill="none" stroke="black" d="M703.78,-928.22C703.65,-918.09 703.49,-905 703.35,-893.32"/>
<polygon fill="black" stroke="black" points="706.85,-893.3 703.23,-883.34 699.85,-893.39 706.85,-893.3"/>
</g>
<!-- 59 -->
<g id="node33" class="node">
<title>59</title>
<ellipse fill="none" stroke="black" cx="837.99" cy="-863.4" rx="18" ry="18"/>
<ellipse fill="none" stroke="black" cx="837.99" cy="-863.4" rx="22" ry="22"/>
<text text-anchor="middle" x="837.99" y="-859.7" font-family="Times New Roman,serif" font-size="14.00">;</text>
</g>
<!-- 176&#45;&gt;59 -->
<g id="edge32" class="edge">
<title>176&#45;&gt;59</title>
<path fill="none" stroke="black" d="M733.81,-929.61C754.66,-918.29 782.96,-902.37 806.99,-886.9 808.57,-885.88 810.17,-884.82 811.78,-883.73"/>
<polygon fill="black" stroke="black" points="813.44,-886.84 819.61,-878.23 809.42,-881.11 813.44,-886.84"/>
</g>
<!-- 178 -->
<g id="node34" class="node">
<title>178</title>
<ellipse fill="none" stroke="black" cx="693.99" cy="-781.9" rx="79.09" ry="18"/>
<text text-anchor="middle" x="693.99" y="-778.2" font-family="Times New Roman,serif" font-size="14.00">variable_declarator</text>
</g>
<!-- 177&#45;&gt;178 -->
<g id="edge33" class="edge">
<title>177&#45;&gt;178</title>
<path fill="none" stroke="black" d="M701.04,-845.15C699.93,-835.32 698.5,-822.75 697.23,-811.49"/>
<polygon fill="black" stroke="black" points="700.75,-811.44 696.14,-801.9 693.79,-812.23 700.75,-811.44"/>
</g>
<!-- 179 -->
<g id="node35" class="node">
<title>179</title>
<ellipse fill="none" stroke="black" cx="692.99" cy="-686.75" rx="90.98" ry="18"/>
<text text-anchor="middle" x="692.99" y="-683.05" font-family="Times New Roman,serif" font-size="14.00">variable_declarator_id</text>
</g>
<!-- 178&#45;&gt;179 -->
<g id="edge34" class="edge">
<title>178&#45;&gt;179</title>
<path fill="none" stroke="black" d="M693.81,-763.82C693.67,-750.51 693.46,-731.74 693.3,-716.18"/>
<polygon fill="black" stroke="black" points="696.8,-716.52 693.19,-706.56 689.8,-716.6 696.8,-716.52"/>
</g>
<!-- 52 -->
<g id="node36" class="node">
<title>52</title>
<ellipse fill="none" stroke="black" cx="692.99" cy="-545.26" rx="64.2" ry="64.2"/>
<ellipse fill="none" stroke="black" cx="692.99" cy="-545.26" rx="68.19" ry="68.19"/>
<text text-anchor="middle" x="692.99" y="-541.56" font-family="Times New Roman,serif" font-size="14.00">atomicNumber</text>
</g>
<!-- 179&#45;&gt;52 -->
<g id="edge35" class="edge">
<title>179&#45;&gt;52</title>
<path fill="none" stroke="black" d="M692.99,-668.37C692.99,-657.09 692.99,-641.52 692.99,-625.26"/>
<polygon fill="black" stroke="black" points="696.49,-625.45 692.99,-615.45 689.49,-625.45 696.49,-625.45"/>
</g>
<!-- 71 -->
<g id="node38" class="node">
<title>71</title>
<ellipse fill="none" stroke="black" cx="972.99" cy="-1038.49" rx="28.68" ry="28.68"/>
<ellipse fill="none" stroke="black" cx="972.99" cy="-1038.49" rx="32.7" ry="32.7"/>
<text text-anchor="middle" x="972.99" y="-1034.79" font-family="Times New Roman,serif" font-size="14.00">class</text>
</g>
<!-- 181&#45;&gt;71 -->
<g id="edge37" class="edge">
<title>181&#45;&gt;71</title>
<path fill="none" stroke="black" d="M1015.18,-1132.51C1008.7,-1118.23 999.25,-1097.39 990.93,-1079.04"/>
<polygon fill="black" stroke="black" points="994.14,-1077.64 986.82,-1069.98 987.76,-1080.53 994.14,-1077.64"/>
</g>
<!-- 72 -->
<g id="node39" class="node">
<title>72</title>
<ellipse fill="none" stroke="black" cx="1053.99" cy="-1038.49" rx="26.78" ry="26.78"/>
<ellipse fill="none" stroke="black" cx="1053.99" cy="-1038.49" rx="30.8" ry="30.8"/>
<text text-anchor="middle" x="1053.99" y="-1034.79" font-family="Times New Roman,serif" font-size="14.00">Test</text>
</g>
<!-- 181&#45;&gt;72 -->
<g id="edge38" class="edge">
<title>181&#45;&gt;72</title>
<path fill="none" stroke="black" d="M1027.84,-1132.51C1031.81,-1118.37 1037.6,-1097.77 1042.73,-1079.56"/>
<polygon fill="black" stroke="black" points="1046.06,-1080.63 1045.4,-1070.06 1039.32,-1078.74 1046.06,-1080.63"/>
</g>
<!-- 182 -->
<g id="node40" class="node">
<title>182</title>
<ellipse fill="none" stroke="black" cx="1158.99" cy="-1038.49" rx="52.79" ry="18"/>
<text text-anchor="middle" x="1158.99" y="-1034.79" font-family="Times New Roman,serif" font-size="14.00">class_body</text>
</g>
<!-- 181&#45;&gt;182 -->
<g id="edge39" class="edge">
<title>181&#45;&gt;182</title>
<path fill="none" stroke="black" d="M1043.94,-1132.75C1067.14,-1113.95 1104.66,-1083.54 1130.51,-1062.58"/>
<polygon fill="black" stroke="black" points="1132.38,-1065.57 1137.95,-1056.55 1127.98,-1060.13 1132.38,-1065.57"/>
</g>
<!-- 77 -->
<g id="node41" class="node">
<title>77</title>
<ellipse fill="none" stroke="black" cx="965.99" cy="-946.4" rx="18" ry="18"/>
<ellipse fill="none" stroke="black" cx="965.99" cy="-946.4" rx="22" ry="22"/>
<text text-anchor="middle" x="965.99" y="-942.7" font-family="Times New Roman,serif" font-size="14.00">{</text>
</g>
<!-- 182&#45;&gt;77 -->
<g id="edge40" class="edge">
<title>182&#45;&gt;77</title>
<path fill="none" stroke="black" d="M1130.47,-1022.88C1119.22,-1017.32 1106.11,-1011.07 1093.99,-1005.89 1051.71,-987.82 1037.53,-991.6 996.99,-969.89 995.34,-969.01 993.68,-968.05 992.02,-967.03"/>
<polygon fill="black" stroke="black" points="994.34,-964.37 984.08,-961.72 990.45,-970.19 994.34,-964.37"/>
</g>
<!-- 183 -->
<g id="node42" class="node">
<title>183</title>
<ellipse fill="none" stroke="black" cx="1158.99" cy="-946.4" rx="153.27" ry="18"/>
<text text-anchor="middle" x="1158.99" y="-942.7" font-family="Times New Roman,serif" font-size="14.00">class_body_declaration_zero_or_more</text>
</g>
<!-- 182&#45;&gt;183 -->
<g id="edge41" class="edge">
<title>182&#45;&gt;183</title>
<path fill="none" stroke="black" d="M1158.99,-1020.12C1158.99,-1007.66 1158.99,-990.58 1158.99,-976.1"/>
<polygon fill="black" stroke="black" points="1162.49,-976.23 1158.99,-966.23 1155.49,-976.23 1162.49,-976.23"/>
</g>
<!-- 150 -->
<g id="node43" class="node">
<title>150</title>
<ellipse fill="none" stroke="black" cx="1351.99" cy="-946.4" rx="18" ry="18"/>
<ellipse fill="none" stroke="black" cx="1351.99" cy="-946.4" rx="22" ry="22"/>
<text text-anchor="middle" x="1351.99" y="-942.7" font-family="Times New Roman,serif" font-size="14.00">}</text>
</g>
<!-- 182&#45;&gt;150 -->
<g id="edge42" class="edge">
<title>182&#45;&gt;150</title>
<path fill="none" stroke="black" d="M1195.51,-1025.03C1229.1,-1012.92 1279.8,-993.02 1320.99,-969.89 1322.63,-968.98 1324.28,-967.99 1325.92,-966.96"/>
<polygon fill="black" stroke="black" points="1327.52,-970.1 1333.83,-961.6 1323.59,-964.31 1327.52,-970.1"/>
</g>
<!-- 184 -->
<g id="node44" class="node">
<title>184</title>
<ellipse fill="none" stroke="black" cx="1175.99" cy="-863.4" rx="82.59" ry="18"/>
<text text-anchor="middle" x="1175.99" y="-859.7" font-family="Times New Roman,serif" font-size="14.00">method_declaration</text>
</g>
<!-- 183&#45;&gt;184 -->
<g id="edge43" class="edge">
<title>183&#45;&gt;184</title>
<path fill="none" stroke="black" d="M1162.6,-928.22C1164.75,-917.98 1167.53,-904.72 1170,-892.95"/>
<polygon fill="black" stroke="black" points="1173.39,-893.82 1172.02,-883.31 1166.54,-892.38 1173.39,-893.82"/>
</g>
<!-- 185 -->
<g id="node45" class="node">
<title>185</title>
<ellipse fill="none" stroke="black" cx="989.99" cy="-781.9" rx="101.28" ry="18"/>
<text text-anchor="middle" x="989.99" y="-778.2" font-family="Times New Roman,serif" font-size="14.00">modifiers_zero_or_more</text>
</g>
<!-- 184&#45;&gt;185 -->
<g id="edge44" class="edge">
<title>184&#45;&gt;185</title>
<path fill="none" stroke="black" d="M1139.69,-846.88C1110.72,-834.5 1069.88,-817.04 1038.17,-803.49"/>
<polygon fill="black" stroke="black" points="1039.76,-800.37 1029.19,-799.66 1037.01,-806.8 1039.76,-800.37"/>
</g>
<!-- 187 -->
<g id="node46" class="node">
<title>187</title>
<ellipse fill="none" stroke="black" cx="1175.99" cy="-781.9" rx="66.89" ry="18"/>
<text text-anchor="middle" x="1175.99" y="-778.2" font-family="Times New Roman,serif" font-size="14.00">method_header</text>
</g>
<!-- 184&#45;&gt;187 -->
<g id="edge45" class="edge">
<title>184&#45;&gt;187</title>
<path fill="none" stroke="black" d="M1175.99,-845.15C1175.99,-835.42 1175.99,-823.02 1175.99,-811.85"/>
<polygon fill="black" stroke="black" points="1179.49,-811.91 1175.99,-801.91 1172.49,-811.91 1179.49,-811.91"/>
</g>
<!-- 193 -->
<g id="node47" class="node">
<title>193</title>
<ellipse fill="none" stroke="black" cx="1481.99" cy="-781.9" rx="31.4" ry="18"/>
<text text-anchor="middle" x="1481.99" y="-778.2" font-family="Times New Roman,serif" font-size="14.00">block</text>
</g>
<!-- 184&#45;&gt;193 -->
<g id="edge46" class="edge">
<title>184&#45;&gt;193</title>
<path fill="none" stroke="black" d="M1227.55,-849C1288.3,-833.22 1387.87,-807.35 1442.7,-793.11"/>
<polygon fill="black" stroke="black" points="1443.43,-796.53 1452.23,-790.63 1441.67,-789.76 1443.43,-796.53"/>
</g>
<!-- 78 -->
<g id="node48" class="node">
<title>78</title>
<ellipse fill="none" stroke="black" cx="838.99" cy="-686.75" rx="33.28" ry="33.28"/>
<ellipse fill="none" stroke="black" cx="838.99" cy="-686.75" rx="37.29" ry="37.29"/>
<text text-anchor="middle" x="838.99" y="-683.05" font-family="Times New Roman,serif" font-size="14.00">public</text>
</g>
<!-- 185&#45;&gt;78 -->
<g id="edge47" class="edge">
<title>185&#45;&gt;78</title>
<path fill="none" stroke="black" d="M956.92,-764.44C936.1,-753.67 908.92,-738.87 885.99,-723.9 882.98,-721.93 879.9,-719.82 876.85,-717.65"/>
<polygon fill="black" stroke="black" points="879.17,-715.02 869.04,-711.93 875.03,-720.66 879.17,-715.02"/>
</g>
<!-- 186 -->
<g id="node49" class="node">
<title>186</title>
<ellipse fill="none" stroke="black" cx="995.99" cy="-686.75" rx="101.28" ry="18"/>
<text text-anchor="middle" x="995.99" y="-683.05" font-family="Times New Roman,serif" font-size="14.00">modifiers_zero_or_more</text>
</g>
<!-- 185&#45;&gt;186 -->
<g id="edge48" class="edge">
<title>185&#45;&gt;186</title>
<path fill="none" stroke="black" d="M991.09,-763.82C991.95,-750.51 993.16,-731.74 994.16,-716.18"/>
<polygon fill="black" stroke="black" points="997.63,-716.76 994.78,-706.56 990.65,-716.31 997.63,-716.76"/>
</g>
<!-- 85 -->
<g id="node51" class="node">
<title>85</title>
<ellipse fill="none" stroke="black" cx="1145.99" cy="-686.75" rx="26.78" ry="26.78"/>
<ellipse fill="none" stroke="black" cx="1145.99" cy="-686.75" rx="30.8" ry="30.8"/>
<text text-anchor="middle" x="1145.99" y="-683.05" font-family="Times New Roman,serif" font-size="14.00">void</text>
</g>
<!-- 187&#45;&gt;85 -->
<g id="edge50" class="edge">
<title>187&#45;&gt;85</title>
<path fill="none" stroke="black" d="M1170.49,-763.82C1167.19,-753.58 1162.86,-740.11 1158.75,-727.36"/>
<polygon fill="black" stroke="black" points="1162.09,-726.32 1155.69,-717.88 1155.43,-728.47 1162.09,-726.32"/>
</g>
<!-- 188 -->
<g id="node52" class="node">
<title>188</title>
<ellipse fill="none" stroke="black" cx="1273.99" cy="-686.75" rx="79.09" ry="18"/>
<text text-anchor="middle" x="1273.99" y="-683.05" font-family="Times New Roman,serif" font-size="14.00">method_declarator</text>
</g>
<!-- 187&#45;&gt;188 -->
<g id="edge51" class="edge">
<title>187&#45;&gt;188</title>
<path fill="none" stroke="black" d="M1193.51,-764.25C1208.75,-749.77 1231.02,-728.6 1248.28,-712.19"/>
<polygon fill="black" stroke="black" points="1250.36,-715.05 1255.2,-705.62 1245.54,-709.97 1250.36,-715.05"/>
</g>
<!-- 106 -->
<g id="node64" class="node">
<title>106</title>
<ellipse fill="none" stroke="black" cx="1424.99" cy="-686.75" rx="18" ry="18"/>
<ellipse fill="none" stroke="black" cx="1424.99" cy="-686.75" rx="22" ry="22"/>
<text text-anchor="middle" x="1424.99" y="-683.05" font-family="Times New Roman,serif" font-size="14.00">{</text>
</g>
<!-- 193&#45;&gt;106 -->
<g id="edge63" class="edge">
<title>193&#45;&gt;106</title>
<path fill="none" stroke="black" d="M1472.06,-764.68C1463.77,-751.12 1451.76,-731.49 1441.95,-715.46"/>
<polygon fill="black" stroke="black" points="1445.17,-714.02 1436.96,-707.32 1439.2,-717.67 1445.17,-714.02"/>
</g>
<!-- 194 -->
<g id="node65" class="node">
<title>194</title>
<ellipse fill="none" stroke="black" cx="1538.99" cy="-686.75" rx="74.19" ry="18"/>
<text text-anchor="middle" x="1538.99" y="-683.05" font-family="Times New Roman,serif" font-size="14.00">block_statements</text>
</g>
<!-- 193&#45;&gt;194 -->
<g id="edge64" class="edge">
<title>193&#45;&gt;194</title>
<path fill="none" stroke="black" d="M1491.92,-764.68C1500.37,-750.86 1512.69,-730.74 1522.6,-714.54"/>
<polygon fill="black" stroke="black" points="1525.38,-716.7 1527.61,-706.35 1519.41,-713.05 1525.38,-716.7"/>
</g>
<!-- 143 -->
<g id="node66" class="node">
<title>143</title>
<ellipse fill="none" stroke="black" cx="1652.99" cy="-686.75" rx="18" ry="18"/>
<ellipse fill="none" stroke="black" cx="1652.99" cy="-686.75" rx="22" ry="22"/>
<text text-anchor="middle" x="1652.99" y="-683.05" font-family="Times New Roman,serif" font-size="14.00">}</text>
</g>
<!-- 193&#45;&gt;143 -->
<g id="edge65" class="edge">
<title>193&#45;&gt;143</title>
<path fill="none" stroke="black" d="M1510.26,-773.7C1540.02,-765.18 1587.28,-748.9 1621.99,-723.9 1625.99,-721.02 1629.81,-717.52 1633.31,-713.85"/>
<polygon fill="black" stroke="black" points="1635.95,-716.15 1639.87,-706.31 1630.66,-711.56 1635.95,-716.15"/>
</g>
<!-- 80 -->
<g id="node50" class="node">
<title>80</title>
<ellipse fill="none" stroke="black" cx="995.99" cy="-545.26" rx="29.81" ry="29.81"/>
<ellipse fill="none" stroke="black" cx="995.99" cy="-545.26" rx="33.8" ry="33.8"/>
<text text-anchor="middle" x="995.99" y="-541.56" font-family="Times New Roman,serif" font-size="14.00">static</text>
</g>
<!-- 186&#45;&gt;80 -->
<g id="edge49" class="edge">
<title>186&#45;&gt;80</title>
<path fill="none" stroke="black" d="M995.99,-668.37C995.99,-649.03 995.99,-617.03 995.99,-590.64"/>
<polygon fill="black" stroke="black" points="999.49,-590.87 995.99,-580.87 992.49,-590.87 999.49,-590.87"/>
</g>
<!-- 86 -->
<g id="node53" class="node">
<title>86</title>
<ellipse fill="none" stroke="black" cx="1086.99" cy="-545.26" rx="27.9" ry="27.9"/>
<ellipse fill="none" stroke="black" cx="1086.99" cy="-545.26" rx="31.9" ry="31.9"/>
<text text-anchor="middle" x="1086.99" y="-541.56" font-family="Times New Roman,serif" font-size="14.00">main</text>
</g>
<!-- 188&#45;&gt;86 -->
<g id="edge52" class="edge">
<title>188&#45;&gt;86</title>
<path fill="none" stroke="black" d="M1237.26,-670.42C1199.86,-654.32 1145.04,-629.22 1127.99,-613.61 1119.04,-605.41 1111.37,-594.81 1105.17,-584.46"/>
<polygon fill="black" stroke="black" points="1108.38,-583.02 1100.42,-576.02 1102.27,-586.45 1108.38,-583.02"/>
</g>
<!-- 87 -->
<g id="node54" class="node">
<title>87</title>
<ellipse fill="none" stroke="black" cx="1158.99" cy="-545.26" rx="18" ry="18"/>
<ellipse fill="none" stroke="black" cx="1158.99" cy="-545.26" rx="22" ry="22"/>
<text text-anchor="middle" x="1158.99" y="-541.56" font-family="Times New Roman,serif" font-size="14.00">(</text>
</g>
<!-- 188&#45;&gt;87 -->
<g id="edge53" class="edge">
<title>188&#45;&gt;87</title>
<path fill="none" stroke="black" d="M1249.78,-669.38C1231.5,-656.05 1206.78,-635.86 1189.99,-613.61 1181.74,-602.67 1175,-589.19 1169.93,-577.17"/>
<polygon fill="black" stroke="black" points="1173.25,-576.06 1166.31,-568.06 1166.75,-578.65 1173.25,-576.06"/>
</g>
<!-- 189 -->
<g id="node55" class="node">
<title>189</title>
<ellipse fill="none" stroke="black" cx="1273.99" cy="-545.26" rx="74.99" ry="18"/>
<text text-anchor="middle" x="1273.99" y="-541.56" font-family="Times New Roman,serif" font-size="14.00">formal_parameter</text>
</g>
<!-- 188&#45;&gt;189 -->
<g id="edge54" class="edge">
<title>188&#45;&gt;189</title>
<path fill="none" stroke="black" d="M1273.99,-668.37C1273.99,-644.96 1273.99,-603 1273.99,-574.89"/>
<polygon fill="black" stroke="black" points="1277.49,-574.94 1273.99,-564.94 1270.49,-574.94 1277.49,-574.94"/>
</g>
<!-- 101 -->
<g id="node56" class="node">
<title>101</title>
<ellipse fill="none" stroke="black" cx="1388.99" cy="-545.26" rx="18" ry="18"/>
<ellipse fill="none" stroke="black" cx="1388.99" cy="-545.26" rx="22" ry="22"/>
<text text-anchor="middle" x="1388.99" y="-541.56" font-family="Times New Roman,serif" font-size="14.00">)</text>
</g>
<!-- 188&#45;&gt;101 -->
<g id="edge55" class="edge">
<title>188&#45;&gt;101</title>
<path fill="none" stroke="black" d="M1298.21,-669.38C1316.49,-656.05 1341.21,-635.86 1357.99,-613.61 1366.24,-602.67 1372.99,-589.19 1378.06,-577.17"/>
<polygon fill="black" stroke="black" points="1381.24,-578.65 1381.68,-568.06 1374.73,-576.06 1381.24,-578.65"/>
</g>
<!-- 190 -->
<g id="node57" class="node">
<title>190</title>
<ellipse fill="none" stroke="black" cx="1110.99" cy="-418.92" rx="75.29" ry="18"/>
<text text-anchor="middle" x="1110.99" y="-415.22" font-family="Times New Roman,serif" font-size="14.00">unann_array_type</text>
</g>
<!-- 189&#45;&gt;190 -->
<g id="edge56" class="edge">
<title>189&#45;&gt;190</title>
<path fill="none" stroke="black" d="M1253.85,-527.64C1236.98,-513.83 1212.16,-493.78 1189.99,-476.92 1174.87,-465.41 1157.8,-453.02 1143.4,-442.74"/>
<polygon fill="black" stroke="black" points="1145.79,-440.14 1135.61,-437.2 1141.73,-445.85 1145.79,-440.14"/>
</g>
<!-- 192 -->
<g id="node58" class="node">
<title>192</title>
<ellipse fill="none" stroke="black" cx="1294.99" cy="-418.92" rx="90.98" ry="18"/>
<text text-anchor="middle" x="1294.99" y="-415.22" font-family="Times New Roman,serif" font-size="14.00">variable_declarator_id</text>
</g>
<!-- 189&#45;&gt;192 -->
<g id="edge57" class="edge">
<title>189&#45;&gt;192</title>
<path fill="none" stroke="black" d="M1276.91,-526.97C1280.34,-506.65 1286.09,-472.63 1290.18,-448.39"/>
<polygon fill="black" stroke="black" points="1293.63,-449 1291.84,-438.55 1286.73,-447.83 1293.63,-449"/>
</g>
<!-- 88 -->
<g id="node59" class="node">
<title>88</title>
<ellipse fill="none" stroke="black" cx="1069.99" cy="-324.42" rx="32.49" ry="32.49"/>
<ellipse fill="none" stroke="black" cx="1069.99" cy="-324.42" rx="36.49" ry="36.49"/>
<text text-anchor="middle" x="1069.99" y="-320.72" font-family="Times New Roman,serif" font-size="14.00">String</text>
</g>
<!-- 190&#45;&gt;88 -->
<g id="edge58" class="edge">
<title>190&#45;&gt;88</title>
<path fill="none" stroke="black" d="M1103.28,-400.52C1099.23,-391.38 1094.07,-379.75 1089.03,-368.38"/>
<polygon fill="black" stroke="black" points="1092.34,-367.2 1085.09,-359.48 1085.94,-370.04 1092.34,-367.2"/>
</g>
<!-- 191 -->
<g id="node60" class="node">
<title>191</title>
<ellipse fill="none" stroke="black" cx="1152.99" cy="-324.42" rx="28.7" ry="18"/>
<text text-anchor="middle" x="1152.99" y="-320.72" font-family="Times New Roman,serif" font-size="14.00">dims</text>
</g>
<!-- 190&#45;&gt;191 -->
<g id="edge59" class="edge">
<title>190&#45;&gt;191</title>
<path fill="none" stroke="black" d="M1118.89,-400.52C1125.07,-386.91 1133.77,-367.76 1140.83,-352.2"/>
<polygon fill="black" stroke="black" points="1143.84,-354.05 1144.78,-343.5 1137.46,-351.15 1143.84,-354.05"/>
</g>
<!-- 95 -->
<g id="node63" class="node">
<title>95</title>
<ellipse fill="none" stroke="black" cx="1294.99" cy="-324.42" rx="26" ry="26"/>
<ellipse fill="none" stroke="black" cx="1294.99" cy="-324.42" rx="30" ry="30"/>
<text text-anchor="middle" x="1294.99" y="-320.72" font-family="Times New Roman,serif" font-size="14.00">args</text>
</g>
<!-- 192&#45;&gt;95 -->
<g id="edge62" class="edge">
<title>192&#45;&gt;95</title>
<path fill="none" stroke="black" d="M1294.99,-400.52C1294.99,-390.76 1294.99,-378.16 1294.99,-366.07"/>
<polygon fill="black" stroke="black" points="1298.49,-366.26 1294.99,-356.26 1291.49,-366.26 1298.49,-366.26"/>
</g>
<!-- 89 -->
<g id="node61" class="node">
<title>89</title>
<ellipse fill="none" stroke="black" cx="1121.99" cy="-229.92" rx="18" ry="18"/>
<ellipse fill="none" stroke="black" cx="1121.99" cy="-229.92" rx="22" ry="22"/>
<text text-anchor="middle" x="1121.99" y="-226.22" font-family="Times New Roman,serif" font-size="14.00">[</text>
</g>
<!-- 191&#45;&gt;89 -->
<g id="edge60" class="edge">
<title>191&#45;&gt;89</title>
<path fill="none" stroke="black" d="M1147.31,-306.46C1143.16,-294.07 1137.41,-276.93 1132.44,-262.1"/>
<polygon fill="black" stroke="black" points="1135.81,-261.14 1129.31,-252.77 1129.17,-263.36 1135.81,-261.14"/>
</g>
<!-- 90 -->
<g id="node62" class="node">
<title>90</title>
<ellipse fill="none" stroke="black" cx="1183.99" cy="-229.92" rx="18" ry="18"/>
<ellipse fill="none" stroke="black" cx="1183.99" cy="-229.92" rx="22" ry="22"/>
<text text-anchor="middle" x="1183.99" y="-226.22" font-family="Times New Roman,serif" font-size="14.00">]</text>
</g>
<!-- 191&#45;&gt;90 -->
<g id="edge61" class="edge">
<title>191&#45;&gt;90</title>
<path fill="none" stroke="black" d="M1158.68,-306.46C1162.83,-294.07 1168.57,-276.93 1173.54,-262.1"/>
<polygon fill="black" stroke="black" points="1176.81,-263.36 1176.67,-252.77 1170.17,-261.14 1176.81,-263.36"/>
</g>
<!-- 195 -->
<g id="node67" class="node">
<title>195</title>
<ellipse fill="none" stroke="black" cx="1570.99" cy="-545.26" rx="141.88" ry="18"/>
<text text-anchor="middle" x="1570.99" y="-541.56" font-family="Times New Roman,serif" font-size="14.00">local_variable_declaration_statemen</text>
</g>
<!-- 194&#45;&gt;195 -->
<g id="edge66" class="edge">
<title>194&#45;&gt;195</title>
<path fill="none" stroke="black" d="M1542.98,-668.37C1548.37,-644.85 1558.06,-602.62 1564.51,-574.51"/>
<polygon fill="black" stroke="black" points="1567.89,-575.43 1566.72,-564.9 1561.07,-573.87 1567.89,-575.43"/>
</g>
<!-- 196 -->
<g id="node68" class="node">
<title>196</title>
<ellipse fill="none" stroke="black" cx="1549.99" cy="-418.92" rx="104.78" ry="18"/>
<text text-anchor="middle" x="1549.99" y="-415.22" font-family="Times New Roman,serif" font-size="14.00">local_variable_declaration</text>
</g>
<!-- 195&#45;&gt;196 -->
<g id="edge67" class="edge">
<title>195&#45;&gt;196</title>
<path fill="none" stroke="black" d="M1568.07,-526.97C1564.64,-506.65 1558.89,-472.63 1554.8,-448.39"/>
<polygon fill="black" stroke="black" points="1558.26,-447.83 1553.14,-438.55 1551.35,-449 1558.26,-447.83"/>
</g>
<!-- 137 -->
<g id="node69" class="node">
<title>137</title>
<ellipse fill="none" stroke="black" cx="1694.99" cy="-418.92" rx="18" ry="18"/>
<ellipse fill="none" stroke="black" cx="1694.99" cy="-418.92" rx="22" ry="22"/>
<text text-anchor="middle" x="1694.99" y="-415.22" font-family="Times New Roman,serif" font-size="14.00">;</text>
</g>
<!-- 195&#45;&gt;137 -->
<g id="edge68" class="edge">
<title>195&#45;&gt;137</title>
<path fill="none" stroke="black" d="M1588.23,-526.97C1610.02,-505.13 1647.6,-467.44 1671.86,-443.11"/>
<polygon fill="black" stroke="black" points="1674.19,-445.73 1678.77,-436.18 1669.23,-440.79 1674.19,-445.73"/>
</g>
<!-- 107 -->
<g id="node70" class="node">
<title>107</title>
<ellipse fill="none" stroke="black" cx="1443.99" cy="-324.42" rx="32.49" ry="32.49"/>
<ellipse fill="none" stroke="black" cx="1443.99" cy="-324.42" rx="36.49" ry="36.49"/>
<text text-anchor="middle" x="1443.99" y="-320.72" font-family="Times New Roman,serif" font-size="14.00">String</text>
</g>
<!-- 196&#45;&gt;107 -->
<g id="edge69" class="edge">
<title>196&#45;&gt;107</title>
<path fill="none" stroke="black" d="M1530.55,-400.95C1516.4,-388.61 1496.83,-371.53 1479.88,-356.74"/>
<polygon fill="black" stroke="black" points="1482.27,-354.18 1472.43,-350.24 1477.67,-359.45 1482.27,-354.18"/>
</g>
<!-- 197 -->
<g id="node71" class="node">
<title>197</title>
<ellipse fill="none" stroke="black" cx="1592.99" cy="-324.42" rx="94.78" ry="18"/>
<text text-anchor="middle" x="1592.99" y="-320.72" font-family="Times New Roman,serif" font-size="14.00">variable_declarator_list</text>
</g>
<!-- 196&#45;&gt;197 -->
<g id="edge70" class="edge">
<title>196&#45;&gt;197</title>
<path fill="none" stroke="black" d="M1558.08,-400.52C1564.33,-387.08 1573.09,-368.24 1580.27,-352.79"/>
<polygon fill="black" stroke="black" points="1583.26,-354.66 1584.3,-344.11 1576.91,-351.71 1583.26,-354.66"/>
</g>
<!-- 198 -->
<g id="node72" class="node">
<title>198</title>
<ellipse fill="none" stroke="black" cx="1592.99" cy="-229.92" rx="79.09" ry="18"/>
<text text-anchor="middle" x="1592.99" y="-226.22" font-family="Times New Roman,serif" font-size="14.00">variable_declarator</text>
</g>
<!-- 197&#45;&gt;198 -->
<g id="edge71" class="edge">
<title>197&#45;&gt;198</title>
<path fill="none" stroke="black" d="M1592.99,-306.02C1592.99,-292.97 1592.99,-274.82 1592.99,-259.64"/>
<polygon fill="black" stroke="black" points="1596.49,-259.76 1592.99,-249.76 1589.49,-259.76 1596.49,-259.76"/>
</g>
<!-- 199 -->
<g id="node73" class="node">
<title>199</title>
<ellipse fill="none" stroke="black" cx="1461.99" cy="-153.92" rx="90.98" ry="18"/>
<text text-anchor="middle" x="1461.99" y="-150.22" font-family="Times New Roman,serif" font-size="14.00">variable_declarator_id</text>
</g>
<!-- 198&#45;&gt;199 -->
<g id="edge72" class="edge">
<title>198&#45;&gt;199</title>
<path fill="none" stroke="black" d="M1564.24,-212.68C1545.69,-202.2 1521.31,-188.43 1501.02,-176.97"/>
<polygon fill="black" stroke="black" points="1502.87,-174 1492.44,-172.13 1499.43,-180.09 1502.87,-174"/>
</g>
<!-- 200 -->
<g id="node74" class="node">
<title>200</title>
<ellipse fill="none" stroke="black" cx="1723.99" cy="-153.92" rx="153.27" ry="18"/>
<text text-anchor="middle" x="1723.99" y="-150.22" font-family="Times New Roman,serif" font-size="14.00">equals_variable_initializer_zero_or_one</text>
</g>
<!-- 198&#45;&gt;200 -->
<g id="edge73" class="edge">
<title>198&#45;&gt;200</title>
<path fill="none" stroke="black" d="M1621.74,-212.68C1640.04,-202.35 1664,-188.82 1684.12,-177.45"/>
<polygon fill="black" stroke="black" points="1685.64,-180.61 1692.63,-172.64 1682.2,-174.51 1685.64,-180.61"/>
</g>
<!-- 109 -->
<g id="node75" class="node">
<title>109</title>
<ellipse fill="none" stroke="black" cx="1461.99" cy="-49.96" rx="20.27" ry="20.27"/>
<ellipse fill="none" stroke="black" cx="1461.99" cy="-49.96" rx="24.3" ry="24.3"/>
<text text-anchor="middle" x="1461.99" y="-46.26" font-family="Times New Roman,serif" font-size="14.00">str</text>
</g>
<!-- 199&#45;&gt;109 -->
<g id="edge74" class="edge">
<title>199&#45;&gt;109</title>
<path fill="none" stroke="black" d="M1461.99,-135.63C1461.99,-121.96 1461.99,-102.45 1461.99,-85.61"/>
<polygon fill="black" stroke="black" points="1465.49,-85.99 1461.99,-75.99 1458.49,-85.99 1465.49,-85.99"/>
</g>
<!-- 112 -->
<g id="node76" class="node">
<title>112</title>
<ellipse fill="none" stroke="black" cx="1678.99" cy="-49.96" rx="18" ry="18"/>
<ellipse fill="none" stroke="black" cx="1678.99" cy="-49.96" rx="22" ry="22"/>
<text text-anchor="middle" x="1678.99" y="-46.26" font-family="Times New Roman,serif" font-size="14.00">=</text>
</g>
<!-- 200&#45;&gt;112 -->
<g id="edge75" class="edge">
<title>200&#45;&gt;112</title>
<path fill="none" stroke="black" d="M1716.36,-135.63C1709.75,-120.67 1700.06,-98.7 1692.2,-80.89"/>
<polygon fill="black" stroke="black" points="1695.44,-79.55 1688.2,-71.82 1689.03,-82.38 1695.44,-79.55"/>
</g>
<!-- 113 -->
<g id="node77" class="node">
<title>113</title>
<ellipse fill="none" stroke="black" cx="1768.99" cy="-49.96" rx="45.93" ry="45.93"/>
<ellipse fill="none" stroke="black" cx="1768.99" cy="-49.96" rx="49.92" ry="49.92"/>
<text text-anchor="middle" x="1768.99" y="-53.76" font-family="Times New Roman,serif" font-size="14.00">deowfij</text>
<text text-anchor="middle" x="1768.99" y="-38.76" font-family="Times New Roman,serif" font-size="14.00">	dfg</text>
</g>
<!-- 200&#45;&gt;113 -->
<g id="edge76" class="edge">
<title>200&#45;&gt;113</title>
<path fill="none" stroke="black" d="M1731.63,-135.63C1735.27,-127.36 1739.87,-116.95 1744.57,-106.29"/>
<polygon fill="black" stroke="black" points="1747.64,-108 1748.48,-97.44 1741.24,-105.18 1747.64,-108"/>
</g>
</g>
</svg>
