<?xml version="1.0" encoding="UTF-8" standalone="no"?>
<!DOCTYPE svg PUBLIC "-//W3C//DTD SVG 1.1//EN"
 "http://www.w3.org/Graphics/SVG/1.1/DTD/svg11.dtd">
<!-- Generated by graphviz version 7.1.0 (20230121.1956)
 -->
<!-- Title: AST Pages: 1 -->
<svg width="2173pt" height="1470pt"
 viewBox="0.00 0.00 2172.70 1470.13" xmlns="http://www.w3.org/2000/svg" xmlns:xlink="http://www.w3.org/1999/xlink">
<g id="graph0" class="graph" transform="scale(1 1) rotate(0) translate(4 1466.13)">
<title>AST</title>
<polygon fill="white" stroke="none" points="-4,4 -4,-1466.13 2168.7,-1466.13 2168.7,4 -4,4"/>
<!-- 143 -->
<g id="node1" class="node">
<title>143</title>
<ellipse fill="none" stroke="black" cx="556.7" cy="-1444.13" rx="106.68" ry="18"/>
<text text-anchor="middle" x="556.7" y="-1440.43" font-family="Times New Roman,serif" font-size="14.00">ordinary_compilation_unit</text>
</g>
<!-- 144 -->
<g id="node2" class="node">
<title>144</title>
<ellipse fill="none" stroke="black" cx="277.7" cy="-1372.13" rx="124.58" ry="18"/>
<text text-anchor="middle" x="277.7" y="-1368.43" font-family="Times New Roman,serif" font-size="14.00">single_type_import_declaration</text>
</g>
<!-- 143&#45;&gt;144 -->
<g id="edge1" class="edge">
<title>143&#45;&gt;144</title>
<path fill="none" stroke="black" d="M498.89,-1428.63C455.3,-1417.69 395.28,-1402.63 348.76,-1390.96"/>
<polygon fill="black" stroke="black" points="349.86,-1387.63 339.31,-1388.59 348.16,-1394.42 349.86,-1387.63"/>
</g>
<!-- 148 -->
<g id="node3" class="node">
<title>148</title>
<ellipse fill="none" stroke="black" cx="556.7" cy="-1372.13" rx="135.68" ry="18"/>
<text text-anchor="middle" x="556.7" y="-1368.43" font-family="Times New Roman,serif" font-size="14.00">import_declaration_zero_or_more</text>
</g>
<!-- 143&#45;&gt;148 -->
<g id="edge2" class="edge">
<title>143&#45;&gt;148</title>
<path fill="none" stroke="black" d="M556.7,-1425.83C556.7,-1418.54 556.7,-1409.86 556.7,-1401.66"/>
<polygon fill="black" stroke="black" points="560.2,-1401.75 556.7,-1391.75 553.2,-1401.75 560.2,-1401.75"/>
</g>
<!-- 153 -->
<g id="node4" class="node">
<title>153</title>
<ellipse fill="none" stroke="black" cx="926.7" cy="-1372.13" rx="215.56" ry="18"/>
<text text-anchor="middle" x="926.7" y="-1368.43" font-family="Times New Roman,serif" font-size="14.00">top_level_class_or_interface_declaration_zero_or_more</text>
</g>
<!-- 143&#45;&gt;153 -->
<g id="edge3" class="edge">
<title>143&#45;&gt;153</title>
<path fill="none" stroke="black" d="M625.86,-1430.04C683.79,-1419.08 767.08,-1403.33 831.35,-1391.17"/>
<polygon fill="black" stroke="black" points="831.64,-1394.68 840.81,-1389.38 830.34,-1387.8 831.64,-1394.68"/>
</g>
<!-- 1 -->
<g id="node5" class="node">
<title>1</title>
<ellipse fill="none" stroke="black" cx="171.7" cy="-1279.68" rx="34.4" ry="34.4"/>
<ellipse fill="none" stroke="black" cx="171.7" cy="-1279.68" rx="38.39" ry="38.39"/>
<text text-anchor="middle" x="171.7" y="-1275.98" font-family="Times New Roman,serif" font-size="14.00">import</text>
</g>
<!-- 144&#45;&gt;1 -->
<g id="edge4" class="edge">
<title>144&#45;&gt;1</title>
<path fill="none" stroke="black" d="M257.76,-1354.12C244.07,-1342.44 225.49,-1326.58 209.09,-1312.59"/>
<polygon fill="black" stroke="black" points="211.79,-1310.29 201.91,-1306.46 207.24,-1315.61 211.79,-1310.29"/>
</g>
<!-- 145 -->
<g id="node6" class="node">
<title>145</title>
<ellipse fill="none" stroke="black" cx="277.7" cy="-1279.68" rx="50.09" ry="18"/>
<text text-anchor="middle" x="277.7" y="-1275.98" font-family="Times New Roman,serif" font-size="14.00">type_name</text>
</g>
<!-- 144&#45;&gt;145 -->
<g id="edge5" class="edge">
<title>144&#45;&gt;145</title>
<path fill="none" stroke="black" d="M277.7,-1353.69C277.7,-1341.18 277.7,-1324.03 277.7,-1309.5"/>
<polygon fill="black" stroke="black" points="281.2,-1309.58 277.7,-1299.58 274.2,-1309.58 281.2,-1309.58"/>
</g>
<!-- 13 -->
<g id="node7" class="node">
<title>13</title>
<ellipse fill="none" stroke="black" cx="367.7" cy="-1279.68" rx="18" ry="18"/>
<ellipse fill="none" stroke="black" cx="367.7" cy="-1279.68" rx="22" ry="22"/>
<text text-anchor="middle" x="367.7" y="-1275.98" font-family="Times New Roman,serif" font-size="14.00">;</text>
</g>
<!-- 144&#45;&gt;13 -->
<g id="edge6" class="edge">
<title>144&#45;&gt;13</title>
<path fill="none" stroke="black" d="M298.32,-1353.93C309.97,-1343.88 324.59,-1330.74 336.7,-1318.13 340.28,-1314.4 343.92,-1310.31 347.39,-1306.24"/>
<polygon fill="black" stroke="black" points="349.96,-1308.63 353.66,-1298.7 344.58,-1304.16 349.96,-1308.63"/>
</g>
<!-- 149 -->
<g id="node17" class="node">
<title>149</title>
<ellipse fill="none" stroke="black" cx="556.7" cy="-1279.68" rx="124.58" ry="18"/>
<text text-anchor="middle" x="556.7" y="-1275.98" font-family="Times New Roman,serif" font-size="14.00">single_type_import_declaration</text>
</g>
<!-- 148&#45;&gt;149 -->
<g id="edge16" class="edge">
<title>148&#45;&gt;149</title>
<path fill="none" stroke="black" d="M556.7,-1353.69C556.7,-1341.18 556.7,-1324.03 556.7,-1309.5"/>
<polygon fill="black" stroke="black" points="560.2,-1309.58 556.7,-1299.58 553.2,-1309.58 560.2,-1309.58"/>
</g>
<!-- 154 -->
<g id="node30" class="node">
<title>154</title>
<ellipse fill="none" stroke="black" cx="870.7" cy="-1279.68" rx="115.88" ry="18"/>
<text text-anchor="middle" x="870.7" y="-1275.98" font-family="Times New Roman,serif" font-size="14.00">normal_interface_declaration</text>
</g>
<!-- 153&#45;&gt;154 -->
<g id="edge29" class="edge">
<title>153&#45;&gt;154</title>
<path fill="none" stroke="black" d="M915.9,-1353.69C907.84,-1340.68 896.68,-1322.65 887.47,-1307.77"/>
<polygon fill="black" stroke="black" points="890.5,-1306.01 882.26,-1299.35 884.55,-1309.7 890.5,-1306.01"/>
</g>
<!-- 155 -->
<g id="node31" class="node">
<title>155</title>
<ellipse fill="none" stroke="black" cx="1219.7" cy="-1279.68" rx="215.56" ry="18"/>
<text text-anchor="middle" x="1219.7" y="-1275.98" font-family="Times New Roman,serif" font-size="14.00">top_level_class_or_interface_declaration_zero_or_more</text>
</g>
<!-- 153&#45;&gt;155 -->
<g id="edge30" class="edge">
<title>153&#45;&gt;155</title>
<path fill="none" stroke="black" d="M981.12,-1354.33C1030.1,-1339.21 1102.17,-1316.96 1154.27,-1300.88"/>
<polygon fill="black" stroke="black" points="1155.1,-1304.29 1163.62,-1297.99 1153.03,-1297.6 1155.1,-1304.29"/>
</g>
<!-- 146 -->
<g id="node8" class="node">
<title>146</title>
<ellipse fill="none" stroke="black" cx="187.7" cy="-1159.64" rx="50.09" ry="18"/>
<text text-anchor="middle" x="187.7" y="-1155.94" font-family="Times New Roman,serif" font-size="14.00">type_name</text>
</g>
<!-- 145&#45;&gt;146 -->
<g id="edge7" class="edge">
<title>145&#45;&gt;146</title>
<path fill="none" stroke="black" d="M264.99,-1262.02C249.92,-1242.25 224.62,-1209.07 207.09,-1186.08"/>
<polygon fill="black" stroke="black" points="210.1,-1184.25 201.25,-1178.42 204.53,-1188.49 210.1,-1184.25"/>
</g>
<!-- 10 -->
<g id="node9" class="node">
<title>10</title>
<ellipse fill="none" stroke="black" cx="277.7" cy="-1159.64" rx="18" ry="18"/>
<ellipse fill="none" stroke="black" cx="277.7" cy="-1159.64" rx="22" ry="22"/>
<text text-anchor="middle" x="277.7" y="-1155.94" font-family="Times New Roman,serif" font-size="14.00">.</text>
</g>
<!-- 145&#45;&gt;10 -->
<g id="edge8" class="edge">
<title>145&#45;&gt;10</title>
<path fill="none" stroke="black" d="M277.7,-1261.26C277.7,-1243.52 277.7,-1215.55 277.7,-1193.61"/>
<polygon fill="black" stroke="black" points="281.2,-1193.65 277.7,-1183.65 274.2,-1193.65 281.2,-1193.65"/>
</g>
<!-- 11 -->
<g id="node10" class="node">
<title>11</title>
<ellipse fill="none" stroke="black" cx="355.7" cy="-1159.64" rx="34.4" ry="34.4"/>
<ellipse fill="none" stroke="black" cx="355.7" cy="-1159.64" rx="38.39" ry="38.39"/>
<text text-anchor="middle" x="355.7" y="-1155.94" font-family="Times New Roman,serif" font-size="14.00">Target</text>
</g>
<!-- 145&#45;&gt;11 -->
<g id="edge9" class="edge">
<title>145&#45;&gt;11</title>
<path fill="none" stroke="black" d="M288.87,-1261.77C299.2,-1246.14 314.96,-1222.29 328.58,-1201.68"/>
<polygon fill="black" stroke="black" points="331.44,-1203.71 334.03,-1193.43 325.6,-1199.85 331.44,-1203.71"/>
</g>
<!-- 147 -->
<g id="node11" class="node">
<title>147</title>
<ellipse fill="none" stroke="black" cx="97.7" cy="-1015.55" rx="50.09" ry="18"/>
<text text-anchor="middle" x="97.7" y="-1011.85" font-family="Times New Roman,serif" font-size="14.00">type_name</text>
</g>
<!-- 146&#45;&gt;147 -->
<g id="edge10" class="edge">
<title>146&#45;&gt;147</title>
<path fill="none" stroke="black" d="M177.02,-1141.78C161.53,-1117.32 132.67,-1071.75 114.36,-1042.85"/>
<polygon fill="black" stroke="black" points="117.48,-1041.24 109.17,-1034.66 111.57,-1044.98 117.48,-1041.24"/>
</g>
<!-- 7 -->
<g id="node12" class="node">
<title>7</title>
<ellipse fill="none" stroke="black" cx="187.7" cy="-1015.55" rx="18" ry="18"/>
<ellipse fill="none" stroke="black" cx="187.7" cy="-1015.55" rx="22" ry="22"/>
<text text-anchor="middle" x="187.7" y="-1011.85" font-family="Times New Roman,serif" font-size="14.00">.</text>
</g>
<!-- 146&#45;&gt;7 -->
<g id="edge11" class="edge">
<title>146&#45;&gt;7</title>
<path fill="none" stroke="black" d="M187.7,-1141.22C187.7,-1118.39 187.7,-1077.91 187.7,-1049.28"/>
<polygon fill="black" stroke="black" points="191.2,-1049.33 187.7,-1039.33 184.2,-1049.33 191.2,-1049.33"/>
</g>
<!-- 8 -->
<g id="node13" class="node">
<title>8</title>
<ellipse fill="none" stroke="black" cx="279.7" cy="-1015.55" rx="48.18" ry="48.18"/>
<ellipse fill="none" stroke="black" cx="279.7" cy="-1015.55" rx="52.19" ry="52.19"/>
<text text-anchor="middle" x="279.7" y="-1011.85" font-family="Times New Roman,serif" font-size="14.00">annotation</text>
</g>
<!-- 146&#45;&gt;8 -->
<g id="edge12" class="edge">
<title>146&#45;&gt;8</title>
<path fill="none" stroke="black" d="M198.61,-1141.78C210.13,-1123.99 228.89,-1095.02 245.46,-1069.43"/>
<polygon fill="black" stroke="black" points="248.36,-1071.38 250.86,-1061.09 242.49,-1067.58 248.36,-1071.38"/>
</g>
<!-- 2 -->
<g id="node14" class="node">
<title>2</title>
<ellipse fill="none" stroke="black" cx="28.7" cy="-864.96" rx="24.87" ry="24.87"/>
<ellipse fill="none" stroke="black" cx="28.7" cy="-864.96" rx="28.9" ry="28.9"/>
<text text-anchor="middle" x="28.7" y="-861.26" font-family="Times New Roman,serif" font-size="14.00">java</text>
</g>
<!-- 147&#45;&gt;2 -->
<g id="edge13" class="edge">
<title>147&#45;&gt;2</title>
<path fill="none" stroke="black" d="M89.78,-997.5C79.02,-974.32 59.49,-932.26 45.4,-901.93"/>
<polygon fill="black" stroke="black" points="48.7,-900.71 41.31,-893.12 42.35,-903.66 48.7,-900.71"/>
</g>
<!-- 4 -->
<g id="node15" class="node">
<title>4</title>
<ellipse fill="none" stroke="black" cx="97.7" cy="-864.96" rx="18" ry="18"/>
<ellipse fill="none" stroke="black" cx="97.7" cy="-864.96" rx="22" ry="22"/>
<text text-anchor="middle" x="97.7" y="-861.26" font-family="Times New Roman,serif" font-size="14.00">.</text>
</g>
<!-- 147&#45;&gt;4 -->
<g id="edge14" class="edge">
<title>147&#45;&gt;4</title>
<path fill="none" stroke="black" d="M97.7,-997.21C97.7,-973.02 97.7,-928.68 97.7,-898.29"/>
<polygon fill="black" stroke="black" points="101.2,-898.51 97.7,-888.51 94.2,-898.51 101.2,-898.51"/>
</g>
<!-- 5 -->
<g id="node16" class="node">
<title>5</title>
<ellipse fill="none" stroke="black" cx="166.7" cy="-864.96" rx="25.22" ry="25.22"/>
<ellipse fill="none" stroke="black" cx="166.7" cy="-864.96" rx="29.2" ry="29.2"/>
<text text-anchor="middle" x="166.7" y="-861.26" font-family="Times New Roman,serif" font-size="14.00">lang</text>
</g>
<!-- 147&#45;&gt;5 -->
<g id="edge15" class="edge">
<title>147&#45;&gt;5</title>
<path fill="none" stroke="black" d="M105.61,-997.5C116.35,-974.39 135.79,-932.51 149.87,-902.2"/>
<polygon fill="black" stroke="black" points="152.92,-903.93 153.96,-893.39 146.58,-900.98 152.92,-903.93"/>
</g>
<!-- 16 -->
<g id="node18" class="node">
<title>16</title>
<ellipse fill="none" stroke="black" cx="450.7" cy="-1159.64" rx="34.4" ry="34.4"/>
<ellipse fill="none" stroke="black" cx="450.7" cy="-1159.64" rx="38.39" ry="38.39"/>
<text text-anchor="middle" x="450.7" y="-1155.94" font-family="Times New Roman,serif" font-size="14.00">import</text>
</g>
<!-- 149&#45;&gt;16 -->
<g id="edge17" class="edge">
<title>149&#45;&gt;16</title>
<path fill="none" stroke="black" d="M541.28,-1261.52C526.25,-1244.77 502.89,-1218.76 483.66,-1197.34"/>
<polygon fill="black" stroke="black" points="486.27,-1195.02 476.99,-1189.92 481.07,-1199.7 486.27,-1195.02"/>
</g>
<!-- 150 -->
<g id="node19" class="node">
<title>150</title>
<ellipse fill="none" stroke="black" cx="556.7" cy="-1159.64" rx="50.09" ry="18"/>
<text text-anchor="middle" x="556.7" y="-1155.94" font-family="Times New Roman,serif" font-size="14.00">type_name</text>
</g>
<!-- 149&#45;&gt;150 -->
<g id="edge18" class="edge">
<title>149&#45;&gt;150</title>
<path fill="none" stroke="black" d="M556.7,-1261.26C556.7,-1242.35 556.7,-1211.83 556.7,-1189.35"/>
<polygon fill="black" stroke="black" points="560.2,-1189.64 556.7,-1179.64 553.2,-1189.64 560.2,-1189.64"/>
</g>
<!-- 28 -->
<g id="node20" class="node">
<title>28</title>
<ellipse fill="none" stroke="black" cx="646.7" cy="-1159.64" rx="18" ry="18"/>
<ellipse fill="none" stroke="black" cx="646.7" cy="-1159.64" rx="22" ry="22"/>
<text text-anchor="middle" x="646.7" y="-1155.94" font-family="Times New Roman,serif" font-size="14.00">;</text>
</g>
<!-- 149&#45;&gt;28 -->
<g id="edge19" class="edge">
<title>149&#45;&gt;28</title>
<path fill="none" stroke="black" d="M571.11,-1261.44C583.27,-1246.72 601.01,-1224.88 615.7,-1205.24 619.89,-1199.62 624.27,-1193.51 628.36,-1187.66"/>
<polygon fill="black" stroke="black" points="631.23,-1189.66 634.04,-1179.45 625.47,-1185.68 631.23,-1189.66"/>
</g>
<!-- 151 -->
<g id="node21" class="node">
<title>151</title>
<ellipse fill="none" stroke="black" cx="466.7" cy="-1015.55" rx="50.09" ry="18"/>
<text text-anchor="middle" x="466.7" y="-1011.85" font-family="Times New Roman,serif" font-size="14.00">type_name</text>
</g>
<!-- 150&#45;&gt;151 -->
<g id="edge20" class="edge">
<title>150&#45;&gt;151</title>
<path fill="none" stroke="black" d="M546.02,-1141.78C530.53,-1117.32 501.67,-1071.75 483.36,-1042.85"/>
<polygon fill="black" stroke="black" points="486.48,-1041.24 478.17,-1034.66 480.57,-1044.98 486.48,-1041.24"/>
</g>
<!-- 25 -->
<g id="node22" class="node">
<title>25</title>
<ellipse fill="none" stroke="black" cx="556.7" cy="-1015.55" rx="18" ry="18"/>
<ellipse fill="none" stroke="black" cx="556.7" cy="-1015.55" rx="22" ry="22"/>
<text text-anchor="middle" x="556.7" y="-1011.85" font-family="Times New Roman,serif" font-size="14.00">.</text>
</g>
<!-- 150&#45;&gt;25 -->
<g id="edge21" class="edge">
<title>150&#45;&gt;25</title>
<path fill="none" stroke="black" d="M556.7,-1141.22C556.7,-1118.39 556.7,-1077.91 556.7,-1049.28"/>
<polygon fill="black" stroke="black" points="560.2,-1049.33 556.7,-1039.33 553.2,-1049.33 560.2,-1049.33"/>
</g>
<!-- 26 -->
<g id="node23" class="node">
<title>26</title>
<ellipse fill="none" stroke="black" cx="658.7" cy="-1015.55" rx="58.49" ry="58.49"/>
<ellipse fill="none" stroke="black" cx="658.7" cy="-1015.55" rx="62.49" ry="62.49"/>
<text text-anchor="middle" x="658.7" y="-1011.85" font-family="Times New Roman,serif" font-size="14.00">ElementType</text>
</g>
<!-- 150&#45;&gt;26 -->
<g id="edge22" class="edge">
<title>150&#45;&gt;26</title>
<path fill="none" stroke="black" d="M568.8,-1141.78C580.45,-1125.56 598.76,-1100.05 615.82,-1076.28"/>
<polygon fill="black" stroke="black" points="618.66,-1078.32 621.65,-1068.16 612.97,-1074.24 618.66,-1078.32"/>
</g>
<!-- 152 -->
<g id="node24" class="node">
<title>152</title>
<ellipse fill="none" stroke="black" cx="376.7" cy="-864.96" rx="50.09" ry="18"/>
<text text-anchor="middle" x="376.7" y="-861.26" font-family="Times New Roman,serif" font-size="14.00">type_name</text>
</g>
<!-- 151&#45;&gt;152 -->
<g id="edge23" class="edge">
<title>151&#45;&gt;152</title>
<path fill="none" stroke="black" d="M456.37,-997.5C440.78,-971.75 411.08,-922.72 392.67,-892.33"/>
<polygon fill="black" stroke="black" points="395.86,-890.84 387.69,-884.1 389.87,-894.47 395.86,-890.84"/>
</g>
<!-- 22 -->
<g id="node25" class="node">
<title>22</title>
<ellipse fill="none" stroke="black" cx="466.7" cy="-864.96" rx="18" ry="18"/>
<ellipse fill="none" stroke="black" cx="466.7" cy="-864.96" rx="22" ry="22"/>
<text text-anchor="middle" x="466.7" y="-861.26" font-family="Times New Roman,serif" font-size="14.00">.</text>
</g>
<!-- 151&#45;&gt;22 -->
<g id="edge24" class="edge">
<title>151&#45;&gt;22</title>
<path fill="none" stroke="black" d="M466.7,-997.21C466.7,-973.02 466.7,-928.68 466.7,-898.29"/>
<polygon fill="black" stroke="black" points="470.2,-898.51 466.7,-888.51 463.2,-898.51 470.2,-898.51"/>
</g>
<!-- 23 -->
<g id="node26" class="node">
<title>23</title>
<ellipse fill="none" stroke="black" cx="558.7" cy="-864.96" rx="48.18" ry="48.18"/>
<ellipse fill="none" stroke="black" cx="558.7" cy="-864.96" rx="52.19" ry="52.19"/>
<text text-anchor="middle" x="558.7" y="-861.26" font-family="Times New Roman,serif" font-size="14.00">annotation</text>
</g>
<!-- 151&#45;&gt;23 -->
<g id="edge25" class="edge">
<title>151&#45;&gt;23</title>
<path fill="none" stroke="black" d="M477.25,-997.5C488.99,-978.55 508.54,-946.97 525.54,-919.51"/>
<polygon fill="black" stroke="black" points="528.35,-921.62 530.64,-911.28 522.4,-917.94 528.35,-921.62"/>
</g>
<!-- 17 -->
<g id="node27" class="node">
<title>17</title>
<ellipse fill="none" stroke="black" cx="307.7" cy="-747.51" rx="24.87" ry="24.87"/>
<ellipse fill="none" stroke="black" cx="307.7" cy="-747.51" rx="28.9" ry="28.9"/>
<text text-anchor="middle" x="307.7" y="-743.81" font-family="Times New Roman,serif" font-size="14.00">java</text>
</g>
<!-- 152&#45;&gt;17 -->
<g id="edge26" class="edge">
<title>152&#45;&gt;17</title>
<path fill="none" stroke="black" d="M366.52,-846.92C356.42,-830.03 340.67,-803.68 328.01,-782.49"/>
<polygon fill="black" stroke="black" points="331.17,-780.96 323.03,-774.17 325.16,-784.55 331.17,-780.96"/>
</g>
<!-- 19 -->
<g id="node28" class="node">
<title>19</title>
<ellipse fill="none" stroke="black" cx="376.7" cy="-747.51" rx="18" ry="18"/>
<ellipse fill="none" stroke="black" cx="376.7" cy="-747.51" rx="22" ry="22"/>
<text text-anchor="middle" x="376.7" y="-743.81" font-family="Times New Roman,serif" font-size="14.00">.</text>
</g>
<!-- 152&#45;&gt;19 -->
<g id="edge27" class="edge">
<title>152&#45;&gt;19</title>
<path fill="none" stroke="black" d="M376.7,-846.92C376.7,-829.75 376.7,-802.8 376.7,-781.45"/>
<polygon fill="black" stroke="black" points="380.2,-781.46 376.7,-771.46 373.2,-781.46 380.2,-781.46"/>
</g>
<!-- 20 -->
<g id="node29" class="node">
<title>20</title>
<ellipse fill="none" stroke="black" cx="445.7" cy="-747.51" rx="25.22" ry="25.22"/>
<ellipse fill="none" stroke="black" cx="445.7" cy="-747.51" rx="29.2" ry="29.2"/>
<text text-anchor="middle" x="445.7" y="-743.81" font-family="Times New Roman,serif" font-size="14.00">lang</text>
</g>
<!-- 152&#45;&gt;20 -->
<g id="edge28" class="edge">
<title>152&#45;&gt;20</title>
<path fill="none" stroke="black" d="M386.88,-846.92C396.98,-830.03 412.73,-803.68 425.39,-782.49"/>
<polygon fill="black" stroke="black" points="428.24,-784.55 430.36,-774.17 422.23,-780.96 428.24,-784.55"/>
</g>
<!-- 34 -->
<g id="node32" class="node">
<title>34</title>
<ellipse fill="none" stroke="black" cx="823.7" cy="-1159.64" rx="41.68" ry="41.68"/>
<ellipse fill="none" stroke="black" cx="823.7" cy="-1159.64" rx="45.69" ry="45.69"/>
<text text-anchor="middle" x="823.7" y="-1155.94" font-family="Times New Roman,serif" font-size="14.00">interface</text>
</g>
<!-- 154&#45;&gt;34 -->
<g id="edge31" class="edge">
<title>154&#45;&gt;34</title>
<path fill="none" stroke="black" d="M863.76,-1261.26C858.69,-1248.52 851.52,-1230.5 844.64,-1213.23"/>
<polygon fill="black" stroke="black" points="847.93,-1212.03 840.98,-1204.04 841.42,-1214.62 847.93,-1212.03"/>
</g>
<!-- 35 -->
<g id="node33" class="node">
<title>35</title>
<ellipse fill="none" stroke="black" cx="917.7" cy="-1159.64" rx="26" ry="26"/>
<ellipse fill="none" stroke="black" cx="917.7" cy="-1159.64" rx="30" ry="30"/>
<text text-anchor="middle" x="917.7" y="-1155.94" font-family="Times New Roman,serif" font-size="14.00">Foo</text>
</g>
<!-- 154&#45;&gt;35 -->
<g id="edge32" class="edge">
<title>154&#45;&gt;35</title>
<path fill="none" stroke="black" d="M877.63,-1261.26C884.2,-1244.77 894.28,-1219.46 902.68,-1198.35"/>
<polygon fill="black" stroke="black" points="905.89,-1199.75 906.34,-1189.17 899.39,-1197.16 905.89,-1199.75"/>
</g>
<!-- 156 -->
<g id="node34" class="node">
<title>156</title>
<ellipse fill="none" stroke="black" cx="1126.7" cy="-1159.64" rx="115.88" ry="18"/>
<text text-anchor="middle" x="1126.7" y="-1155.94" font-family="Times New Roman,serif" font-size="14.00">normal_interface_declaration</text>
</g>
<!-- 155&#45;&gt;156 -->
<g id="edge33" class="edge">
<title>155&#45;&gt;156</title>
<path fill="none" stroke="black" d="M1205.98,-1261.26C1190.43,-1241.54 1164.95,-1209.19 1147.08,-1186.51"/>
<polygon fill="black" stroke="black" points="1150.05,-1184.62 1141.11,-1178.93 1144.55,-1188.95 1150.05,-1184.62"/>
</g>
<!-- 157 -->
<g id="node35" class="node">
<title>157</title>
<ellipse fill="none" stroke="black" cx="1475.7" cy="-1159.64" rx="215.56" ry="18"/>
<text text-anchor="middle" x="1475.7" y="-1155.94" font-family="Times New Roman,serif" font-size="14.00">top_level_class_or_interface_declaration_zero_or_more</text>
</g>
<!-- 155&#45;&gt;157 -->
<g id="edge34" class="edge">
<title>155&#45;&gt;157</title>
<path fill="none" stroke="black" d="M1256.92,-1261.52C1302.14,-1240.67 1378.5,-1205.46 1427.99,-1182.64"/>
<polygon fill="black" stroke="black" points="1429.44,-1185.82 1437.05,-1178.46 1426.51,-1179.47 1429.44,-1185.82"/>
</g>
<!-- 46 -->
<g id="node36" class="node">
<title>46</title>
<ellipse fill="none" stroke="black" cx="1080.7" cy="-1015.55" rx="41.68" ry="41.68"/>
<ellipse fill="none" stroke="black" cx="1080.7" cy="-1015.55" rx="45.69" ry="45.69"/>
<text text-anchor="middle" x="1080.7" y="-1011.85" font-family="Times New Roman,serif" font-size="14.00">interface</text>
</g>
<!-- 156&#45;&gt;46 -->
<g id="edge35" class="edge">
<title>156&#45;&gt;46</title>
<path fill="none" stroke="black" d="M1121.06,-1141.22C1115.35,-1123.59 1106.24,-1095.45 1098.12,-1070.35"/>
<polygon fill="black" stroke="black" points="1101.47,-1069.33 1095.06,-1060.9 1094.81,-1071.49 1101.47,-1069.33"/>
</g>
<!-- 47 -->
<g id="node37" class="node">
<title>47</title>
<ellipse fill="none" stroke="black" cx="1171.7" cy="-1015.55" rx="23.31" ry="23.31"/>
<ellipse fill="none" stroke="black" cx="1171.7" cy="-1015.55" rx="27.3" ry="27.3"/>
<text text-anchor="middle" x="1171.7" y="-1011.85" font-family="Times New Roman,serif" font-size="14.00">Bar</text>
</g>
<!-- 156&#45;&gt;47 -->
<g id="edge36" class="edge">
<title>156&#45;&gt;47</title>
<path fill="none" stroke="black" d="M1132.22,-1141.22C1139.16,-1119.3 1151.25,-1081.11 1160.23,-1052.75"/>
<polygon fill="black" stroke="black" points="1163.48,-1054.08 1163.17,-1043.49 1156.81,-1051.96 1163.48,-1054.08"/>
</g>
<!-- 158 -->
<g id="node38" class="node">
<title>158</title>
<ellipse fill="none" stroke="black" cx="1475.7" cy="-1015.55" rx="79.09" ry="18"/>
<text text-anchor="middle" x="1475.7" y="-1011.85" font-family="Times New Roman,serif" font-size="14.00">record_declaration</text>
</g>
<!-- 157&#45;&gt;158 -->
<g id="edge37" class="edge">
<title>157&#45;&gt;158</title>
<path fill="none" stroke="black" d="M1475.7,-1141.22C1475.7,-1117.22 1475.7,-1073.73 1475.7,-1044.98"/>
<polygon fill="black" stroke="black" points="1479.2,-1045.18 1475.7,-1035.18 1472.2,-1045.18 1479.2,-1045.18"/>
</g>
<!-- 58 -->
<g id="node39" class="node">
<title>58</title>
<ellipse fill="none" stroke="black" cx="1317.7" cy="-864.96" rx="34.4" ry="34.4"/>
<ellipse fill="none" stroke="black" cx="1317.7" cy="-864.96" rx="38.39" ry="38.39"/>
<text text-anchor="middle" x="1317.7" y="-861.26" font-family="Times New Roman,serif" font-size="14.00">record</text>
</g>
<!-- 158&#45;&gt;58 -->
<g id="edge38" class="edge">
<title>158&#45;&gt;58</title>
<path fill="none" stroke="black" d="M1455.74,-997.82C1433.31,-978.8 1396.08,-946.57 1365.7,-917.05 1360.77,-912.27 1355.68,-907.11 1350.75,-901.97"/>
<polygon fill="black" stroke="black" points="1353.62,-899.92 1344.2,-895.08 1348.55,-904.74 1353.62,-899.92"/>
</g>
<!-- 59 -->
<g id="node40" class="node">
<title>59</title>
<ellipse fill="none" stroke="black" cx="1414.7" cy="-864.96" rx="36.3" ry="36.3"/>
<ellipse fill="none" stroke="black" cx="1414.7" cy="-864.96" rx="40.29" ry="40.29"/>
<text text-anchor="middle" x="1414.7" y="-861.26" font-family="Times New Roman,serif" font-size="14.00">Person</text>
</g>
<!-- 158&#45;&gt;59 -->
<g id="edge39" class="edge">
<title>158&#45;&gt;59</title>
<path fill="none" stroke="black" d="M1468.58,-997.21C1460.19,-976.78 1445.91,-941.98 1434.15,-913.35"/>
<polygon fill="black" stroke="black" points="1437.4,-912.04 1430.36,-904.12 1430.92,-914.7 1437.4,-912.04"/>
</g>
<!-- 159 -->
<g id="node41" class="node">
<title>159</title>
<ellipse fill="none" stroke="black" cx="1536.7" cy="-864.96" rx="63.89" ry="18"/>
<text text-anchor="middle" x="1536.7" y="-861.26" font-family="Times New Roman,serif" font-size="14.00">record_header</text>
</g>
<!-- 158&#45;&gt;159 -->
<g id="edge40" class="edge">
<title>158&#45;&gt;159</title>
<path fill="none" stroke="black" d="M1482.81,-997.21C1493.28,-971.71 1512.94,-923.84 1525.39,-893.49"/>
<polygon fill="black" stroke="black" points="1528.49,-895.16 1529.05,-884.58 1522.02,-892.5 1528.49,-895.16"/>
</g>
<!-- 161 -->
<g id="node42" class="node">
<title>161</title>
<ellipse fill="none" stroke="black" cx="1736.7" cy="-864.96" rx="58.49" ry="18"/>
<text text-anchor="middle" x="1736.7" y="-861.26" font-family="Times New Roman,serif" font-size="14.00">record_body</text>
</g>
<!-- 158&#45;&gt;161 -->
<g id="edge41" class="edge">
<title>158&#45;&gt;161</title>
<path fill="none" stroke="black" d="M1504.13,-998.36C1551.69,-971.28 1647.35,-916.83 1699.95,-886.88"/>
<polygon fill="black" stroke="black" points="1701.6,-889.97 1708.56,-881.98 1698.13,-883.88 1701.6,-889.97"/>
</g>
<!-- 61 -->
<g id="node43" class="node">
<title>61</title>
<ellipse fill="none" stroke="black" cx="1354.7" cy="-747.51" rx="18" ry="18"/>
<ellipse fill="none" stroke="black" cx="1354.7" cy="-747.51" rx="22" ry="22"/>
<text text-anchor="middle" x="1354.7" y="-743.81" font-family="Times New Roman,serif" font-size="14.00">(</text>
</g>
<!-- 159&#45;&gt;61 -->
<g id="edge42" class="edge">
<title>159&#45;&gt;61</title>
<path fill="none" stroke="black" d="M1515.64,-847.71C1501.4,-837.11 1481.94,-823.34 1463.7,-812.86 1430.59,-793.84 1417.5,-798 1385.7,-776.86 1383.17,-775.18 1380.64,-773.29 1378.18,-771.31"/>
<polygon fill="black" stroke="black" points="1380.67,-768.85 1370.83,-764.93 1376.08,-774.13 1380.67,-768.85"/>
</g>
<!-- 160 -->
<g id="node44" class="node">
<title>160</title>
<ellipse fill="none" stroke="black" cx="1475.7" cy="-747.51" rx="80.69" ry="18"/>
<text text-anchor="middle" x="1475.7" y="-743.81" font-family="Times New Roman,serif" font-size="14.00">record_component</text>
</g>
<!-- 159&#45;&gt;160 -->
<g id="edge43" class="edge">
<title>159&#45;&gt;160</title>
<path fill="none" stroke="black" d="M1527.7,-846.92C1517.79,-828.17 1501.71,-797.75 1490.06,-775.69"/>
<polygon fill="black" stroke="black" points="1493.21,-774.16 1485.44,-766.96 1487.02,-777.43 1493.21,-774.16"/>
</g>
<!-- 70 -->
<g id="node45" class="node">
<title>70</title>
<ellipse fill="none" stroke="black" cx="1596.7" cy="-747.51" rx="18" ry="18"/>
<ellipse fill="none" stroke="black" cx="1596.7" cy="-747.51" rx="22" ry="22"/>
<text text-anchor="middle" x="1596.7" y="-743.81" font-family="Times New Roman,serif" font-size="14.00">)</text>
</g>
<!-- 159&#45;&gt;70 -->
<g id="edge44" class="edge">
<title>159&#45;&gt;70</title>
<path fill="none" stroke="black" d="M1545.55,-846.92C1555.02,-828.71 1570.21,-799.48 1581.58,-777.61"/>
<polygon fill="black" stroke="black" points="1584.6,-779.37 1586.11,-768.88 1578.39,-776.14 1584.6,-779.37"/>
</g>
<!-- 73 -->
<g id="node48" class="node">
<title>73</title>
<ellipse fill="none" stroke="black" cx="1658.7" cy="-747.51" rx="18" ry="18"/>
<ellipse fill="none" stroke="black" cx="1658.7" cy="-747.51" rx="22" ry="22"/>
<text text-anchor="middle" x="1658.7" y="-743.81" font-family="Times New Roman,serif" font-size="14.00">{</text>
</g>
<!-- 161&#45;&gt;73 -->
<g id="edge47" class="edge">
<title>161&#45;&gt;73</title>
<path fill="none" stroke="black" d="M1725.19,-846.92C1712.55,-828.21 1692.06,-797.9 1677.17,-775.85"/>
<polygon fill="black" stroke="black" points="1680.11,-773.96 1671.62,-767.63 1674.31,-777.88 1680.11,-773.96"/>
</g>
<!-- 162 -->
<g id="node49" class="node">
<title>162</title>
<ellipse fill="none" stroke="black" cx="1857.7" cy="-747.51" rx="159.47" ry="18"/>
<text text-anchor="middle" x="1857.7" y="-743.81" font-family="Times New Roman,serif" font-size="14.00">record_body_declaration_zero_or_more</text>
</g>
<!-- 161&#45;&gt;162 -->
<g id="edge48" class="edge">
<title>161&#45;&gt;162</title>
<path fill="none" stroke="black" d="M1754.03,-847.42C1774.29,-828.09 1808.01,-795.92 1831.47,-773.54"/>
<polygon fill="black" stroke="black" points="1833.69,-776.26 1838.51,-766.82 1828.86,-771.19 1833.69,-776.26"/>
</g>
<!-- 133 -->
<g id="node50" class="node">
<title>133</title>
<ellipse fill="none" stroke="black" cx="2056.7" cy="-747.51" rx="18" ry="18"/>
<ellipse fill="none" stroke="black" cx="2056.7" cy="-747.51" rx="22" ry="22"/>
<text text-anchor="middle" x="2056.7" y="-743.81" font-family="Times New Roman,serif" font-size="14.00">}</text>
</g>
<!-- 161&#45;&gt;133 -->
<g id="edge49" class="edge">
<title>161&#45;&gt;133</title>
<path fill="none" stroke="black" d="M1787.73,-855.73C1847.71,-844.49 1948.81,-820.55 2025.7,-776.86 2028.34,-775.36 2030.95,-773.6 2033.45,-771.69"/>
<polygon fill="black" stroke="black" points="2035.5,-774.55 2040.86,-765.41 2030.97,-769.21 2035.5,-774.55"/>
</g>
<!-- 62 -->
<g id="node46" class="node">
<title>62</title>
<ellipse fill="none" stroke="black" cx="1431.7" cy="-645.67" rx="32.49" ry="32.49"/>
<ellipse fill="none" stroke="black" cx="1431.7" cy="-645.67" rx="36.49" ry="36.49"/>
<text text-anchor="middle" x="1431.7" y="-641.97" font-family="Times New Roman,serif" font-size="14.00">String</text>
</g>
<!-- 160&#45;&gt;62 -->
<g id="edge45" class="edge">
<title>160&#45;&gt;62</title>
<path fill="none" stroke="black" d="M1468.03,-729.12C1463.25,-718.26 1456.85,-703.75 1450.77,-689.94"/>
<polygon fill="black" stroke="black" points="1454.05,-688.71 1446.81,-680.97 1447.64,-691.53 1454.05,-688.71"/>
</g>
<!-- 67 -->
<g id="node47" class="node">
<title>67</title>
<ellipse fill="none" stroke="black" cx="1519.7" cy="-645.67" rx="29.81" ry="29.81"/>
<ellipse fill="none" stroke="black" cx="1519.7" cy="-645.67" rx="33.8" ry="33.8"/>
<text text-anchor="middle" x="1519.7" y="-641.97" font-family="Times New Roman,serif" font-size="14.00">name</text>
</g>
<!-- 160&#45;&gt;67 -->
<g id="edge46" class="edge">
<title>160&#45;&gt;67</title>
<path fill="none" stroke="black" d="M1483.36,-729.12C1488.43,-717.61 1495.31,-702.02 1501.71,-687.49"/>
<polygon fill="black" stroke="black" points="1504.82,-689.12 1505.65,-678.55 1498.41,-686.29 1504.82,-689.12"/>
</g>
<!-- 163 -->
<g id="node51" class="node">
<title>163</title>
<ellipse fill="none" stroke="black" cx="1857.7" cy="-645.67" rx="96.68" ry="18"/>
<text text-anchor="middle" x="1857.7" y="-641.97" font-family="Times New Roman,serif" font-size="14.00">constructor_declaration</text>
</g>
<!-- 162&#45;&gt;163 -->
<g id="edge50" class="edge">
<title>162&#45;&gt;163</title>
<path fill="none" stroke="black" d="M1857.7,-729.12C1857.7,-714.3 1857.7,-692.71 1857.7,-675.34"/>
<polygon fill="black" stroke="black" points="1861.2,-675.37 1857.7,-665.37 1854.2,-675.37 1861.2,-675.37"/>
</g>
<!-- 164 -->
<g id="node52" class="node">
<title>164</title>
<ellipse fill="none" stroke="black" cx="1737.7" cy="-555.17" rx="93.68" ry="18"/>
<text text-anchor="middle" x="1737.7" y="-551.47" font-family="Times New Roman,serif" font-size="14.00">constructor_declarator</text>
</g>
<!-- 163&#45;&gt;164 -->
<g id="edge51" class="edge">
<title>163&#45;&gt;164</title>
<path fill="none" stroke="black" d="M1834.84,-627.82C1816.33,-614.16 1790.03,-594.76 1769.46,-579.6"/>
<polygon fill="black" stroke="black" points="1771.81,-576.98 1761.68,-573.86 1767.66,-582.61 1771.81,-576.98"/>
</g>
<!-- 167 -->
<g id="node53" class="node">
<title>167</title>
<ellipse fill="none" stroke="black" cx="1976.7" cy="-555.17" rx="76.89" ry="18"/>
<text text-anchor="middle" x="1976.7" y="-551.47" font-family="Times New Roman,serif" font-size="14.00">constructor_body</text>
</g>
<!-- 163&#45;&gt;167 -->
<g id="edge52" class="edge">
<title>163&#45;&gt;167</title>
<path fill="none" stroke="black" d="M1880.36,-627.82C1898.76,-614.13 1924.9,-594.69 1945.31,-579.51"/>
<polygon fill="black" stroke="black" points="1947.37,-582.34 1953.31,-573.57 1943.19,-576.73 1947.37,-582.34"/>
</g>
<!-- 76 -->
<g id="node54" class="node">
<title>76</title>
<ellipse fill="none" stroke="black" cx="1542.7" cy="-460.78" rx="36.3" ry="36.3"/>
<ellipse fill="none" stroke="black" cx="1542.7" cy="-460.78" rx="40.29" ry="40.29"/>
<text text-anchor="middle" x="1542.7" y="-457.08" font-family="Times New Roman,serif" font-size="14.00">Person</text>
</g>
<!-- 164&#45;&gt;76 -->
<g id="edge53" class="edge">
<title>164&#45;&gt;76</title>
<path fill="none" stroke="black" d="M1685.55,-539.84C1656.85,-530.83 1621.19,-517.77 1591.7,-501.17 1588.31,-499.27 1584.92,-497.13 1581.59,-494.86"/>
<polygon fill="black" stroke="black" points="1583.81,-492.14 1573.66,-489.1 1579.69,-497.81 1583.81,-492.14"/>
</g>
<!-- 77 -->
<g id="node55" class="node">
<title>77</title>
<ellipse fill="none" stroke="black" cx="1622.7" cy="-460.78" rx="18" ry="18"/>
<ellipse fill="none" stroke="black" cx="1622.7" cy="-460.78" rx="22" ry="22"/>
<text text-anchor="middle" x="1622.7" y="-457.08" font-family="Times New Roman,serif" font-size="14.00">(</text>
</g>
<!-- 164&#45;&gt;77 -->
<g id="edge54" class="edge">
<title>164&#45;&gt;77</title>
<path fill="none" stroke="black" d="M1706.4,-537.85C1689.79,-528.37 1669.58,-515.49 1653.7,-501.17 1649.55,-497.44 1645.54,-493.1 1641.85,-488.7"/>
<polygon fill="black" stroke="black" points="1644.67,-486.62 1635.74,-480.93 1639.17,-490.95 1644.67,-486.62"/>
</g>
<!-- 165 -->
<g id="node56" class="node">
<title>165</title>
<ellipse fill="none" stroke="black" cx="1737.7" cy="-460.78" rx="74.99" ry="18"/>
<text text-anchor="middle" x="1737.7" y="-457.08" font-family="Times New Roman,serif" font-size="14.00">formal_parameter</text>
</g>
<!-- 164&#45;&gt;165 -->
<g id="edge55" class="edge">
<title>164&#45;&gt;165</title>
<path fill="none" stroke="black" d="M1737.7,-536.79C1737.7,-523.76 1737.7,-505.63 1737.7,-490.46"/>
<polygon fill="black" stroke="black" points="1741.2,-490.59 1737.7,-480.59 1734.2,-490.59 1741.2,-490.59"/>
</g>
<!-- 89 -->
<g id="node57" class="node">
<title>89</title>
<ellipse fill="none" stroke="black" cx="1852.7" cy="-460.78" rx="18" ry="18"/>
<ellipse fill="none" stroke="black" cx="1852.7" cy="-460.78" rx="22" ry="22"/>
<text text-anchor="middle" x="1852.7" y="-457.08" font-family="Times New Roman,serif" font-size="14.00">)</text>
</g>
<!-- 164&#45;&gt;89 -->
<g id="edge56" class="edge">
<title>164&#45;&gt;89</title>
<path fill="none" stroke="black" d="M1769,-537.85C1785.61,-528.37 1805.81,-515.49 1821.7,-501.17 1825.84,-497.44 1829.86,-493.1 1833.55,-488.7"/>
<polygon fill="black" stroke="black" points="1836.22,-490.95 1839.66,-480.93 1830.72,-486.62 1836.22,-490.95"/>
</g>
<!-- 92 -->
<g id="node61" class="node">
<title>92</title>
<ellipse fill="none" stroke="black" cx="1914.7" cy="-460.78" rx="18" ry="18"/>
<ellipse fill="none" stroke="black" cx="1914.7" cy="-460.78" rx="22" ry="22"/>
<text text-anchor="middle" x="1914.7" y="-457.08" font-family="Times New Roman,serif" font-size="14.00">{</text>
</g>
<!-- 167&#45;&gt;92 -->
<g id="edge60" class="edge">
<title>167&#45;&gt;92</title>
<path fill="none" stroke="black" d="M1965.33,-537.22C1956.24,-523.68 1943.32,-504.43 1932.81,-488.77"/>
<polygon fill="black" stroke="black" points="1935.95,-487.17 1927.47,-480.82 1930.14,-491.07 1935.95,-487.17"/>
</g>
<!-- 168 -->
<g id="node62" class="node">
<title>168</title>
<ellipse fill="none" stroke="black" cx="2028.7" cy="-460.78" rx="74.19" ry="18"/>
<text text-anchor="middle" x="2028.7" y="-457.08" font-family="Times New Roman,serif" font-size="14.00">block_statements</text>
</g>
<!-- 167&#45;&gt;168 -->
<g id="edge61" class="edge">
<title>167&#45;&gt;168</title>
<path fill="none" stroke="black" d="M1986.24,-537.22C1993.88,-523.63 2004.76,-504.31 2013.59,-488.62"/>
<polygon fill="black" stroke="black" points="2016.45,-490.68 2018.3,-480.25 2010.35,-487.24 2016.45,-490.68"/>
</g>
<!-- 127 -->
<g id="node63" class="node">
<title>127</title>
<ellipse fill="none" stroke="black" cx="2142.7" cy="-460.78" rx="18" ry="18"/>
<ellipse fill="none" stroke="black" cx="2142.7" cy="-460.78" rx="22" ry="22"/>
<text text-anchor="middle" x="2142.7" y="-457.08" font-family="Times New Roman,serif" font-size="14.00">}</text>
</g>
<!-- 167&#45;&gt;127 -->
<g id="edge62" class="edge">
<title>167&#45;&gt;127</title>
<path fill="none" stroke="black" d="M2027.37,-541.28C2054.18,-532.81 2086.64,-519.8 2111.7,-501.17 2116.38,-497.69 2120.74,-493.33 2124.62,-488.79"/>
<polygon fill="black" stroke="black" points="2127.13,-491.26 2130.52,-481.22 2121.61,-486.96 2127.13,-491.26"/>
</g>
<!-- 78 -->
<g id="node58" class="node">
<title>78</title>
<ellipse fill="none" stroke="black" cx="1639.7" cy="-347.88" rx="32.49" ry="32.49"/>
<ellipse fill="none" stroke="black" cx="1639.7" cy="-347.88" rx="36.49" ry="36.49"/>
<text text-anchor="middle" x="1639.7" y="-344.18" font-family="Times New Roman,serif" font-size="14.00">String</text>
</g>
<!-- 165&#45;&gt;78 -->
<g id="edge57" class="edge">
<title>165&#45;&gt;78</title>
<path fill="none" stroke="black" d="M1722.81,-442.93C1709.1,-427.42 1688.31,-403.89 1670.95,-384.25"/>
<polygon fill="black" stroke="black" points="1673.76,-382.13 1664.51,-376.96 1668.51,-386.77 1673.76,-382.13"/>
</g>
<!-- 166 -->
<g id="node59" class="node">
<title>166</title>
<ellipse fill="none" stroke="black" cx="1784.7" cy="-347.88" rx="90.98" ry="18"/>
<text text-anchor="middle" x="1784.7" y="-344.18" font-family="Times New Roman,serif" font-size="14.00">variable_declarator_id</text>
</g>
<!-- 165&#45;&gt;166 -->
<g id="edge58" class="edge">
<title>165&#45;&gt;166</title>
<path fill="none" stroke="black" d="M1745.04,-442.45C1752.53,-424.79 1764.25,-397.13 1773.01,-376.46"/>
<polygon fill="black" stroke="black" points="1776.14,-378.05 1776.81,-367.48 1769.69,-375.32 1776.14,-378.05"/>
</g>
<!-- 83 -->
<g id="node60" class="node">
<title>83</title>
<ellipse fill="none" stroke="black" cx="1784.7" cy="-241.49" rx="29.81" ry="29.81"/>
<ellipse fill="none" stroke="black" cx="1784.7" cy="-241.49" rx="33.8" ry="33.8"/>
<text text-anchor="middle" x="1784.7" y="-237.79" font-family="Times New Roman,serif" font-size="14.00">name</text>
</g>
<!-- 166&#45;&gt;83 -->
<g id="edge59" class="edge">
<title>166&#45;&gt;83</title>
<path fill="none" stroke="black" d="M1784.7,-329.64C1784.7,-317.92 1784.7,-301.85 1784.7,-286.69"/>
<polygon fill="black" stroke="black" points="1788.2,-286.88 1784.7,-276.88 1781.2,-286.88 1788.2,-286.88"/>
</g>
<!-- 169 -->
<g id="node64" class="node">
<title>169</title>
<ellipse fill="none" stroke="black" cx="2028.7" cy="-347.88" rx="89.08" ry="18"/>
<text text-anchor="middle" x="2028.7" y="-344.18" font-family="Times New Roman,serif" font-size="14.00">expression_statement</text>
</g>
<!-- 168&#45;&gt;169 -->
<g id="edge63" class="edge">
<title>168&#45;&gt;169</title>
<path fill="none" stroke="black" d="M2028.7,-442.45C2028.7,-425.03 2028.7,-397.89 2028.7,-377.32"/>
<polygon fill="black" stroke="black" points="2032.2,-377.6 2028.7,-367.6 2025.2,-377.6 2032.2,-377.6"/>
</g>
<!-- 170 -->
<g id="node65" class="node">
<title>170</title>
<ellipse fill="none" stroke="black" cx="1982.7" cy="-241.49" rx="50.89" ry="18"/>
<text text-anchor="middle" x="1982.7" y="-237.79" font-family="Times New Roman,serif" font-size="14.00">assignment</text>
</g>
<!-- 169&#45;&gt;170 -->
<g id="edge64" class="edge">
<title>169&#45;&gt;170</title>
<path fill="none" stroke="black" d="M2021.1,-329.64C2013.98,-313.47 2003.2,-289.02 1994.88,-270.13"/>
<polygon fill="black" stroke="black" points="1998.15,-268.88 1990.92,-261.14 1991.74,-271.7 1998.15,-268.88"/>
</g>
<!-- 120 -->
<g id="node66" class="node">
<title>120</title>
<ellipse fill="none" stroke="black" cx="2073.7" cy="-241.49" rx="18" ry="18"/>
<ellipse fill="none" stroke="black" cx="2073.7" cy="-241.49" rx="22" ry="22"/>
<text text-anchor="middle" x="2073.7" y="-237.79" font-family="Times New Roman,serif" font-size="14.00">;</text>
</g>
<!-- 169&#45;&gt;120 -->
<g id="edge65" class="edge">
<title>169&#45;&gt;120</title>
<path fill="none" stroke="black" d="M2036.13,-329.64C2042.78,-314.22 2052.67,-291.27 2060.63,-272.79"/>
<polygon fill="black" stroke="black" points="2063.84,-274.2 2064.58,-263.64 2057.41,-271.43 2063.84,-274.2"/>
</g>
<!-- 171 -->
<g id="node67" class="node">
<title>171</title>
<ellipse fill="none" stroke="black" cx="1886.7" cy="-137.69" rx="55.79" ry="18"/>
<text text-anchor="middle" x="1886.7" y="-133.99" font-family="Times New Roman,serif" font-size="14.00">field_access</text>
</g>
<!-- 170&#45;&gt;171 -->
<g id="edge66" class="edge">
<title>170&#45;&gt;171</title>
<path fill="none" stroke="black" d="M1967.27,-224.13C1951.83,-207.76 1927.87,-182.35 1910.09,-163.49"/>
<polygon fill="black" stroke="black" points="1912.85,-161.32 1903.44,-156.45 1907.76,-166.12 1912.85,-161.32"/>
</g>
<!-- 99 -->
<g id="node68" class="node">
<title>99</title>
<ellipse fill="none" stroke="black" cx="1982.7" cy="-137.69" rx="18" ry="18"/>
<ellipse fill="none" stroke="black" cx="1982.7" cy="-137.69" rx="22" ry="22"/>
<text text-anchor="middle" x="1982.7" y="-133.99" font-family="Times New Roman,serif" font-size="14.00">=</text>
</g>
<!-- 170&#45;&gt;99 -->
<g id="edge67" class="edge">
<title>170&#45;&gt;99</title>
<path fill="none" stroke="black" d="M1982.7,-223.22C1982.7,-209.02 1982.7,-188.51 1982.7,-171.25"/>
<polygon fill="black" stroke="black" points="1986.2,-171.45 1982.7,-161.45 1979.2,-171.45 1986.2,-171.45"/>
</g>
<!-- 101 -->
<g id="node69" class="node">
<title>101</title>
<ellipse fill="none" stroke="black" cx="2056.7" cy="-137.69" rx="29.81" ry="29.81"/>
<ellipse fill="none" stroke="black" cx="2056.7" cy="-137.69" rx="33.8" ry="33.8"/>
<text text-anchor="middle" x="2056.7" y="-133.99" font-family="Times New Roman,serif" font-size="14.00">name</text>
</g>
<!-- 170&#45;&gt;101 -->
<g id="edge68" class="edge">
<title>170&#45;&gt;101</title>
<path fill="none" stroke="black" d="M1994.92,-223.68C2004.62,-210.34 2018.52,-191.21 2030.68,-174.48"/>
<polygon fill="black" stroke="black" points="2033.28,-176.86 2036.33,-166.71 2027.62,-172.74 2033.28,-176.86"/>
</g>
<!-- 93 -->
<g id="node70" class="node">
<title>93</title>
<ellipse fill="none" stroke="black" cx="1819.7" cy="-33.9" rx="23.31" ry="23.31"/>
<ellipse fill="none" stroke="black" cx="1819.7" cy="-33.9" rx="27.3" ry="27.3"/>
<text text-anchor="middle" x="1819.7" y="-30.2" font-family="Times New Roman,serif" font-size="14.00">this</text>
</g>
<!-- 171&#45;&gt;93 -->
<g id="edge69" class="edge">
<title>171&#45;&gt;93</title>
<path fill="none" stroke="black" d="M1875.63,-119.88C1866.1,-105.4 1852.08,-84.1 1840.46,-66.44"/>
<polygon fill="black" stroke="black" points="1843.55,-64.77 1835.13,-58.34 1837.7,-68.62 1843.55,-64.77"/>
</g>
<!-- 96 -->
<g id="node71" class="node">
<title>96</title>
<ellipse fill="none" stroke="black" cx="1886.7" cy="-33.9" rx="18" ry="18"/>
<ellipse fill="none" stroke="black" cx="1886.7" cy="-33.9" rx="22" ry="22"/>
<text text-anchor="middle" x="1886.7" y="-30.2" font-family="Times New Roman,serif" font-size="14.00">.</text>
</g>
<!-- 171&#45;&gt;96 -->
<g id="edge70" class="edge">
<title>171&#45;&gt;96</title>
<path fill="none" stroke="black" d="M1886.7,-119.42C1886.7,-105.23 1886.7,-84.72 1886.7,-67.45"/>
<polygon fill="black" stroke="black" points="1890.2,-67.65 1886.7,-57.65 1883.2,-67.65 1890.2,-67.65"/>
</g>
<!-- 97 -->
<g id="node72" class="node">
<title>97</title>
<ellipse fill="none" stroke="black" cx="1960.7" cy="-33.9" rx="29.81" ry="29.81"/>
<ellipse fill="none" stroke="black" cx="1960.7" cy="-33.9" rx="33.8" ry="33.8"/>
<text text-anchor="middle" x="1960.7" y="-30.2" font-family="Times New Roman,serif" font-size="14.00">name</text>
</g>
<!-- 171&#45;&gt;97 -->
<g id="edge71" class="edge">
<title>171&#45;&gt;97</title>
<path fill="none" stroke="black" d="M1898.92,-119.88C1908.62,-106.54 1922.52,-87.42 1934.68,-70.69"/>
<polygon fill="black" stroke="black" points="1937.28,-73.06 1940.33,-62.92 1931.62,-68.95 1937.28,-73.06"/>
</g>
</g>
</svg>
